<?xml version="1.0" encoding="UTF-8"?>
<svg version="1.1" xmlns="http://www.w3.org/2000/svg" width="256" height="243">
<path d="M0 0 C1.06605469 0.24492187 2.13210937 0.48984375 3.23046875 0.7421875 C13.09142556 3.26035274 21.92402797 7.47300184 31 12 C31 12.66 31 13.32 31 14 C31.99 14.309375 31.99 14.309375 33 14.625 C42.51715162 18.98702782 51.90569482 27.59936373 58 36 C58 36.66 58 37.32 58 38 C58.66 38 59.32 38 60 38 C77.28854804 59.61068505 82.95161794 86.93876651 81 114 C77.72779051 142.47287496 62.45047975 167.68138532 40.2890625 185.55078125 C25.46010964 196.82705749 9.29963835 203.05977034 -9 206 C-9.74507813 206.13148438 -10.49015625 206.26296875 -11.2578125 206.3984375 C-36.0519238 210.2368564 -63.21901326 201.94710901 -83.39453125 187.69921875 C-106.53388434 170.71886303 -120.96218093 147.05231627 -126 119 C-126.17128418 118.2172168 -126.34256836 117.43443359 -126.51904297 116.62792969 C-131.16028693 91.26836116 -123.45551756 65.31275409 -110 44 C-109.37544922 42.97326172 -109.37544922 42.97326172 -108.73828125 41.92578125 C-107.6875 40.25 -107.6875 40.25 -106 38 C-105.34 38 -104.68 38 -104 38 C-103.73058594 37.41605469 -103.46117188 36.83210938 -103.18359375 36.23046875 C-98.88818987 28.13582975 -91.09093295 22.50551762 -84 17 C-82.93845703 16.12794922 -82.93845703 16.12794922 -81.85546875 15.23828125 C-80 14 -80 14 -77 14 C-77 13.34 -77 12.68 -77 12 C-68.52729656 7.72653381 -60.12498013 3.7424417 -51 1.0625 C-50.33170166 0.86374268 -49.66340332 0.66498535 -48.97485352 0.46020508 C-33.82424878 -3.75963822 -15.19093104 -3.73864498 0 0 Z " fill="#F9F7F8" transform="translate(151,17)"/>
<path d="M0 0 C1.4540625 1.299375 1.4540625 1.299375 2.9375 2.625 C12.30778908 10.62957893 19.9281583 14.48690497 32.4453125 14.328125 C38.28848286 13.78875543 42.98874778 11.63532424 48.0859375 8.8671875 C50 8 50 8 53 8 C53.78043463 10.89060981 54.52445786 13.78309211 55.25 16.6875 C55.47429687 17.50412109 55.69859375 18.32074219 55.9296875 19.16210938 C56.49600646 21.49345574 56.94389062 23.60020186 57 26 C55.171875 28.89453125 55.171875 28.89453125 53 31 C51.75526468 34.73420597 51.76790215 38.27365238 51.68359375 42.16796875 C51.6524221 43.36018791 51.6524221 43.36018791 51.62062073 44.57649231 C51.55527913 47.11340763 51.49631192 49.65042573 51.4375 52.1875 C51.39430014 53.90821372 51.35068537 55.62891708 51.30664062 57.34960938 C51.19961352 61.56630113 51.09830276 65.7830962 51 70 C53.31 70.66 55.62 71.32 58 72 C57.01 73.32 56.02 74.64 55 76 C53.515 75.505 53.515 75.505 52 75 C52.66 74.34 53.32 73.68 54 73 C53.0925 72.401875 52.185 71.80375 51.25 71.1875 C48.77098519 69.51893234 46.36682089 67.82063145 44 66 C43.67 66.66 43.34 67.32 43 68 C42.01 67.01 41.02 66.02 40 65 C39.67 65.66 39.34 66.32 39 67 C38.01 67 37.02 67 36 67 C36.30035156 67.55429688 36.60070312 68.10859375 36.91015625 68.6796875 C37.29042969 69.40414062 37.67070312 70.12859375 38.0625 70.875 C38.44535156 71.59429687 38.82820313 72.31359375 39.22265625 73.0546875 C39.47917969 73.69664062 39.73570312 74.33859375 40 75 C39.67 75.66 39.34 76.32 39 77 C37.35 74.69 35.7 72.38 34 70 C33.01 71.98 33.01 71.98 32 74 C31.34 73.34 30.68 72.68 30 72 C29.34 71.67 28.68 71.34 28 71 C27.67 70.01 27.34 69.02 27 68 C25.3083748 69.63945929 25.3083748 69.63945929 24 72 C24.42043467 77.36238608 26.24309902 82.42564597 28.5625 87.25 C32.41942114 90.01907159 36.40822069 89.39433219 41 89 C39.515 87.02 39.515 87.02 38 85 C38.33 84.34 38.66 83.68 39 83 C39.66 83.66 40.32 84.32 41 85 C42.98821313 85.39764263 44.98944339 85.73775349 47 86 C45.59028532 98.63882124 40.02499394 109.30313232 32 119 C31.360625 119.80179687 30.72125 120.60359375 30.0625 121.4296875 C22.9529011 129.94400553 12.71433943 137.73593211 2 141 C-8.57718363 138.71009426 -17.49846189 130.36758207 -25 123 C-25.7734375 122.25105469 -26.546875 121.50210938 -27.34375 120.73046875 C-35.80425102 111.99471171 -41.18581599 101.15605378 -45.2109375 89.7578125 C-45.86539059 87.80362023 -45.86539059 87.80362023 -48 87 C-47.8125 85.125 -47.8125 85.125 -47 83 C-44.6875 81.9375 -44.6875 81.9375 -42 81 C-40.63634717 80.04175747 -39.29205831 79.05278825 -38 78 C-39.55500981 81.81684226 -42.03595495 84.19195732 -45 87 C-40.39257135 85.78955868 -40.39257135 85.78955868 -36 84 C-37 86 -38 88 -39 90 C-35.535 89.505 -35.535 89.505 -32 89 C-31.72285156 88.14535156 -31.44570312 87.29070312 -31.16015625 86.41015625 C-29.63206206 81.91848545 -27.87118834 77.53008576 -26.12109375 73.12109375 C-25.12846284 70.35763696 -24.2845574 67.92045754 -24 65 C-24.66 64.01 -25.32 63.02 -26 62 C-26.99 62.99 -27.98 63.98 -29 65 C-29.33 63.68 -29.66 62.36 -30 61 C-31.65 63.64 -33.3 66.28 -35 69 C-35.495 68.01 -35.495 68.01 -36 67 C-35.26821134 64.92803369 -34.44100997 62.8891448 -33.5625 60.875 C-33.08941406 59.77929688 -32.61632812 58.68359375 -32.12890625 57.5546875 C-31.75636719 56.71164063 -31.38382813 55.86859375 -31 55 C-33.55489105 57.44038613 -35.25254702 59.92115427 -37 63 C-37.33 62.34 -37.66 61.68 -38 61 C-37.22265625 59.0546875 -37.22265625 59.0546875 -36.0625 56.875 C-35.68222656 56.15054688 -35.30195312 55.42609375 -34.91015625 54.6796875 C-34.60980469 54.12539062 -34.30945313 53.57109375 -34 53 C-34.66 53 -35.32 53 -36 53 C-36.185625 53.78375 -36.37125 54.5675 -36.5625 55.375 C-38.5525196 60.39331029 -41.2950939 65.04497366 -45 69 C-46.32 69 -47.64 69 -49 69 C-49.01401855 67.56333984 -49.01401855 67.56333984 -49.02832031 66.09765625 C-49.06848337 62.51142504 -49.13431125 58.92602821 -49.20751953 55.34033203 C-49.23557787 53.79454343 -49.25686706 52.24861539 -49.27099609 50.70263672 C-49.23603832 38.74376746 -49.23603832 38.74376746 -54 28 C-54.66 27.67 -55.32 27.34 -56 27 C-55.21085905 20.21338787 -53.58725189 13.63850633 -52 7 C-49.91487715 8.00499164 -47.93604444 9.04090181 -45.984375 10.2890625 C-37.45596642 15.38821588 -28.13893802 15.49887622 -18.65625 13.18359375 C-11.07646556 10.38024564 -5.62089362 5.70794285 0 0 Z " fill="#DFDEDE" transform="translate(128,55)"/>
<path d="M0 0 C12.87 0 25.74 0 39 0 C39.061875 4.8675 39.12375 9.735 39.1875 14.75 C39.22846802 17.04469238 39.22846802 17.04469238 39.27026367 19.38574219 C39.27775635 20.59391602 39.28524902 21.80208984 39.29296875 23.046875 C39.3086792 24.28276367 39.32438965 25.51865234 39.34057617 26.79199219 C38.96356588 30.34318593 38.13287013 31.27493187 36 34 C35.43961323 36.89223048 35.43961323 36.89223048 35.33984375 40.0859375 C35.26830078 41.26414063 35.19675781 42.44234375 35.12304688 43.65625 C35.06181641 44.8834375 35.00058594 46.110625 34.9375 47.375 C34.80805354 49.79987832 34.67156909 52.2243933 34.52734375 54.6484375 C34.47312256 55.72270996 34.41890137 56.79698242 34.36303711 57.90380859 C33.98159674 61.15695368 33.13806178 63.93662844 32 67 C30.86591294 63.84975818 31.18742213 61.46519983 31.7421875 58.21484375 C32.29035494 53.50558713 32.06995819 48.73383745 32 44 C31.01 45.65 30.02 47.3 29 49 C28.67 48.34 28.34 47.68 28 47 C27.34 47 26.68 47 26 47 C25.731875 47.598125 25.46375 48.19625 25.1875 48.8125 C24.01506533 50.97224808 22.80630718 52.35790256 21 54 C17.2047869 52.50902342 15.38957269 50.24299151 13 47 C12.01 47.495 12.01 47.495 11 48 C10.34786708 50.02463255 10.34786708 50.02463255 10 52 C9.67 51.67 9.34 51.34 9 51 C8.88861841 56.45769811 9.08342019 61.61509359 10 67 C9.34 67 8.68 67 8 67 C6.36601868 59.93605489 5.61899121 53.11340592 5.375 45.875 C5.31699219 44.44027344 5.31699219 44.44027344 5.2578125 42.9765625 C5.16479872 40.65121801 5.07896229 38.32585665 5 36 C4.3275798 42.90661382 3.75470683 49.81535896 3.2578125 56.73681641 C3.02023982 59.7438206 2.70407246 62.73242879 2.375 65.73046875 C1.41693425 74.11664409 1.41693425 74.11664409 4.25390625 81.74121094 C8.28462216 85.62585054 13.32329498 88.83796821 19.02758789 89.08935547 C23.82099797 88.68641284 27.33615849 87.04962377 31.4375 84.5 C32.46746094 83.8709375 33.49742187 83.241875 34.55859375 82.59375 C36.85376784 81.21475908 36.85376784 81.21475908 38 80 C38.06360407 78.58661695 38.05718624 77.16998431 38.02172852 75.75561523 C38.00163223 74.85475693 37.98153595 73.95389862 37.96083069 73.02574158 C37.93379562 72.04658279 37.90676056 71.06742401 37.87890625 70.05859375 C37.85529526 69.06118668 37.83168427 68.0637796 37.80735779 67.03614807 C37.73051123 63.83646138 37.64657771 60.63700408 37.5625 57.4375 C37.50930031 55.27409993 37.4565598 53.11068852 37.40429688 50.94726562 C37.27486789 45.63136711 37.13961307 40.31564026 37 35 C37.55429688 35.42152344 38.10859375 35.84304687 38.6796875 36.27734375 C39.76636719 37.09912109 39.76636719 37.09912109 40.875 37.9375 C41.95394531 38.75541016 41.95394531 38.75541016 43.0546875 39.58984375 C44.94357079 41.03964624 44.94357079 41.03964624 47 42 C47 41.34 47 40.68 47 40 C48.03125 40.165 49.0625 40.33 50.125 40.5 C53.48244326 40.93321848 56.62336157 41.08235703 60 41 C59.01 39.68 58.02 38.36 57 37 C57.495 36.01 57.495 36.01 58 35 C58.66 35.66 59.32 36.32 60 37 C61.98821313 37.39764263 63.98944339 37.73775349 66 38 C64.59028532 50.63882124 59.02499394 61.30313232 51 71 C50.360625 71.80179687 49.72125 72.60359375 49.0625 73.4296875 C41.9529011 81.94400553 31.71433943 89.73593211 21 93 C10.42281637 90.71009426 1.50153811 82.36758207 -6 75 C-6.7734375 74.25105469 -7.546875 73.50210938 -8.34375 72.73046875 C-16.80425102 63.99471171 -22.18581599 53.15605378 -26.2109375 41.7578125 C-26.86539059 39.80362023 -26.86539059 39.80362023 -29 39 C-28.8125 37.125 -28.8125 37.125 -28 35 C-25.6875 33.9375 -25.6875 33.9375 -23 33 C-21.63634717 32.04175747 -20.29205831 31.05278825 -19 30 C-20.55500981 33.81684226 -23.03595495 36.19195732 -26 39 C-21.39257135 37.78955868 -21.39257135 37.78955868 -17 36 C-18.5 39 -18.5 39 -20 42 C-18.41705218 42.05437607 -16.83355744 42.09296271 -15.25 42.125 C-13.92742187 42.15980469 -13.92742187 42.15980469 -12.578125 42.1953125 C-9.8864142 41.99139502 -8.30095026 41.36551721 -6 40 C-6 40.66 -6 41.32 -6 42 C-5.13375 41.071875 -5.13375 41.071875 -4.25 40.125 C-2 38 -2 38 0.1875 37.0625 C2.29633683 36.10658251 2.29633683 36.10658251 2.75 33.375 C2.8325 32.59125 2.915 31.8075 3 31 C2.34 31 1.68 31 1 31 C-0.43509221 28.12981559 -0.11158506 25.66456277 -0.09765625 22.4609375 C-0.09515869 21.28837402 -0.09266113 20.11581055 -0.09008789 18.90771484 C-0.08098389 17.41191895 -0.07187988 15.91612305 -0.0625 14.375 C-0.041875 9.63125 -0.02125 4.8875 0 0 Z " fill="#2C2920" transform="translate(109,103)"/>
<path d="M0 0 C0.19392201 5.52677733 -0.2520497 9.75614911 -2 15 C-1.401875 15.185625 -0.80375 15.37125 -0.1875 15.5625 C2.96648713 17.63512012 3.91067106 20.51488216 5 24 C5.30602357 26.70652018 5.48653231 29.1995752 5.51171875 31.90234375 C5.53864555 32.98619102 5.53864555 32.98619102 5.56611633 34.0919342 C5.61980006 36.37373211 5.65397763 38.65532606 5.6875 40.9375 C5.72071036 42.49547085 5.75520341 44.05341491 5.79101562 45.61132812 C5.8755012 49.4074038 5.9425098 53.20342344 6 57 C10.47858399 55.0888094 12.02902308 52.02904943 14.25 47.875 C14.61351562 47.21628906 14.97703125 46.55757812 15.3515625 45.87890625 C16.24423736 44.25799664 17.12345675 42.62968964 18 41 C18.66 41 19.32 41 20 41 C19.34 42.98 18.68 44.96 18 47 C18.433125 46.175 18.86625 45.35 19.3125 44.5 C19.869375 43.675 20.42625 42.85 21 42 C21.99 42 22.98 42 24 42 C22.66666667 46 21.33333333 50 20 54 C20.99 51.69 21.98 49.38 23 47 C23.99 47 24.98 47 26 47 C26 48.32 26 49.64 26 51 C26.66 50.01 27.32 49.02 28 48 C29.53125 49.22265625 29.53125 49.22265625 31 51 C31.11500088 58.57568294 27.07955626 66.26840587 24 73 C23.69320312 73.76054687 23.38640625 74.52109375 23.0703125 75.3046875 C22.71710938 75.86414063 22.36390625 76.42359375 22 77 C18.375 77.75 18.375 77.75 15 78 C15.495 76.02 15.495 76.02 16 74 C15.67 74.33 15.34 74.66 15 75 C13.00041636 75.04080783 10.99954746 75.04254356 9 75 C10 72 10 72 11 71 C9.68 71 8.36 71 7 71 C6.67 72.32 6.34 73.64 6 75 C7.485 75.495 7.485 75.495 9 76 C9.96386719 77.59130859 9.96386719 77.59130859 10.796875 79.6484375 C11.11172852 80.40108887 11.42658203 81.15374023 11.75097656 81.92919922 C12.0806543 82.73631348 12.41033203 83.54342773 12.75 84.375 C20.31789549 101.98849922 30.59086308 113.94123123 46.578125 124.35546875 C47.37734375 124.89816406 48.1765625 125.44085938 49 126 C49 126.33 49 126.66 49 127 C33.95406911 128.34338669 18.16484371 120.81863007 6.7421875 111.390625 C-8.55006916 98.13970129 -18.6712919 81.32512775 -21 61 C-22.12884673 39.31655408 -18.64311961 19.63819115 -4.4453125 2.46875 C-2.01595745 0 -2.01595745 0 0 0 Z " fill="#FDFCFB" transform="translate(74,67)"/>
<path d="M0 0 C2 0 2 0 3.6640625 1.66015625 C18.24544948 19.52380764 24.62100807 39.58485009 22.58862305 62.66918945 C20.59638536 81.49185109 11.85285541 98.03950644 -2 111 C-13.10501186 119.73333847 -24.98950759 126.28259971 -39 129 C-41.4140625 128.6015625 -41.4140625 128.6015625 -43 128 C-41.81475405 124.44426216 -41.04049382 124.14479554 -37.9375 122.25 C-20.9827937 111.27772963 -12.25705215 95.17277842 -7 76 C-7.969375 76 -8.93875 76 -9.9375 76 C-11.29166667 76 -12.64583333 76 -14 76 C-13.67 76.99 -13.34 77.98 -13 79 C-16.371504 79.72012707 -19.54809495 80.18530165 -23 80 C-28.12751603 75.96344483 -29.77395299 70.28972085 -31 64 C-31.04402728 62.33391496 -31.05641448 60.66571162 -31 59 C-30.34 59 -29.68 59 -29 59 C-28.34 58.01 -27.68 57.02 -27 56 C-26.34 57.65 -25.68 59.3 -25 61 C-24.01 60.505 -24.01 60.505 -23 60 C-22.505 60.495 -22.505 60.495 -22 61 C-21.67 60.34 -21.34 59.68 -21 59 C-20.34 59 -19.68 59 -19 59 C-17.68 61.31 -16.36 63.62 -15 66 C-15.55880859 64.95199219 -15.55880859 64.95199219 -16.12890625 63.8828125 C-16.60199219 62.97273438 -17.07507813 62.06265625 -17.5625 61.125 C-18.03816406 60.22007813 -18.51382813 59.31515625 -19.00390625 58.3828125 C-19.33261719 57.59648438 -19.66132813 56.81015625 -20 56 C-19.67 55.34 -19.34 54.68 -19 54 C-18.34 54.99 -17.68 55.98 -17 57 C-14.94729537 55.15811388 -14.94729537 55.15811388 -14 53 C-13.01 53.99 -12.02 54.98 -11 56 C-10.505 55.01 -10.505 55.01 -10 54 C-8.72799029 55.10281127 -7.45744147 56.20730769 -6.1875 57.3125 C-5.47980469 57.92738281 -4.77210938 58.54226562 -4.04296875 59.17578125 C-2.29863261 60.73334335 -0.63221959 62.32658875 1 64 C1.66 63.34 2.32 62.68 3 62 C1.02 61.34 -0.96 60.68 -3 60 C-3.07442006 54.98294279 -3.12872908 49.96621028 -3.16479492 44.94873047 C-3.17983738 43.24359537 -3.20027653 41.53849868 -3.22631836 39.83349609 C-3.26290284 37.37587988 -3.27977173 34.91877731 -3.29296875 32.4609375 C-3.30845261 31.70444916 -3.32393646 30.94796082 -3.33988953 30.16854858 C-3.34165608 24.55303885 -1.9476432 20.78234743 1.3125 16.125 C2.2691286 13.16814796 1.36461447 10.94521875 0.515625 8.0390625 C-0.16902441 5.33158529 -0.13881771 2.77635417 0 0 Z " fill="#FDFCFB" transform="translate(182,65)"/>
<path d="M0 0 C1.4540625 1.299375 1.4540625 1.299375 2.9375 2.625 C12.30778908 10.62957893 19.9281583 14.48690497 32.4453125 14.328125 C38.28848286 13.78875543 42.98874778 11.63532424 48.0859375 8.8671875 C50 8 50 8 53 8 C53.78043463 10.89060981 54.52445786 13.78309211 55.25 16.6875 C55.47429687 17.50412109 55.69859375 18.32074219 55.9296875 19.16210938 C56.49600646 21.49345574 56.94389062 23.60020186 57 26 C55.171875 28.89453125 55.171875 28.89453125 53 31 C51.75526468 34.73420597 51.76790215 38.27365238 51.68359375 42.16796875 C51.6524221 43.36018791 51.6524221 43.36018791 51.62062073 44.57649231 C51.55527913 47.11340763 51.49631192 49.65042573 51.4375 52.1875 C51.39430014 53.90821372 51.35068537 55.62891708 51.30664062 57.34960938 C51.19961352 61.56630113 51.09830276 65.7830962 51 70 C53.31 70.66 55.62 71.32 58 72 C57.01 73.32 56.02 74.64 55 76 C53.515 75.505 53.515 75.505 52 75 C52.66 74.34 53.32 73.68 54 73 C53.13375 72.484375 52.2675 71.96875 51.375 71.4375 C45.16628268 67.26418765 40.47761573 61.06849192 38 54 C38 52.68 38 51.36 38 50 C38.99 50 39.98 50 41 50 C39.17556868 46.67309583 37.05242663 43.76342614 34.6875 40.8125 C32.10764081 37.56459306 29.93073697 34.28902368 27.875 30.6875 C25.6798155 26.963216 23.9097993 24.09794109 20 22 C15.30493727 21.3751827 15.30493727 21.3751827 11.1875 23.3125 C10.10008964 24.85776736 9.04812103 26.42781846 8 28 C7.278125 27.175 6.55625 26.35 5.8125 25.5 C3.28074146 22.85655456 3.28074146 22.85655456 0.4375 22.375 C-2.97094552 23.24896039 -3.98253218 25.21728577 -6 28 C-6.66 28 -7.32 28 -8 28 C-8.33 26.35 -8.66 24.7 -9 23 C-12.60572704 21.79809099 -15.2102435 21.67329685 -19 22 C-23.39486422 24.84007735 -25.43389942 28.05679932 -27.875 32.625 C-31.2018073 38.71721588 -34.87603503 44.40687251 -39 50 C-38.01 50 -37.02 50 -36 50 C-36.15795086 57.10778876 -39.61705314 62.52812224 -44 68 C-46.23046875 69.32421875 -46.23046875 69.32421875 -48 70 C-49.91030971 68.08969029 -49.16009676 64.56962666 -49.17578125 61.96484375 C-49.1990052 60.50063707 -49.22312354 59.03644436 -49.24804688 57.57226562 C-49.28297268 55.26398743 -49.31239026 52.95621365 -49.32592773 50.64770508 C-49.25255832 38.7182189 -49.25255832 38.7182189 -54 28 C-54.66 27.67 -55.32 27.34 -56 27 C-55.21085905 20.21338787 -53.58725189 13.63850633 -52 7 C-49.91487715 8.00499164 -47.93604444 9.04090181 -45.984375 10.2890625 C-37.45596642 15.38821588 -28.13893802 15.49887622 -18.65625 13.18359375 C-11.07646556 10.38024564 -5.62089362 5.70794285 0 0 Z " fill="#6D121F" transform="translate(128,55)"/>
<path d="M0 0 C1.62562109 1.38454702 3.2006779 2.82818479 4.76171875 4.28515625 C3.76171875 7.28515625 3.76171875 7.28515625 1.6171875 8.63671875 C0.73675781 9.05695313 -0.14367187 9.4771875 -1.05078125 9.91015625 C-1.92347656 10.33554688 -2.79617187 10.7609375 -3.6953125 11.19921875 C-10.81317668 14.23879823 -19.39950804 14.53965301 -26.875 12.6015625 C-32.23857837 10.34567701 -36.74716509 6.93662895 -41.23828125 3.28515625 C-42.22828125 2.50140625 -43.21828125 1.71765625 -44.23828125 0.91015625 C-44.89828125 0.37390625 -45.55828125 -0.16234375 -46.23828125 -0.71484375 C-46.62757812 -0.26753906 -47.016875 0.17976563 -47.41796875 0.640625 C-52.09680938 5.69679148 -56.9391878 8.58120456 -63.23828125 11.28515625 C-64.00527344 11.65125 -64.77226563 12.01734375 -65.5625 12.39453125 C-73.14261435 14.91754741 -82.91950775 14.44826047 -90.11328125 11.03515625 C-93.39035393 9.23554346 -94.82840778 7.75789723 -96.23828125 4.28515625 C-88.95339288 -1.36493434 -81.64610823 -5.92657143 -73.23828125 -9.71484375 C-72.5525 -10.03324219 -71.86671875 -10.35164063 -71.16015625 -10.6796875 C-48.68734988 -20.1692549 -18.98852058 -14.54792415 0 0 Z " fill="#FCFCFA" transform="translate(174.23828125,56.71484375)"/>
<path d="M0 0 C0 0.99 0 1.98 0 3 C-1.62935241 4.37868281 -3.29749607 5.71274093 -5 7 C-5.33 7.66 -5.66 8.32 -6 9 C-1.39257135 7.78955868 -1.39257135 7.78955868 3 6 C2 8 1 10 0 12 C1.58294782 12.05437607 3.16644256 12.09296271 4.75 12.125 C5.63171875 12.14820313 6.5134375 12.17140625 7.421875 12.1953125 C10.1135858 11.99139502 11.69904974 11.36551721 14 10 C14 10.66 14 11.32 14 12 C14.5775 11.38125 15.155 10.7625 15.75 10.125 C17.83110866 8.15950849 19.48815165 7.25592418 22 6 C22.66 5.01 23.32 4.02 24 3 C24.11777087 9.17642807 23.94418995 15.27514644 23.5 21.4375 C23.42435086 22.80200478 23.35018512 24.16659245 23.27734375 25.53125 C23.10230352 28.75605755 22.79022486 31.94592624 22.44140625 35.15625 C21.43510026 43.838799 21.43510026 43.838799 24.24951172 51.77636719 C28.27058222 55.64064434 33.34903135 58.8391024 39.02758789 59.08935547 C43.82099797 58.68641284 47.33615849 57.04962377 51.4375 54.5 C52.46746094 53.8709375 53.49742187 53.241875 54.55859375 52.59375 C56.85376784 51.21475908 56.85376784 51.21475908 58 50 C58.06360407 48.58661695 58.05718624 47.16998431 58.02172852 45.75561523 C58.00163223 44.85475693 57.98153595 43.95389862 57.96083069 43.02574158 C57.93379562 42.04658279 57.90676056 41.06742401 57.87890625 40.05859375 C57.85529526 39.06118668 57.83168427 38.0637796 57.80735779 37.03614807 C57.73051123 33.83646138 57.64657771 30.63700408 57.5625 27.4375 C57.50930031 25.27409993 57.4565598 23.11068852 57.40429688 20.94726562 C57.27486789 15.63136711 57.13961307 10.31564026 57 5 C57.55429688 5.42152344 58.10859375 5.84304687 58.6796875 6.27734375 C59.76636719 7.09912109 59.76636719 7.09912109 60.875 7.9375 C61.59429687 8.48277344 62.31359375 9.02804688 63.0546875 9.58984375 C64.94357079 11.03964624 64.94357079 11.03964624 67 12 C67 11.34 67 10.68 67 10 C68.03125 10.165 69.0625 10.33 70.125 10.5 C73.48244326 10.93321848 76.62336157 11.08235703 80 11 C79.01 9.68 78.02 8.36 77 7 C77.33 6.34 77.66 5.68 78 5 C78.99 5.99 78.99 5.99 80 7 C81.98821313 7.39764263 83.98944339 7.73775349 86 8 C84.59028532 20.63882124 79.02499394 31.30313232 71 41 C70.0409375 42.20269531 70.0409375 42.20269531 69.0625 43.4296875 C61.9529011 51.94400553 51.71433943 59.73593211 41 63 C30.42281637 60.71009426 21.50153811 52.36758207 14 45 C13.2265625 44.25105469 12.453125 43.50210938 11.65625 42.73046875 C3.19574898 33.99471171 -2.18581599 23.15605378 -6.2109375 11.7578125 C-6.86539059 9.80362023 -6.86539059 9.80362023 -9 9 C-8.8125 7.125 -8.8125 7.125 -8 5 C-5.625 3.9375 -5.625 3.9375 -3 3 C-1.22722741 1.47992158 -1.22722741 1.47992158 0 0 Z " fill="#6C1622" transform="translate(89,133)"/>
<path d="M0 0 C0.33 0 0.66 0 1 0 C1.09796875 1.17175781 1.1959375 2.34351562 1.296875 3.55078125 C2.0581256 11.80674616 2.93334116 19.31680682 6.1953125 27.03125 C7 29 7 29 7 31 C4.04049858 29.62594577 1.58504604 27.98223068 -1 26 C-0.91733887 27.29623291 -0.83467773 28.59246582 -0.74951172 29.92797852 C-0.45540936 34.75484213 -0.22939787 39.58294582 -0.0234375 44.41430664 C0.07497479 46.50152132 0.19164166 48.58796069 0.32714844 50.6730957 C1.43649312 68.02937282 1.43649312 68.02937282 -2.10961914 72.89404297 C-4.70356692 74.72526042 -7.03032267 75.9050081 -10 77 C-10.64783447 77.35521729 -11.29566895 77.71043457 -11.96313477 78.07641602 C-16.25926251 80.37745683 -19.36054807 80.02117037 -24 79 C-27.2734375 77.1875 -27.2734375 77.1875 -30.375 75 C-31.41398437 74.278125 -32.45296875 73.55625 -33.5234375 72.8125 C-36 71 -36 71 -37 70 C-37.13298142 67.15481611 -37.18966536 64.34635979 -37.1875 61.5 C-37.18814453 60.62956055 -37.18878906 59.75912109 -37.18945312 58.86230469 C-37.10205988 47.5369344 -36.04632307 36.27023523 -35 25 C-34.34 25.33 -33.68 25.66 -33 26 C-32.97494385 26.58378418 -32.9498877 27.16756836 -32.92407227 27.76904297 C-32.80643801 30.47116313 -32.68448727 33.17307299 -32.5625 35.875 C-32.52318359 36.7928125 -32.48386719 37.710625 -32.44335938 38.65625 C-32.16223612 44.7977119 -31.67681987 50.88952074 -31 57 C-30.34 57 -29.68 57 -29 57 C-29.33 56.0925 -29.66 55.185 -30 54.25 C-31.55521854 48.93816204 -31.16196433 43.47979305 -31 38 C-30.34 38.66 -29.68 39.32 -29 40 C-28.67 39.01 -28.34 38.02 -28 37 C-25 37 -25 37 -23.61328125 38.3125 C-22.40885417 39.875 -21.20442708 41.4375 -20 43 C-16.63279613 41.60667426 -15.0140476 40.0210714 -13 37 C-11.515 37.495 -11.515 37.495 -10 38 C-9.01 35.36 -8.02 32.72 -7 30 C-6.67 30 -6.34 30 -6 30 C-5.90255986 38.72630608 -5.83288905 47.33003296 -7 56 C-5.56248132 47.31906195 -4.68633 38.83716671 -4.51782227 30.04345703 C-4.3231445 24.4195709 -4.3231445 24.4195709 -2.50439453 22.05810547 C-0.70975847 19.6029315 -0.58472093 18.24329295 -0.48828125 15.234375 C-0.45283203 14.34492187 -0.41738281 13.45546875 -0.38085938 12.5390625 C-0.35830078 11.61867188 -0.33574219 10.69828125 -0.3125 9.75 C-0.27833984 8.81414062 -0.24417969 7.87828125 -0.20898438 6.9140625 C-0.12667838 4.60949467 -0.0574737 2.30529881 0 0 Z " fill="#F9F9F9" transform="translate(148,113)"/>
<path d="M0 0 C6.21969063 3.80092205 9.25815285 9.29635067 12.71630859 15.52954102 C15.04098078 19.67257877 17.61506394 22.62100243 21 26 C21 26.99 21 27.98 21 29 C20.01 29 19.02 29 18 29 C18.62279669 30.58420129 19.24833401 32.16732531 19.875 33.75 C20.22304687 34.63171875 20.57109375 35.5134375 20.9296875 36.421875 C21.94070368 38.96954274 21.94070368 38.96954274 23.15625 41.1875 C24.23363814 43.50188933 23.8403253 44.64708916 23 47 C21.515 45.515 21.515 45.515 20 44 C19.67 44.66 19.34 45.32 19 46 C18.01 46 17.02 46 16 46 C16.30035156 46.55429688 16.60070312 47.10859375 16.91015625 47.6796875 C17.29042969 48.40414062 17.67070312 49.12859375 18.0625 49.875 C18.44535156 50.59429687 18.82820313 51.31359375 19.22265625 52.0546875 C19.47917969 52.69664062 19.73570312 53.33859375 20 54 C19.67 54.66 19.34 55.32 19 56 C17.35 53.69 15.7 51.38 14 49 C13.34 50.32 12.68 51.64 12 53 C11.34 52.34 10.68 51.68 10 51 C9.34 50.67 8.68 50.34 8 50 C7.67 49.01 7.34 48.02 7 47 C5.29862747 48.63330436 5.29862747 48.63330436 4 51 C4.21534176 53.9509099 4.21534176 53.9509099 5.1875 57 C5.46980469 58.03125 5.75210938 59.0625 6.04296875 60.125 C6.89974125 62.95386881 6.89974125 62.95386881 8.17578125 65.25 C8.44777344 65.8275 8.71976563 66.405 9 67 C8.67 67.66 8.34 68.32 8 69 C6 68 6 68 5.21875 66.3203125 C2.67134335 58.53964653 1.22046554 50.8939608 0.5390625 42.734375 C0.41930054 41.32236816 0.41930054 41.32236816 0.29711914 39.88183594 C0.14227545 37.97988495 0.00055566 36.07681409 -0.12719727 34.17285156 C-0.19737061 33.29081055 -0.26754395 32.40876953 -0.33984375 31.5 C-0.39519287 30.7059375 -0.45054199 29.911875 -0.50756836 29.09375 C-1.09706342 26.5873 -2.05103151 25.62832648 -4 24 C-3.01 23.67 -2.02 23.34 -1 23 C-1.33 22.01 -1.66 21.02 -2 20 C-1.01 20 -0.02 20 1 20 C1.33 18.68 1.66 17.36 2 16 C2.66 16.99 3.32 17.98 4 19 C5.32 18.67 6.64 18.34 8 18 C7.835 17.38125 7.67 16.7625 7.5 16.125 C7 14 7 14 7 12 C6.00537403 10.27994451 6.00537403 10.27994451 4.6875 8.5 C4.04361328 7.58734375 4.04361328 7.58734375 3.38671875 6.65625 C1.91378508 4.73895233 1.91378508 4.73895233 -1 3 C-3.64632287 3.3121764 -3.64632287 3.3121764 -6 4 C-6 5.98 -6 7.96 -6 10 C-5.34 8.68 -4.68 7.36 -4 6 C-3.401875 6.165 -2.80375 6.33 -2.1875 6.5 C0.11344336 7.1114124 0.11344336 7.1114124 3 7 C3 9.64 3 12.28 3 15 C1.68 15 0.36 15 -1 15 C-0.67 16.32 -0.34 17.64 0 19 C-0.99 19 -1.98 19 -3 19 C-3 19.99 -3 20.98 -3 22 C-3.66 22 -4.32 22 -5 22 C-5 22.66 -5 23.32 -5 24 C-6.32 23.34 -7.64 22.68 -9 22 C-8.505 21.5875 -8.01 21.175 -7.5 20.75 C-5.56613908 18.87797662 -5.56613908 18.87797662 -6 15 C-6.99 14.13375 -6.99 14.13375 -8 13.25 C-10.21277149 10.76063208 -10.33828686 10.12982874 -10.4375 6.9375 C-10 3 -10 3 -8.9375 1 C-5.69997896 -0.6709786 -3.59251134 -0.5388767 0 0 Z " fill="#F0F0F0" transform="translate(148,76)"/>
<path d="M0 0 C0 0.99 0 1.98 0 3 C-1.62935241 4.37868281 -3.29749607 5.71274093 -5 7 C-5.33 7.66 -5.66 8.32 -6 9 C-1.39257135 7.78955868 -1.39257135 7.78955868 3 6 C2 8 1 10 0 12 C1.58294782 12.05437607 3.16644256 12.09296271 4.75 12.125 C5.63171875 12.14820313 6.5134375 12.17140625 7.421875 12.1953125 C10.1135858 11.99139502 11.69904974 11.36551721 14 10 C14 10.66 14 11.32 14 12 C14.5775 11.38125 15.155 10.7625 15.75 10.125 C17.83110866 8.15950849 19.48815165 7.25592418 22 6 C22.66 5.01 23.32 4.02 24 3 C24.19418031 12.75890913 23.58921295 22.45263441 23 32.1875 C22.90335157 33.82355035 22.80699522 35.45961798 22.7109375 37.09570312 C22.47732207 41.06400917 22.23976618 45.03206103 22 49 C17.31702006 47.43900669 15.09781728 43.72232735 12 40 C11.34386719 39.26523438 10.68773438 38.53046875 10.01171875 37.7734375 C4.81558955 31.73987389 1.59370339 25.45695467 -1.5546875 18.22265625 C-3.44818732 14.00066342 -5.25146391 11.62397526 -9 9 C-8.8125 7.125 -8.8125 7.125 -8 5 C-5.625 3.9375 -5.625 3.9375 -3 3 C-1.22722741 1.47992158 -1.22722741 1.47992158 0 0 Z " fill="#6F1421" transform="translate(89,133)"/>
<path d="M0 0 C2.4375 0.75 2.4375 0.75 4.4375 2.75 C4.1875 5.8125 4.1875 5.8125 3.4375 8.75 C2.4475 9.245 2.4475 9.245 1.4375 9.75 C1.1075 8.1 0.7775 6.45 0.4375 4.75 C-0.8825 4.75 -2.2025 4.75 -3.5625 4.75 C-3.2325 7.06 -2.9025 9.37 -2.5625 11.75 C0.86980448 11.48606499 0.86980448 11.48606499 4.4375 10.75 C5.0975 9.76 5.7575 8.77 6.4375 7.75 C7.7575 8.08 9.0775 8.41 10.4375 8.75 C10.9325 13.7 10.9325 13.7 11.4375 18.75 C10.7775 18.75 10.1175 18.75 9.4375 18.75 C9.4375 19.41 9.4375 20.07 9.4375 20.75 C5.65138773 20.20912682 3.88349233 18.63277668 1.4375 15.75 C1.4375 15.09 1.4375 14.43 1.4375 13.75 C0.695 14.12125 -0.0475 14.4925 -0.8125 14.875 C-3.5625 15.75 -3.5625 15.75 -5.875 14.875 C-6.431875 14.50375 -6.98875 14.1325 -7.5625 13.75 C-7.8925 14.41 -8.2225 15.07 -8.5625 15.75 C-7.2425 16.08 -5.9225 16.41 -4.5625 16.75 C-4.8925 17.74 -5.2225 18.73 -5.5625 19.75 C-4.9025 19.75 -4.2425 19.75 -3.5625 19.75 C-3.5625 20.74 -3.5625 21.73 -3.5625 22.75 C-2.2425 23.41 -0.9225 24.07 0.4375 24.75 C-0.8825 24.75 -2.2025 24.75 -3.5625 24.75 C-3.0675 40.095 -3.0675 40.095 -2.5625 55.75 C-1.9025 55.75 -1.2425 55.75 -0.5625 55.75 C-0.4375 58.125 -0.4375 58.125 -0.5625 60.75 C-1.2225 61.41 -1.8825 62.07 -2.5625 62.75 C-3.5525 62.75 -4.5425 62.75 -5.5625 62.75 C-6.2225 64.07 -6.8825 65.39 -7.5625 66.75 C-8.8825 66.75 -10.2025 66.75 -11.5625 66.75 C-13.56651011 67.05830925 -15.56761766 67.38729412 -17.5625 67.75 C-17.8925 67.09 -18.2225 66.43 -18.5625 65.75 C-17.9025 65.75 -17.2425 65.75 -16.5625 65.75 C-16.28535156 64.89535156 -16.00820312 64.04070312 -15.72265625 63.16015625 C-14.19456206 58.66848545 -12.43368834 54.28008576 -10.68359375 49.87109375 C-9.69096284 47.10763696 -8.8470574 44.67045754 -8.5625 41.75 C-9.2225 40.76 -9.8825 39.77 -10.5625 38.75 C-11.5525 39.74 -12.5425 40.73 -13.5625 41.75 C-13.8925 40.43 -14.2225 39.11 -14.5625 37.75 C-16.2125 40.39 -17.8625 43.03 -19.5625 45.75 C-19.8925 45.09 -20.2225 44.43 -20.5625 43.75 C-19.83071134 41.67803369 -19.00350997 39.6391448 -18.125 37.625 C-17.65191406 36.52929688 -17.17882812 35.43359375 -16.69140625 34.3046875 C-16.31886719 33.46164063 -15.94632812 32.61859375 -15.5625 31.75 C-18.11739105 34.19038613 -19.81504702 36.67115427 -21.5625 39.75 C-21.8925 39.09 -22.2225 38.43 -22.5625 37.75 C-21.78515625 35.8046875 -21.78515625 35.8046875 -20.625 33.625 C-20.24472656 32.90054688 -19.86445312 32.17609375 -19.47265625 31.4296875 C-19.17230469 30.87539062 -18.87195313 30.32109375 -18.5625 29.75 C-19.2225 29.42 -19.8825 29.09 -20.5625 28.75 C-19.2425 28.42 -17.9225 28.09 -16.5625 27.75 C-16.5625 28.41 -16.5625 29.07 -16.5625 29.75 C-15.5725 29.75 -14.5825 29.75 -13.5625 29.75 C-13.5625 30.41 -13.5625 31.07 -13.5625 31.75 C-9.99145561 29.87050295 -8.01505699 28.57946843 -6.5625 24.75 C-7.2225 24.42 -7.8825 24.09 -8.5625 23.75 C-8.8925 24.74 -9.2225 25.73 -9.5625 26.75 C-9.8925 26.09 -10.2225 25.43 -10.5625 24.75 C-9.62803465 22.71855359 -8.63025224 20.71466413 -7.5625 18.75 C-8.8825 18.42 -10.2025 18.09 -11.5625 17.75 C-11.5625 16.76 -11.5625 15.77 -11.5625 14.75 C-12.8825 17.06 -14.2025 19.37 -15.5625 21.75 C-15.8925 21.09 -16.2225 20.43 -16.5625 19.75 C-15.26953125 16.88671875 -15.26953125 16.88671875 -13.375 13.4375 C-12.76269531 12.30699219 -12.15039062 11.17648438 -11.51953125 10.01171875 C-5.20766129 -0.50806452 -5.20766129 -0.50806452 0 0 Z " fill="#9B9A9A" transform="translate(112.5625,78.25)"/>
<path d="M0 0 C4.39024248 -0.74551287 6.75518885 -0.80390094 10.55859375 1.65234375 C13.44041719 4.0322531 16.22271876 6.49897353 19 9 C21.10933478 10.78987661 23.24245265 12.55039825 25.375 14.3125 C26.80972656 15.51326172 26.80972656 15.51326172 28.2734375 16.73828125 C30.08646899 18.24221425 31.94609239 19.69172462 33.84765625 21.08203125 C34.55792969 21.71496094 35.26820313 22.34789063 36 23 C36.10267658 28.54453543 34.21741307 31.74471174 31 36 C27.36452033 35.41441938 25.59162511 34.00033469 22.9375 31.5 C19.50036854 28.34033055 16.00052137 25.31730758 12.375 22.375 C11.45847656 21.61574219 10.54195312 20.85648438 9.59765625 20.07421875 C7.11185815 18.02372427 7.11185815 18.02372427 4.74609375 16.51953125 C2.69546258 15.10687422 1.35345472 14.09785482 0 12 C-0.56536269 7.93252955 -0.41556076 4.07645314 0 0 Z " fill="#F2C402" transform="translate(110,105)"/>
<path d="M0 0 C0.66 0 1.32 0 2 0 C1.34 1.98 0.68 3.96 0 6 C0.6496875 4.7625 0.6496875 4.7625 1.3125 3.5 C1.869375 2.675 2.42625 1.85 3 1 C3.99 1 4.98 1 6 1 C4.66666667 5 3.33333333 9 2 13 C2.99 10.69 3.98 8.38 5 6 C5.99 6 6.98 6 8 6 C8 7.32 8 8.64 8 10 C8.66 9.01 9.32 8.02 10 7 C11.53125 8.22265625 11.53125 8.22265625 13 10 C13.11500088 17.57568294 9.07955626 25.26840587 6 32 C5.69320312 32.76054687 5.38640625 33.52109375 5.0703125 34.3046875 C4.71710938 34.86414063 4.36390625 35.42359375 4 36 C0.375 36.75 0.375 36.75 -3 37 C-2.67 35.68 -2.34 34.36 -2 33 C-2.33 33.33 -2.66 33.66 -3 34 C-4.99958364 34.04080783 -7.00045254 34.04254356 -9 34 C-8 31 -8 31 -7 30 C-9.31 30 -11.62 30 -14 30 C-14.66 28.68 -15.32 27.36 -16 26 C-15.67 25.67 -15.34 25.34 -15 25 C-16.65 23.35 -18.3 21.7 -20 20 C-18.865625 19.71125 -17.73125 19.4225 -16.5625 19.125 C-15.386875 18.75375 -14.21125 18.3825 -13 18 C-12.67 17.34 -12.34 16.68 -12 16 C-11.11054687 15.66355469 -11.11054687 15.66355469 -10.203125 15.3203125 C-6.88334208 13.33079721 -5.52362472 10.19233512 -3.75 6.875 C-3.38648437 6.21628906 -3.02296875 5.55757813 -2.6484375 4.87890625 C-1.75576264 3.25799664 -0.87654325 1.62968964 0 0 Z " fill="#C0BFBF" transform="translate(92,108)"/>
<path d="M0 0 C1.32 0.99 2.64 1.98 4 3 C4.33 2.34 4.66 1.68 5 1 C6.27200971 2.10281127 7.54255853 3.20730769 8.8125 4.3125 C9.52019531 4.92738281 10.22789062 5.54226562 10.95703125 6.17578125 C12.70136739 7.73334335 14.36778041 9.32658875 16 11 C15.01 11.33 14.02 11.66 13 12 C13 12.99 13 13.98 13 15 C13.66 15 14.32 15 15 15 C14.67 15.99 14.34 16.98 14 18 C11.9375 18.6875 11.9375 18.6875 10 19 C9.67 20.98 9.34 22.96 9 25 C8.67 24.34 8.34 23.68 8 23 C7.030625 23 6.06125 23 5.0625 23 C3.70833333 23 2.35416667 23 1 23 C1.33 23.99 1.66 24.98 2 26 C-1.371504 26.72012707 -4.54809495 27.18530165 -8 27 C-13.12751603 22.96344483 -14.77395299 17.28972085 -16 11 C-16.04402728 9.33391496 -16.05641448 7.66571162 -16 6 C-15.34 6 -14.68 6 -14 6 C-13.34 5.01 -12.68 4.02 -12 3 C-11.34 4.65 -10.68 6.3 -10 8 C-9.34 7.67 -8.68 7.34 -8 7 C-7.67 7.33 -7.34 7.66 -7 8 C-6.67 7.34 -6.34 6.68 -6 6 C-5.34 6 -4.68 6 -4 6 C-2.68 8.31 -1.36 10.62 0 13 C-0.37253906 12.30132812 -0.74507812 11.60265625 -1.12890625 10.8828125 C-1.60199219 9.97273438 -2.07507813 9.06265625 -2.5625 8.125 C-3.27599609 6.76761719 -3.27599609 6.76761719 -4.00390625 5.3828125 C-4.33261719 4.59648438 -4.66132813 3.81015625 -5 3 C-4.67 2.34 -4.34 1.68 -4 1 C-3.34 1.99 -2.68 2.98 -2 4 C-1.34 3.34 -0.68 2.68 0 2 C0 1.34 0 0.68 0 0 Z " fill="#DBDBDB" transform="translate(167,118)"/>
<path d="M0 0 C0.66 0.66 1.32 1.32 2 2 C1.67 2.66 1.34 3.32 1 4 C3.97 3.01 6.94 2.02 10 1 C10 1.66 10 2.32 10 3 C11.0828125 2.6596875 11.0828125 2.6596875 12.1875 2.3125 C15.80140746 1.91095473 17.03132329 3.02088219 20 5 C22.03243548 5.96877057 22.03243548 5.96877057 24 6 C25.61991029 4.54686691 25.61991029 4.54686691 27 3 C27.4531159 25.20267909 27.4531159 25.20267909 25 35 C24.01 35.495 24.01 35.495 23 36 C23.0721875 35.34515625 23.144375 34.6903125 23.21875 34.015625 C23.93351253 26.98712682 24.11091604 20.06165482 24 13 C23.01 14.65 22.02 16.3 21 18 C20.67 17.34 20.34 16.68 20 16 C19.34 16 18.68 16 18 16 C17.731875 16.598125 17.46375 17.19625 17.1875 17.8125 C16.01506533 19.97224808 14.80630718 21.35790256 13 23 C9.2047869 21.50902342 7.38957269 19.24299151 5 16 C4.34 16.33 3.68 16.66 3 17 C2.34786708 19.02463255 2.34786708 19.02463255 2 21 C1.67 20.67 1.34 20.34 1 20 C0.88861841 25.45769811 1.08342019 30.61509359 2 36 C1.34 36 0.68 36 0 36 C-1.71979056 28.8668439 -2.25870025 22.19766008 -2.125 14.875 C-2.11597656 13.91851562 -2.10695313 12.96203125 -2.09765625 11.9765625 C-2.07439827 9.65076475 -2.04172213 7.32552706 -2 5 C-1.34 5 -0.68 5 0 5 C-0.2784375 4.0409375 -0.2784375 4.0409375 -0.5625 3.0625 C-0.7790625 2.0415625 -0.7790625 2.0415625 -1 1 C-0.67 0.67 -0.34 0.34 0 0 Z " fill="#13110C" transform="translate(117,134)"/>
<path d="M0 0 C1.42302051 1.17987852 2.83995629 2.36714339 4.25 3.5625 C4.91515625 4.07167969 5.5803125 4.58085938 6.265625 5.10546875 C18.95711224 15.223682 28.92664611 33.39256732 31.04272461 49.40942383 C32.48258159 64.36595945 32.21492495 78.67071192 26.25 92.5625 C25.59837891 94.13644531 25.59837891 94.13644531 24.93359375 95.7421875 C16.87106996 113.42920551 2.52405515 127.55157059 -15.4140625 135.10546875 C-18.83669043 136.35505775 -22.26671777 137.49504254 -25.75 138.5625 C-26.87535156 138.93181641 -26.87535156 138.93181641 -28.0234375 139.30859375 C-33.54532823 140.94262264 -39.05604322 140.75090298 -44.75 140.5625 C-39.64505058 136.68316474 -39.64505058 136.68316474 -36.75 135.5625 C-35.76 135.8925 -34.77 136.2225 -33.75 136.5625 C-34.08 136.8925 -34.41 137.2225 -34.75 137.5625 C-16.33862849 135.09043208 1.05004032 126.33059293 12.62890625 111.51953125 C17.18669072 105.24151162 21.18769147 98.70385191 24.25 91.5625 C24.54519531 90.88445312 24.84039062 90.20640625 25.14453125 89.5078125 C31.73877804 72.29130609 30.70209918 51.27402237 24 34.375 C20.22903903 25.96984603 16.12130389 17.8091399 9.25 11.5625 C9.25 10.9025 9.25 10.2425 9.25 9.5625 C8.59 9.5625 7.93 9.5625 7.25 9.5625 C6.755 11.0475 6.755 11.0475 6.25 12.5625 C6.25 10.9125 6.25 9.2625 6.25 7.5625 C5.59 7.5625 4.93 7.5625 4.25 7.5625 C3.68152344 6.82 3.11304688 6.0775 2.52734375 5.3125 C-6.27765822 -5.31995521 -24.24211799 -10.62780919 -37.34375 -12.1640625 C-46.87541068 -12.92921875 -56.24280021 -12.29621482 -65.75 -11.4375 C-51.6304143 -25.5570857 -12.68888743 -9.64614401 0 0 Z " fill="#DBDAD9" transform="translate(174.75,55.4375)"/>
<path d="M0 0 C2.97 0 5.94 0 9 0 C10.03513247 2.0762657 11.05266211 4.16131479 12.0625 6.25 C12.63097656 7.41015625 13.19945312 8.5703125 13.78515625 9.765625 C14.96485975 12.90644333 15.30230734 13.99353048 14 17 C13.01 16.01 12.02 15.02 11 14 C10.67 14.66 10.34 15.32 10 16 C9.01 16 8.02 16 7 16 C7.30035156 16.55429688 7.60070312 17.10859375 7.91015625 17.6796875 C8.29042969 18.40414062 8.67070312 19.12859375 9.0625 19.875 C9.63677734 20.95394531 9.63677734 20.95394531 10.22265625 22.0546875 C10.47917969 22.69664062 10.73570312 23.33859375 11 24 C10.67 24.66 10.34 25.32 10 26 C8.35 23.69 6.7 21.38 5 19 C4.34 20.32 3.68 21.64 3 23 C2.34 22.34 1.68 21.68 1 21 C0.34 20.67 -0.32 20.34 -1 20 C-1.33 19.01 -1.66 18.02 -2 17 C-3.70137253 18.63330436 -3.70137253 18.63330436 -5 21 C-4.78465824 23.9509099 -4.78465824 23.9509099 -3.8125 27 C-3.53019531 28.03125 -3.24789062 29.0625 -2.95703125 30.125 C-2.10025875 32.95386881 -2.10025875 32.95386881 -0.82421875 35.25 C-0.55222656 35.8275 -0.28023437 36.405 0 37 C-0.33 37.66 -0.66 38.32 -1 39 C-3 38 -3 38 -3.78125 36.3203125 C-7.15325115 26.02104813 -8.34812459 15.79025345 -9 5 C-6.69 5.33 -4.38 5.66 -2 6 C-2.33 4.68 -2.66 3.36 -3 2 C-2.01 2.33 -1.02 2.66 0 3 C0 2.01 0 1.02 0 0 Z " fill="#B1B0B0" transform="translate(157,106)"/>
<path d="M0 0 C0.33 0 0.66 0 1 0 C1.19418031 9.75890913 0.58921295 19.45263441 0 29.1875 C-0.09664843 30.82355035 -0.19300478 32.45961798 -0.2890625 34.09570312 C-0.52267793 38.06400917 -0.76023382 42.03206103 -1 46 C-5.04390058 44.65203314 -6.60586698 42.24866291 -9.28515625 39.03125 C-11.03010389 36.88806834 -11.03010389 36.88806834 -13.375 34.75 C-16.05364431 30.21690963 -15.83486692 25.1769222 -16 20 C-12.46117165 18.07389904 -10.0625024 17.65425512 -6 18 C-5.01 18.66 -4.02 19.32 -3 20 C-1.85939463 16.57818389 -1.70997473 13.59956681 -1.5 10 C-1.11111111 3.33333333 -1.11111111 3.33333333 0 0 Z " fill="#6D1F27" transform="translate(112,136)"/>
<path d="M0 0 C2.4375 1.625 2.4375 1.625 4 4 C4.48746608 7.34262452 4.31565201 9.29442492 2.9375 12.375 C0.06052441 14.78794727 -2.37659799 14.2734643 -6 14 C-6.33 11.69 -6.66 9.38 -7 7 C-5.68 6.67 -4.36 6.34 -3 6 C-2.34 7.65 -1.68 9.3 -1 11 C-0.32198966 8.09926819 -0.32198966 8.09926819 0 5 C-0.66 4.34 -1.32 3.68 -2 3 C-5.50178662 3.09464288 -6.91684584 3.93070487 -9.625 6.1875 C-12.05552021 9.06574761 -13.71775229 11.45496223 -15 15 C-14.53253634 17.35321848 -14.53253634 17.35321848 -13 19 C-12.01 19.33 -11.02 19.66 -10 20 C-10.33 20.804375 -10.66 21.60875 -11 22.4375 C-12.06059041 24.69681125 -12.06059041 24.69681125 -12 26 C-11.01 26.33 -10.02 26.66 -9 27 C-12.44615385 32.78461538 -12.44615385 32.78461538 -15.25 33.875 C-15.8275 33.91625 -16.405 33.9575 -17 34 C-17 33.34 -17 32.68 -17 32 C-17.99 32 -18.98 32 -20 32 C-20 31.34 -20 30.68 -20 30 C-21.32 30.33 -22.64 30.66 -24 31 C-24 30.34 -24 29.68 -24 29 C-24.99 29 -25.98 29 -27 29 C-25.67667778 25.3349164 -24.05184444 22.44902226 -21.75 19.3125 C-19.24817586 15.84005114 -16.99457363 12.34249053 -14.875 8.625 C-11.04075898 2.19075913 -7.93676529 -1.15443859 0 0 Z " fill="#E1E0E0" transform="translate(116,76)"/>
<path d="M0 0 C0.97591583 3.38317487 0.85856655 5.5657338 0 9 C-0.66 8.01 -1.32 7.02 -2 6 C-12.87827932 15.59848176 -20.06311346 32.19861595 -21.20263672 46.55249023 C-21.30332899 49.2679254 -21.3289377 51.97027638 -21.3125 54.6875 C-21.30758545 55.65284668 -21.3026709 56.61819336 -21.29760742 57.61279297 C-20.93485372 79.88028937 -11.87509138 98.62576884 4 114 C15.48979824 123.74334891 31.47388029 132.02512973 46.80859375 130.8125 C49.62510392 131.05348483 50.90630001 132.16860866 53 134 C32.46520253 135.27751044 14.87118805 125.99280572 -0.35546875 112.98828125 C-14.46844495 99.84693852 -23.27867047 80.8525958 -24.28515625 61.63671875 C-25.02394863 37.16980801 -16.54903606 17.79558683 0 0 Z " fill="#DCDBDB" transform="translate(75,62)"/>
<path d="M0 0 C1.78145496 4.14612434 0.03770477 7.61970284 -1.5 11.5625 C-1.77553711 12.27559326 -2.05107422 12.98868652 -2.33496094 13.72338867 C-9.92267526 32.66493535 -23.57396694 44.60967668 -41.140625 54.12890625 C-44.8689906 55.26473347 -46.48713523 54.59003353 -50 53 C-57.92114786 48.76991956 -64.61787353 43.26815992 -71 37 C-71.7734375 36.25105469 -72.546875 35.50210938 -73.34375 34.73046875 C-80.43652222 27.40693853 -89.65554267 14.75028987 -90.125 4.1875 C-90.08375 3.465625 -90.0425 2.74375 -90 2 C-87.62533238 4.37466762 -86.95913634 6.37236734 -85.75 9.5 C-81.55555427 19.74765459 -75.43628489 31.70914341 -66 38 C-66 38.66 -66 39.32 -66 40 C-65.21882813 40.34998047 -65.21882813 40.34998047 -64.421875 40.70703125 C-60.56093746 42.76827371 -57.00927388 45.39334388 -53.484375 47.98632812 C-50.22797838 50.20367714 -47.93646824 51.33752401 -43.9453125 50.96875 C-40.13703695 50.21806258 -36.98542587 48.769149 -33.625 46.8125 C-32.60664063 46.24144531 -31.58828125 45.67039063 -30.5390625 45.08203125 C-27.52275452 42.60865871 -26.87910196 40.74412703 -26 37 C-25.67 37.99 -25.34 38.98 -25 40 C-12.81462529 30.10324896 -6.35875735 18.25570429 -1.76171875 3.30078125 C-1 1 -1 1 0 0 Z " fill="#251710" transform="translate(174,141)"/>
<path d="M0 0 C3.53228187 0.09546708 4.88832186 0.90194115 7.5625 3.25 C8.366875 4.1575 9.17125 5.065 10 6 C10.78375 6.825 11.5675 7.65 12.375 8.5 C14 11 14 11 14.0625 13.6875 C13 16 13 16 10.4375 17.3125 C9.2309375 17.6528125 9.2309375 17.6528125 8 18 C7.67 17.01 7.34 16.02 7 15 C6.67 15.99 6.34 16.98 6 18 C5.34 18.33 4.68 18.66 4 19 C4 19.66 4 20.32 4 21 C3.34 21.33 2.68 21.66 2 22 C2 22.66 2 23.32 2 24 C2.66 24.33 3.32 24.66 4 25 C-1.61 25 -7.22 25 -13 25 C-12.34 23.35 -11.68 21.7 -11 20 C-10.57851125 18.07207923 -10.20323562 16.1334683 -9.875 14.1875 C-9.70742187 13.21167969 -9.53984375 12.23585938 -9.3671875 11.23046875 C-9.24601563 10.49441406 -9.12484375 9.75835937 -9 9 C-7.68 8.67 -6.36 8.34 -5 8 C-4.731875 8.639375 -4.46375 9.27875 -4.1875 9.9375 C-3.11332248 12.33131686 -3.11332248 12.33131686 0 13 C-0.75 17.75 -0.75 17.75 -3 20 C-2.01 20.66 -1.02 21.32 0 22 C0 21.34 0 20.68 0 20 C0.66 20 1.32 20 2 20 C2 19.01 2 18.02 2 17 C2.99 17 3.98 17 5 17 C4.67 15.68 4.34 14.36 4 13 C5.32 13 6.64 13 8 13 C7.67 10.36 7.34 7.72 7 5 C6.01 5 5.02 5 4 5 C3.01 4.67 2.02 4.34 1 4 C0.67 5.65 0.34 7.3 0 9 C-0.66 8.67 -1.32 8.34 -2 8 C-2.125 5.125 -2.125 5.125 -2 2 C-1.34 1.34 -0.68 0.68 0 0 Z " fill="#A9A7A7" transform="translate(143,78)"/>
<path d="M0 0 C4.12993637 2.75329091 7.33761695 5.06957649 10.875 8.375 C15.06227405 12.21333455 19.37529711 15.70586806 24 19 C21.53721199 20.231394 19.7204945 20.07159196 17 20 C17 19.34 17 18.68 17 18 C15.88625 18.495 14.7725 18.99 13.625 19.5 C10 21 10 21 8 21 C7.67 20.01 7.34 19.02 7 18 C7 19.32 7 20.64 7 22 C5.68 21.67 4.36 21.34 3 21 C2.67 19.68 2.34 18.36 2 17 C1.34 17 0.68 17 0 17 C0 11.39 0 5.78 0 0 Z " fill="#0F0D08" transform="translate(110,117)"/>
<path d="M0 0 C1.32 0.99 2.64 1.98 4 3 C4.33 2.34 4.66 1.68 5 1 C6.27200971 2.10281127 7.54255853 3.20730769 8.8125 4.3125 C9.52019531 4.92738281 10.22789062 5.54226562 10.95703125 6.17578125 C12.70136739 7.73334335 14.36778041 9.32658875 16 11 C15.01 11.33 14.02 11.66 13 12 C13 12.99 13 13.98 13 15 C13.66 15 14.32 15 15 15 C14.67 15.99 14.34 16.98 14 18 C11.9375 18.6875 11.9375 18.6875 10 19 C9.67 20.98 9.34 22.96 9 25 C8.79375 24.443125 8.5875 23.88625 8.375 23.3125 C7.03388096 20.74179675 7.03388096 20.74179675 4.0625 18.6875 C0.64948069 15.98690705 -0.49374612 13.0884034 -2 9 C-2.86625 7.3603125 -2.86625 7.3603125 -3.75 5.6875 C-4.36875 4.3571875 -4.36875 4.3571875 -5 3 C-4.67 2.34 -4.34 1.68 -4 1 C-3.34 1.99 -2.68 2.98 -2 4 C-1.34 3.34 -0.68 2.68 0 2 C0 1.34 0 0.68 0 0 Z " fill="#F4F3F3" transform="translate(167,118)"/>
<path d="M0 0 C0.66 0.66 1.32 1.32 2 2 C4.83967231 2 7.23735711 1.59732819 10 1 C11.5625 3.375 11.5625 3.375 13 6 C12.67 6.66 12.34 7.32 12 8 C11.01 7.67 10.02 7.34 9 7 C11.475 10.465 11.475 10.465 14 14 C12.35 14.33 10.7 14.66 9 15 C8.67 15.99 8.34 16.98 8 18 C7.34 17.67 6.68 17.34 6 17 C6 17.99 6 18.98 6 20 C3.625 20.625 3.625 20.625 1 21 C-1.58165995 18.41834005 -1.3048816 16.4156989 -1.6484375 12.91015625 C-2.09352834 10.49182937 -2.99396458 9.3955029 -5 8 C-4.01 7.67 -3.02 7.34 -2 7 C-2.33 6.01 -2.66 5.02 -3 4 C-2.01 4 -1.02 4 0 4 C0 2.68 0 1.36 0 0 Z " fill="#ACABAB" transform="translate(149,92)"/>
<path d="M0 0 C2.06248006 0.98300831 3.96590774 1.9761137 5.83984375 3.2890625 C14.62086172 8.88144266 25.00685583 7.44821582 35 7 C35 7.66 35 8.32 35 9 C26.1109675 11.8034641 15.17298204 10.96698593 6.91796875 6.875 C4.89645842 5.7924705 4.89645842 5.7924705 2 6 C0.68 10.29 -0.64 14.58 -2 19 C-1.01 19.33 -0.02 19.66 1 20 C6.86521486 27.33151857 5.44327716 37.76018426 5.25 46.5625 C5.22990197 48.15948278 5.21165705 49.75649002 5.1953125 51.35351562 C5.15158265 55.23628881 5.0827407 59.11787022 5 63 C4.34 62.67 3.68 62.34 3 62 C2.98598145 60.56333984 2.98598145 60.56333984 2.97167969 59.09765625 C2.93151663 55.51142504 2.86568875 51.92602821 2.79248047 48.34033203 C2.76442213 46.79454343 2.74313294 45.24861539 2.72900391 43.70263672 C2.76396168 31.74376746 2.76396168 31.74376746 -2 21 C-2.66 20.67 -3.32 20.34 -4 20 C-3.21085905 13.21338787 -1.58725189 6.63850633 0 0 Z " fill="#2F2219" transform="translate(76,62)"/>
<path d="M0 0 C4.75 0.75 4.75 0.75 7 3 C6.75 6.0625 6.75 6.0625 6 9 C5.01 9.495 5.01 9.495 4 10 C3.67 8.35 3.34 6.7 3 5 C1.68 5 0.36 5 -1 5 C-0.67 7.31 -0.34 9.62 0 12 C3.43230448 11.73606499 3.43230448 11.73606499 7 11 C7.66 10.01 8.32 9.02 9 8 C10.32 8.33 11.64 8.66 13 9 C13.33 12.3 13.66 15.6 14 19 C13.34 19 12.68 19 12 19 C12 19.66 12 20.32 12 21 C8.21388773 20.45912682 6.44599233 18.88277668 4 16 C4 15.34 4 14.68 4 14 C3.2575 14.37125 2.515 14.7425 1.75 15.125 C-1 16 -1 16 -3.3125 15.125 C-3.869375 14.75375 -4.42625 14.3825 -5 14 C-5.46733615 9.42010577 -5.17261016 6.75145487 -2.5 3.0625 C-1.675 2.051875 -0.85 1.04125 0 0 Z " fill="#BFBEBE" transform="translate(110,78)"/>
<path d="M0 0 C0.33 0 0.66 0 1 0 C1.33 1.98 1.66 3.96 2 6 C5.05263664 6.98120464 6.94736336 6.98120464 10 6 C10.268125 6.61875 10.53625 7.2375 10.8125 7.875 C11.95556848 10.2995233 11.95556848 10.2995233 15 12 C17.54230847 12.41679297 17.54230847 12.41679297 20 12 C20.66 11.01 21.32 10.02 22 9 C22.598125 9.165 23.19625 9.33 23.8125 9.5 C26.11344336 10.1114124 26.11344336 10.1114124 29 10 C27.125 14.75 27.125 14.75 26 17 C23.24973583 17.05404449 20.50053797 17.09369306 17.75 17.125 C16.97269531 17.14175781 16.19539063 17.15851563 15.39453125 17.17578125 C8.27568856 17.23662606 8.27568856 17.23662606 5 15 C5 14.01 5 13.02 5 12 C4.34 12 3.68 12 3 12 C3 11.01 3 10.02 3 9 C2.01 8.67 1.02 8.34 0 8 C0 5.36 0 2.72 0 0 Z " fill="#D8D7D7" transform="translate(104,86)"/>
<path d="M0 0 C0.99 0 1.98 0 3 0 C3.433125 1.134375 3.86625 2.26875 4.3125 3.4375 C5.1478125 5.2009375 5.1478125 5.2009375 6 7 C6.99 7.33 7.98 7.66 9 8 C9 9.98 9 11.96 9 14 C9.99 14 10.98 14 12 14 C12 12.02 12 10.04 12 8 C12.66 8 13.32 8 14 8 C14.125 10.875 14.125 10.875 14 14 C13.34 14.66 12.68 15.32 12 16 C10.68 16 9.36 16 8 16 C7.67 16.66 7.34 17.32 7 18 C3.7 15.36 0.4 12.72 -3 10 C-1.875 3.25 -1.875 3.25 0 0 Z " fill="#BB9804" transform="translate(126,118)"/>
<path d="M0 0 C0.66 0.33 1.32 0.66 2 1 C1.360625 1.66 0.72125 2.32 0.0625 3 C-2.58912502 6.85690912 -2.68667121 9.37840033 -3 14 C-1.68 14.33 -0.36 14.66 1 15 C0.67 15.99 0.34 16.98 0 18 C0.66 18 1.32 18 2 18 C2 18.99 2 19.98 2 21 C3.32 21.66 4.64 22.32 6 23 C4.68 23 3.36 23 2 23 C2 25.97 2 28.94 2 32 C0.68 32.66 -0.64 33.32 -2 34 C-2 33.34 -2 32.68 -2 32 C-2.99 31.67 -3.98 31.34 -5 31 C-4.34 30.34 -3.68 29.68 -3 29 C-2.28591666 27.01643517 -1.61382258 25.01684563 -1 23 C-1.66 22.67 -2.32 22.34 -3 22 C-3.33 22.99 -3.66 23.98 -4 25 C-4.33 24.34 -4.66 23.68 -5 23 C-4.06553465 20.96855359 -3.06775224 18.96466413 -2 17 C-3.32 16.67 -4.64 16.34 -6 16 C-6 15.01 -6 14.02 -6 13 C-7.32 15.31 -8.64 17.62 -10 20 C-10.33 19.34 -10.66 18.68 -11 18 C-9.70703125 15.13671875 -9.70703125 15.13671875 -7.8125 11.6875 C-7.20019531 10.55699219 -6.58789062 9.42648438 -5.95703125 8.26171875 C-4.16489082 5.27481803 -2.24655117 2.65501502 0 0 Z " fill="#918F8F" transform="translate(107,80)"/>
<path d="M0 0 C1.4540625 1.299375 1.4540625 1.299375 2.9375 2.625 C13.6723437 11.79525109 21.83576429 14.56335028 36 14 C38.70256974 13.76823893 41.32006244 13.42879001 44 13 C39.84735992 17.15264008 34.29221354 17.1899387 28.6875 17.375 C18.8953658 17.18431697 12.3423225 13.76367279 4.91015625 7.5859375 C2.88195094 5.84566214 2.88195094 5.84566214 0 4 C-0.51949219 4.47050781 -1.03898437 4.94101562 -1.57421875 5.42578125 C-9.26621409 12.29312644 -9.26621409 12.29312644 -13 14 C-13.99 13.67 -14.98 13.34 -16 13 C-15.26394531 12.48050781 -14.52789062 11.96101563 -13.76953125 11.42578125 C-6.45687809 6.20206016 -6.45687809 6.20206016 0 0 Z " fill="#291912" transform="translate(128,55)"/>
<path d="M0 0 C5.40718817 -0.57934159 8.10649656 -0.34220083 12.5 3 C13.68193081 3.98191175 14.85423174 4.97612198 16 6 C14.68 6.33 13.36 6.66 12 7 C12 8.98 12 10.96 12 13 C11.01 13 10.02 13 9 13 C9 12.01 9 11.02 9 10 C8.01 10 7.02 10 6 10 C6 10.99 6 11.98 6 13 C5.34 13 4.68 13 4 13 C3.34 10.69 2.68 8.38 2 6 C1.67 7.98 1.34 9.96 1 12 C0.67 12 0.34 12 0 12 C0 8.04 0 4.08 0 0 Z " fill="#E6BC05" transform="translate(110,105)"/>
<path d="M0 0 C3.79979982 3.25697128 6.48005185 7.22568435 8 12 C7.60546875 14.25 7.60546875 14.25 7 16 C6.01 15.01 5.02 14.02 4 13 C3.67 13.66 3.34 14.32 3 15 C2.01 15 1.02 15 0 15 C-0.33 14.34 -0.66 13.68 -1 13 C-1.99 14.485 -1.99 14.485 -3 16 C-3.6708712 14.3767313 -4.33657029 12.75132422 -5 11.125 C-5.37125 10.22007813 -5.7425 9.31515625 -6.125 8.3828125 C-7 6 -7 6 -7 4 C-6.01 4 -5.02 4 -4 4 C-2.31201173 2.56249809 -2.31201173 2.56249809 -1 1 C-0.01 2.65 0.98 4.3 2 6 C1.34 4.02 0.68 2.04 0 0 Z " fill="#BCBBBB" transform="translate(164,107)"/>
<path d="M0 0 C2.97 0 5.94 0 9 0 C8.67 0.99 8.34 1.98 8 3 C8.98357352 5.00812926 9.98308736 7.00854609 11 9 C10.67 9.66 10.34 10.32 10 11 C8.35 8.36 6.7 5.72 5 3 C4.34 4.32 3.68 5.64 3 7 C3 6.34 3 5.68 3 5 C2.01 5 1.02 5 0 5 C0.350625 5.763125 0.70125 6.52625 1.0625 7.3125 C2 10 2 10 1 13 C-0.175625 13.185625 -0.175625 13.185625 -1.375 13.375 C-4.14057822 13.79117993 -4.14057822 13.79117993 -6 16 C-6.66 16 -7.32 16 -8 16 C-8.33 12.37 -8.66 8.74 -9 5 C-6.69 5.33 -4.38 5.66 -2 6 C-2.33 4.68 -2.66 3.36 -3 2 C-2.01 2.33 -1.02 2.66 0 3 C0 2.01 0 1.02 0 0 Z " fill="#9C9B9B" transform="translate(157,106)"/>
<path d="M0 0 C0.66 0 1.32 0 2 0 C1.67 0.928125 1.34 1.85625 1 2.8125 C-0.14967004 5.92029291 -0.14967004 5.92029291 0 9 C-1.1866334 15.22982535 -5.17528315 20.05087991 -10 24 C-13.5 24.0625 -13.5 24.0625 -16 23 C-16 22.01 -16 21.02 -16 20 C-15.154375 19.484375 -14.30875 18.96875 -13.4375 18.4375 C-7.01319037 14.49461802 -3.01250541 6.73383563 0 0 Z " fill="#F4F4F4" transform="translate(92,108)"/>
<path d="M0 0 C0.99 0.66 1.98 1.32 3 2 C3.4375 5.4375 3.4375 5.4375 3 9 C1.3125 10.9375 1.3125 10.9375 -1 12 C-2.65 12 -4.3 12 -6 12 C-6.99 8.7 -7.98 5.4 -9 2 C-5.53001271 -0.31332486 -4.07490752 -0.33957563 0 0 Z " fill="#8E3F4A" transform="translate(104,29)"/>
<path d="M0 0 C3.5070809 4.23772275 6.35820776 8.69151772 9.21875 13.37890625 C10.91047099 16.05835163 10.91047099 16.05835163 13.21875 18.15234375 C15 20 15 20 15 23 C12.375 23.9375 12.375 23.9375 9 24 C6.61217986 21.9456142 4.80703206 19.56957396 3 17 C3.99 16.67 4.98 16.34 6 16 C4.42105792 13.63158688 3.0245738 11.93254772 1 10 C1.33 9.01 1.66 8.02 2 7 C1.34 6.01 0.68 5.02 0 4 C0 2.68 0 1.36 0 0 Z " fill="#D4D3D3" transform="translate(154,82)"/>
<path d="M0 0 C2.37466762 2.37466762 3.04086366 4.37236734 4.25 7.5 C8.44444573 17.74765459 14.56371511 29.70914341 24 36 C24 36.66 24 37.32 24 38 C24.5775 38.2475 25.155 38.495 25.75 38.75 C28.3002997 40.16683317 30.01785701 41.87627537 32 44 C26.7552258 43.09292153 23.76840301 39.52001486 20 36 C19.40832031 35.484375 18.81664063 34.96875 18.20703125 34.4375 C10.26258486 27.16569552 0.36755999 13.27009984 -0.125 2.1875 C-0.08375 1.465625 -0.0425 0.74375 0 0 Z " fill="#251610" transform="translate(84,143)"/>
<path d="M0 0 C1.32 0 2.64 0 4 0 C4 7.26 4 14.52 4 22 C-0.94366102 20.02253559 -2.07854402 19.11167879 -5 15 C-4.67 14.34 -4.34 13.68 -4 13 C-2.68 13 -1.36 13 0 13 C-0.66 11.35 -1.32 9.7 -2 8 C-0.35 8.33 1.3 8.66 3 9 C3 7.35 3 5.7 3 4 C1.68 4.33 0.36 4.66 -1 5 C-0.67 3.35 -0.34 1.7 0 0 Z " fill="#0A0803" transform="translate(142,105)"/>
<path d="M0 0 C1.32256051 3.96768152 0.29090379 5.47352418 -1.25 9.3125 C-1.68828125 10.42238281 -2.1265625 11.53226563 -2.578125 12.67578125 C-5.43119266 19.34600262 -5.43119266 19.34600262 -7 22 C-10.6875 22.875 -10.6875 22.875 -14 23 C-12.05657711 19.03132589 -9.95916091 15.14583435 -7.875 11.25 C-7.50246094 10.55261719 -7.12992187 9.85523438 -6.74609375 9.13671875 C-5.83120092 7.42422705 -4.91566431 5.71207932 -4 4 C-3.34 4.33 -2.68 4.66 -2 5 C-1.34 3.35 -0.68 1.7 0 0 Z " fill="#F5F5F5" transform="translate(103,122)"/>
<path d="M0 0 C6.27586207 -0.48275862 6.27586207 -0.48275862 9.4375 1.625 C11.45932313 4.69817115 11.52755517 6.38247881 11 10 C9.9375 12.375 9.9375 12.375 8 14 C4.3125 14.25 4.3125 14.25 1 14 C0.67 11.69 0.34 9.38 0 7 C1.32 6.67 2.64 6.34 4 6 C4.66 7.65 5.32 9.3 6 11 C6.67801034 8.09926819 6.67801034 8.09926819 7 5 C5.10244856 2.65026182 5.10244856 2.65026182 1.875 2.875 C0.92625 2.91625 -0.0225 2.9575 -1 3 C-0.67 2.01 -0.34 1.02 0 0 Z " fill="#EFEFEF" transform="translate(109,76)"/>
<path d="M0 0 C0.268125 0.639375 0.53625 1.27875 0.8125 1.9375 C1.88667752 4.33131686 1.88667752 4.33131686 5 5 C4.67 5.804375 4.34 6.60875 4 7.4375 C2.93940959 9.69681125 2.93940959 9.69681125 3 11 C3.99 11.33 4.98 11.66 6 12 C2.55384615 17.78461538 2.55384615 17.78461538 -0.25 18.875 C-0.8275 18.91625 -1.405 18.9575 -2 19 C-2 18.34 -2 17.68 -2 17 C-2.99 17 -3.98 17 -5 17 C-4.51175808 14.36349363 -3.85902333 12.78311281 -2.375 10.5 C-0.75374035 7.55225518 -1.11025311 7.06468373 -2 4 C-1.0625 1.75 -1.0625 1.75 0 0 Z " fill="#D3D2D3" transform="translate(101,91)"/>
<path d="M0 0 C0.33 0.99 0.66 1.98 1 3 C1.99 3.33 2.98 3.66 4 4 C9.86521486 11.33151857 8.44327716 21.76018426 8.25 30.5625 C8.22990197 32.15948278 8.21165705 33.75649002 8.1953125 35.35351562 C8.15158265 39.23628881 8.0827407 43.11787022 8 47 C7.34 46.67 6.68 46.34 6 46 C5.98598145 44.56333984 5.98598145 44.56333984 5.97167969 43.09765625 C5.93151663 39.51142504 5.86568875 35.92602821 5.79248047 32.34033203 C5.76442213 30.79454343 5.74313294 29.24861539 5.72900391 27.70263672 C5.65455944 15.79941892 5.65455944 15.79941892 1 5 C0.25 2 0.25 2 0 0 Z " fill="#271912" transform="translate(73,78)"/>
<path d="M0 0 C1.875 1.1875 1.875 1.1875 3 3 C2.73904456 5.67479327 2.1995243 7.60095141 1 10 C-2.375 10.125 -2.375 10.125 -6 10 C-6.66 9.34 -7.32 8.68 -8 8 C-7.75 4.4375 -7.75 4.4375 -7 1 C-4.45132831 -0.27433584 -2.82594567 -0.27570202 0 0 Z " fill="#A05F68" transform="translate(132,26)"/>
<path d="M0 0 C2.5625 0.375 2.5625 0.375 4.4375 2.0625 C5.85114911 4.96833428 5.54420152 6.34808697 4.5625 9.375 C3.5625 10.375 3.5625 10.375 0.125 10.625 C-1.050625 10.5425 -2.22625 10.46 -3.4375 10.375 C-5.4375 7.375 -5.4375 7.375 -5.1875 4.8125 C-4.1927353 1.57951474 -3.3898104 0.52150929 0 0 Z " fill="#9E5D66" transform="translate(50.4375,153.625)"/>
<path d="M0 0 C0.33 0 0.66 0 1 0 C1.09796875 1.17175781 1.1959375 2.34351562 1.296875 3.55078125 C2.0581256 11.80674616 2.93334116 19.31680682 6.1953125 27.03125 C7 29 7 29 7 31 C4.04590299 29.62845496 1.55991624 28.01136276 -1 26 C-1.66 26.99 -2.32 27.98 -3 29 C-3.6875 26.75 -3.6875 26.75 -4 24 C-3.52199951 23.38157227 -3.04399902 22.76314453 -2.55151367 22.12597656 C-0.72594957 19.62447976 -0.58636687 18.29464632 -0.48828125 15.234375 C-0.43510742 13.90019531 -0.43510742 13.90019531 -0.38085938 12.5390625 C-0.35830078 11.61867188 -0.33574219 10.69828125 -0.3125 9.75 C-0.27833984 8.81414062 -0.24417969 7.87828125 -0.20898438 6.9140625 C-0.12667838 4.60949467 -0.0574737 2.30529881 0 0 Z " fill="#EBEBEA" transform="translate(148,113)"/>
<path d="M0 0 C1.32 0.33 2.64 0.66 4 1 C4.33 4.3 4.66 7.6 5 11 C4.34 11 3.68 11 3 11 C3 11.66 3 12.32 3 13 C-0.7726764 12.46104623 -2.68212991 11.00464642 -5 8 C-5 5.09348396 -3.98190854 3.9769178 -2.1875 1.6875 C-1.465625 1.130625 -0.74375 0.57375 0 0 Z " fill="#701A27" transform="translate(119,86)"/>
<path d="M0 0 C0.4531159 22.20267909 0.4531159 22.20267909 -2 32 C-2.99 32.495 -2.99 32.495 -4 33 C-3.9278125 32.34515625 -3.855625 31.6903125 -3.78125 31.015625 C-3.06648747 23.98712682 -2.88908396 17.06165482 -3 10 C-4.485 12.475 -4.485 12.475 -6 15 C-8 12 -8 12 -7.6796875 10.09765625 C-3.68714012 0 -3.68714012 0 0 0 Z " fill="#908D8D" transform="translate(144,137)"/>
<path d="M0 0 C0.433125 0.495 0.86625 0.99 1.3125 1.5 C2.99740483 3.33218192 2.99740483 3.33218192 6 3 C6.90839464 4.41305833 7.81178545 5.82970545 8.68359375 7.265625 C11.16350458 10.53292591 14.64269535 12.70203905 18 15 C16 17 16 17 13.1875 17.5 C9.53858471 16.92762113 8.39328916 15.86274565 6.234375 12.92578125 C0 3.19936709 0 3.19936709 0 0 Z " fill="#F5F5F5" transform="translate(162,119)"/>
<path d="M0 0 C2.125 0.9375 2.125 0.9375 4 2 C4 2.66 4 3.32 4 4 C4.99 4.33 5.98 4.66 7 5 C6.75 7.375 6.75 7.375 6 10 C4.1875 11.375 4.1875 11.375 2 12 C-1.5 11.5 -1.5 11.5 -3 10 C-2.94921875 7.96875 -2.94921875 7.96875 -2.6875 5.5 C-2.60886719 4.6853125 -2.53023437 3.870625 -2.44921875 3.03125 C-2.30097656 2.3609375 -2.15273437 1.690625 -2 1 C-1.34 0.67 -0.68 0.34 0 0 Z " fill="#6D1C28" transform="translate(136,86)"/>
<path d="M0 0 C0.33 0 0.66 0 1 0 C1.5625 3.125 1.5625 3.125 1 7 C-1.64932828 9.60548597 -4.74788831 11.24184213 -8 13 C-8.86238281 13.51304687 -9.72476563 14.02609375 -10.61328125 14.5546875 C-16.94533365 18.10986108 -16.94533365 18.10986108 -21 17.6875 C-25.39288869 15.21650011 -29.73230888 12.68206675 -34 10 C-32.234375 9.34375 -32.234375 9.34375 -30 9 C-28.140625 10.03125 -28.140625 10.03125 -26.25 11.5 C-23.17615152 13.51156261 -22.0653938 13.99564041 -18.25 14.25 C-12.36929123 13.01997127 -6.60419022 9.77543598 -2 6 C-0.60000941 2.89474616 -0.60000941 2.89474616 0 0 Z " fill="#3A342A" transform="translate(148,178)"/>
<path d="M0 0 C2.84785089 2.71840312 4.81663553 5.7249533 7 9 C6 11 5 13 4 15 C3.67 14.67 3.34 14.34 3 14 C2.88861841 19.45769811 3.08342019 24.61509359 4 30 C3.34 30 2.68 30 2 30 C-0.64341985 20.08717557 -0.19255751 10.17592366 0 0 Z " fill="#8E8B8B" transform="translate(115,140)"/>
<path d="M0 0 C2 2 2 2 2 5 C1.34 5 0.68 5 0 5 C-0.33 6.32 -0.66 7.64 -1 9 C-0.01 8.67 0.98 8.34 2 8 C1.9175 8.7425 1.835 9.485 1.75 10.25 C2.07321515 13.8053667 3.46260586 14.62119299 6 17 C6 17.99 6 18.98 6 20 C3.625 20.625 3.625 20.625 1 21 C-1.58165995 18.41834005 -1.3048816 16.4156989 -1.6484375 12.91015625 C-2.09352834 10.49182937 -2.99396458 9.3955029 -5 8 C-4.01 7.67 -3.02 7.34 -2 7 C-2.33 6.01 -2.66 5.02 -3 4 C-2.01 4 -1.02 4 0 4 C0 2.68 0 1.36 0 0 Z " fill="#D2D1D1" transform="translate(149,92)"/>
<path d="M0 0 C0.33 0.99 0.66 1.98 1 3 C-0.14453125 4.97265625 -0.14453125 4.97265625 -1.8125 7.0625 C-2.35519531 7.75472656 -2.89789063 8.44695312 -3.45703125 9.16015625 C-5 11 -5 11 -7 13 C-10.0625 12.75 -10.0625 12.75 -13 12 C-13.33 11.34 -13.66 10.68 -14 10 C-13.45730469 9.60167969 -12.91460937 9.20335937 -12.35546875 8.79296875 C-11.64003906 8.26316406 -10.92460938 7.73335937 -10.1875 7.1875 C-9.47980469 6.66542969 -8.77210937 6.14335937 -8.04296875 5.60546875 C-6.00260796 4.07825497 -6.00260796 4.07825497 -4.42578125 2.36328125 C-3 1 -3 1 0 0 Z " fill="#F7F7F7" transform="translate(92,125)"/>
<path d="M0 0 C0.99 0 1.98 0 3 0 C4.39453125 2.01171875 4.39453125 2.01171875 5.8125 4.6875 C8.39258953 9.2592376 10.86649781 11.850665 15 15 C15 15.66 15 16.32 15 17 C12.25 17.3125 12.25 17.3125 9 17 C4.73823378 13.12566707 2.26412532 7.24274921 0 2 C0 1.34 0 0.68 0 0 Z " fill="#F7F7F7" transform="translate(160,124)"/>
<path d="M0 0 C1.65 0 3.3 0 5 0 C4.67 1.32 4.34 2.64 4 4 C5.32 3.67 6.64 3.34 8 3 C8 4.65 8 6.3 8 8 C6.68 8 5.36 8 4 8 C4.33 9.32 4.66 10.64 5 12 C3.35 12 1.7 12 0 12 C0.33 10.35 0.66 8.7 1 7 C-0.32 7.33 -1.64 7.66 -3 8 C-3 6.35 -3 4.7 -3 3 C-2.01 3.33 -1.02 3.66 0 4 C0 2.68 0 1.36 0 0 Z " fill="#C3A105" transform="translate(137,106)"/>
<path d="M0 0 C2.0625 0.25 2.0625 0.25 4 1 C4.33 1.66 4.66 2.32 5 3 C3.35 2.67 1.7 2.34 0 2 C0 3.32 0 4.64 0 6 C1.32 6.33 2.64 6.66 4 7 C3.88590407 8.45922693 3.75834456 9.91740598 3.625 11.375 C3.55539063 12.18710938 3.48578125 12.99921875 3.4140625 13.8359375 C3 16 3 16 1 18 C-1.0625 17.75 -1.0625 17.75 -3 17 C-3.33 16.34 -3.66 15.68 -4 15 C-2.68 15.33 -1.36 15.66 0 16 C0 15.01 0 14.02 0 13 C-0.99 12.34 -1.98 11.68 -3 11 C-2.88590407 9.54077307 -2.75834456 8.08259402 -2.625 6.625 C-2.55539063 5.81289062 -2.48578125 5.00078125 -2.4140625 4.1640625 C-2 2 -2 2 0 0 Z " fill="#CEA1A0" transform="translate(41,96)"/>
<path d="M0 0 C1.875 0.125 1.875 0.125 4 1 C5.8824478 4.94417634 6.42928722 7.8312456 5 12 C4.01 12.495 4.01 12.495 3 13 C3 13.99 3 14.98 3 16 C3.66 16.33 4.32 16.66 5 17 C5 16.34 5 15.68 5 15 C5.66 15 6.32 15 7 15 C6.67 15.99 6.34 16.98 6 18 C4.35 17.67 2.7 17.34 1 17 C-1.05519054 11.68068331 -1.05519054 11.68068331 -0.8125 8.6875 C-0.4103125 7.8521875 -0.4103125 7.8521875 0 7 C0.99 6.67 1.98 6.34 3 6 C3 4.68 3 3.36 3 2 C1.68 2.33 0.36 2.66 -1 3 C-0.67 2.01 -0.34 1.02 0 0 Z " fill="#B26C6A" transform="translate(212,96)"/>
<path d="M0 0 C0.66 0.33 1.32 0.66 2 1 C2 1.66 2 2.32 2 3 C2.99 3 3.98 3 5 3 C5 3.99 5 4.98 5 6 C4.34 6 3.68 6 3 6 C3.33 7.32 3.66 8.64 4 10 C4.66 8.35 5.32 6.7 6 5 C7.74627478 7.61941217 8.38722388 9.03824877 9 12 C9.66 11.67 10.32 11.34 11 11 C11 11.99 11 12.98 11 14 C9.0085944 14.38133299 7.00720923 14.71325582 5 15 C4.67 14.67 4.34 14.34 4 14 C3.01 15.485 3.01 15.485 2 17 C1.34 16.34 0.68 15.68 0 15 C0.66 15 1.32 15 2 15 C1.71890887 13.35232753 1.42481474 11.70686855 1.125 10.0625 C0.96257812 9.14597656 0.80015625 8.22945312 0.6328125 7.28515625 C0.42398438 6.53105469 0.21515625 5.77695313 0 5 C-0.66 4.67 -1.32 4.34 -2 4 C-2 3.01 -2 2.02 -2 1 C-1.34 0.67 -0.68 0.34 0 0 Z " fill="#908687" transform="translate(122,82)"/>
<path d="M0 0 C0.33 0 0.66 0 1 0 C0.70834464 6.8539009 -0.01934774 14.20463862 -4 20 C-6.640625 20.77734375 -6.640625 20.77734375 -9 21 C-7.79347883 17.17934964 -6.43757197 13.42625993 -5 9.6875 C-4.67 8.82511719 -4.34 7.96273437 -4 7.07421875 C-3 5 -3 5 -1 4 C-0.34786708 1.97536745 -0.34786708 1.97536745 0 0 Z " fill="#F4F4F4" transform="translate(106,124)"/>
<path d="M0 0 C1.32 0 2.64 0 4 0 C4.33 0.66 4.66 1.32 5 2 C5.33 1.34 5.66 0.68 6 0 C7.65 0 9.3 0 11 0 C11.22174933 1.45635371 11.42698698 2.91522956 11.625 4.375 C11.74101562 5.18710938 11.85703125 5.99921875 11.9765625 6.8359375 C11.98429688 7.55007812 11.99203125 8.26421875 12 9 C11.34 9.66 10.68 10.32 10 11 C9.01 10.67 8.02 10.34 7 10 C7.66 9.67 8.32 9.34 9 9 C9.65213292 6.97536745 9.65213292 6.97536745 10 5 C8.68 5 7.36 5 6 5 C5.67 6.65 5.34 8.3 5 10 C3.68 10.33 2.36 10.66 1 11 C1.66 10.34 2.32 9.68 3 9 C3.45218674 5.12128967 3.45218674 5.12128967 1.5 3.375 C1.005 2.92125 0.51 2.4675 0 2 C0 1.34 0 0.68 0 0 Z " fill="#B36C0F" transform="translate(151,154)"/>
<path d="M0 0 C0.33 0 0.66 0 1 0 C1.33 1.98 1.66 3.96 2 6 C5.05263664 6.98120464 6.94736336 6.98120464 10 6 C10.268125 6.598125 10.53625 7.19625 10.8125 7.8125 C11.98493467 9.97224808 13.19369282 11.35790256 15 13 C13.1875 13.6875 13.1875 13.6875 11 14 C9.25 12.5625 9.25 12.5625 8 11 C8.33 10.34 8.66 9.68 9 9 C7.68 9 6.36 9 5 9 C5.66 9.33 6.32 9.66 7 10 C7 10.99 7 11.98 7 13 C7.66 13 8.32 13 9 13 C9 13.99 9 14.98 9 16 C7.68 15.67 6.36 15.34 5 15 C5 14.01 5 13.02 5 12 C4.34 12 3.68 12 3 12 C3 11.01 3 10.02 3 9 C2.01 8.67 1.02 8.34 0 8 C0 5.36 0 2.72 0 0 Z " fill="#E0DFDF" transform="translate(104,86)"/>
<path d="M0 0 C4.55555556 0.55555556 4.55555556 0.55555556 6 2 C5.4 8.6 5.4 8.6 3 11 C2.01 10.67 1.02 10.34 0 10 C0.33 9.34 0.66 8.68 1 8 C0.01 7.67 -0.98 7.34 -2 7 C-2.125 4.625 -2.125 4.625 -2 2 C-1.34 1.34 -0.68 0.68 0 0 Z " fill="#D09509" transform="translate(102,154)"/>
<path d="M0 0 C0.66 0.33 1.32 0.66 2 1 C2 3.64 2 6.28 2 9 C0.68 9 -0.64 9 -2 9 C-1.67 10.32 -1.34 11.64 -1 13 C-1.99 13 -2.98 13 -4 13 C-4 13.99 -4 14.98 -4 16 C-4.66 16 -5.32 16 -6 16 C-6 16.66 -6 17.32 -6 18 C-7.32 17.34 -8.64 16.68 -10 16 C-9.505 15.608125 -9.01 15.21625 -8.5 14.8125 C-6.54406857 12.44908285 -6.75792027 10.98564997 -7 8 C-5.02 7.67 -3.04 7.34 -1 7 C-0.67 4.69 -0.34 2.38 0 0 Z " fill="#C4C2C2" transform="translate(149,82)"/>
<path d="M0 0 C0.33 0 0.66 0 1 0 C1.33 2.64 1.66 5.28 2 8 C2.66 8 3.32 8 4 8 C4.125 10.375 4.125 10.375 4 13 C3.34 13.66 2.68 14.32 2 15 C1.01 15 0.02 15 -1 15 C-1.66 16.32 -2.32 17.64 -3 19 C-3.66 19 -4.32 19 -5 19 C-4.80664062 18.46632812 -4.61328125 17.93265625 -4.4140625 17.3828125 C-2.41302552 11.65707301 -1.05915756 5.96866438 0 0 Z " fill="#EAEAEA" transform="translate(108,126)"/>
<path d="M0 0 C1.58294782 -0.05437607 3.16644256 -0.09296271 4.75 -0.125 C5.63171875 -0.14820313 6.5134375 -0.17140625 7.421875 -0.1953125 C10.1135858 0.00860498 11.69904974 0.63448279 14 2 C13.67 3.32 13.34 4.64 13 6 C8.65450493 6.16713443 5.80278083 6.11265602 2 4 C1.01 4.495 1.01 4.495 0 5 C0 3.35 0 1.7 0 0 Z " fill="#E2D0D2" transform="translate(109,213)"/>
<path d="M0 0 C5 5 5 5 6.5625 6.75 C8.30475797 8.26500693 9.74879482 8.61186118 12 9 C12 9.66 12 10.32 12 11 C12.66 11 13.32 11 14 11 C13.67 11.99 13.34 12.98 13 14 C10.9375 14.6875 10.9375 14.6875 9 15 C8.67 16.98 8.34 18.96 8 21 C7.79375 20.443125 7.5875 19.88625 7.375 19.3125 C5.44999226 16.07498698 2.96149098 14.31768859 0 12 C0.33 11.34 0.66 10.68 1 10 C1.37125 10.495 1.7425 10.99 2.125 11.5 C4.74694393 13.59755514 6.73842472 13.21743835 10 13 C9.278125 12.29875 8.55625 11.5975 7.8125 10.875 C0 3.04017857 0 3.04017857 0 0 Z " fill="#A6A095" transform="translate(168,122)"/>
<path d="M0 0 C1 3 1 3 0.07421875 5.19140625 C-0.61220703 6.36509766 -0.61220703 6.36509766 -1.3125 7.5625 C-1.76238281 8.34753906 -2.21226563 9.13257813 -2.67578125 9.94140625 C-4 12 -4 12 -6 14 C-9.125 14.125 -9.125 14.125 -12 14 C-11 11 -11 11 -8.625 9.125 C-5.91323056 6.92975808 -4.72629227 4.98177756 -3 2 C-2.01 1.34 -1.02 0.68 0 0 Z " fill="#F9F9F9" transform="translate(95,128)"/>
<path d="M0 0 C3 1 3 1 4.60546875 3.87109375 C5.12753906 5.04800781 5.64960938 6.22492188 6.1875 7.4375 C6.71730469 8.61183594 7.24710938 9.78617188 7.79296875 10.99609375 C9 14 9 14 9 16 C5.79405398 15.77100386 4.96845479 14.96394833 2.8125 12.5 C0.62300575 8.2720111 0.20879749 4.69794346 0 0 Z " fill="#F8F8F8" transform="translate(152,128)"/>
<path d="M0 0 C0.33 0.66 0.66 1.32 1 2 C-0.07826365 3.27513763 -1.16285519 4.54492569 -2.25 5.8125 C-2.85328125 6.52019531 -3.4565625 7.22789062 -4.078125 7.95703125 C-5.92370398 9.91889671 -7.79945332 11.45669625 -10 13 C-9.34 13.66 -8.68 14.32 -8 15 C-9.32 14.67 -10.64 14.34 -12 14 C-12 12.68 -12 11.36 -12 10 C-14.41666771 7.24958334 -14.41666771 7.24958334 -17 5 C-15.865625 4.71125 -14.73125 4.4225 -13.5625 4.125 C-12.386875 3.75375 -11.21125 3.3825 -10 3 C-9.67 2.34 -9.34 1.68 -9 1 C-9 1.99 -9 2.98 -9 4 C-11 5.6875 -11 5.6875 -13 7 C-10.36223534 8.20827955 -10.36223534 8.20827955 -7 8 C-4.28550633 5.6214317 -2.14159632 2.89559029 0 0 Z " fill="#A7A195" transform="translate(89,123)"/>
<path d="M0 0 C3.05214016 0.36335002 4.35762056 1.29705161 6.625 3.3125 C6.295 4.3025 5.965 5.2925 5.625 6.3125 C1.60695309 7.15348656 -1.39303543 7.36654945 -5.375 6.3125 C-4.64557144 2.66535718 -4.04714745 0.5325194 0 0 Z " fill="#ECEAEB" transform="translate(128.375,76.6875)"/>
<path d="M0 0 C3.625 0.375 3.625 0.375 7 1 C7.33 1.99 7.66 2.98 8 4 C5.36 3.34 2.72 2.68 0 2 C0.33 3.98 0.66 5.96 1 8 C1.99 8.33 2.98 8.66 4 9 C4 8.01 4 7.02 4 6 C4.99 6 5.98 6 7 6 C6.67 7.65 6.34 9.3 6 11 C2.71006898 11.36554789 1.36900115 11.26218503 -1.375 9.3125 C-3 7 -3 7 -2.875 4.375 C-2 2 -2 2 0 0 Z " fill="#A97078" transform="translate(99,197)"/>
<path d="M0 0 C0.66 0.66 1.32 1.32 2 2 C1.67 2.66 1.34 3.32 1 4 C3.97 3.01 6.94 2.02 10 1 C10 1.66 10 2.32 10 3 C11.65 2.67 13.3 2.34 15 2 C15 2.99 15 3.98 15 5 C14.21625 5.268125 13.4325 5.53625 12.625 5.8125 C9.71885077 6.84814432 9.71885077 6.84814432 8 10 C7.67 9.01 7.34 8.02 7 7 C3.48809191 5.77030122 3.48809191 5.77030122 0 5 C-0.5625 3.0625 -0.5625 3.0625 -1 1 C-0.67 0.67 -0.34 0.34 0 0 Z " fill="#E1B903" transform="translate(117,134)"/>
<path d="M0 0 C0.33 0 0.66 0 1 0 C1 10.23 1 20.46 1 31 C3.31 31.66 5.62 32.32 8 33 C7.01 34.32 6.02 35.64 5 37 C4.01 36.67 3.02 36.34 2 36 C2.66 35.34 3.32 34.68 4 34 C2.35 33.01 0.7 32.02 -1 31 C-0.67 20.77 -0.34 10.54 0 0 Z " fill="#675C42" transform="translate(178,94)"/>
<path d="M0 0 C0.66 0.33 1.32 0.66 2 1 C-3.33333333 6.33333333 -8.66666667 11.66666667 -14 17 C-14.33 15.68 -14.66 14.36 -15 13 C-13.06478939 11.20580474 -11.1269646 9.41458671 -9.1875 7.625 C-8.64029297 7.11710937 -8.09308594 6.60921875 -7.52929688 6.0859375 C-5.09977985 3.84783697 -2.75431332 1.83620888 0 0 Z " fill="#E8E8E8" transform="translate(70,37)"/>
<path d="M0 0 C0.66 0 1.32 0 2 0 C2.99 2.31 3.98 4.62 5 7 C5.66 5.68 6.32 4.36 7 3 C7.66 3 8.32 3 9 3 C7.80100302 6.0831351 6.52299523 9.06279492 5 12 C4.34 12 3.68 12 3 12 C2.01 9.69 1.02 7.38 0 5 C-0.66 6.32 -1.32 7.64 -2 9 C-2.66 9 -3.32 9 -4 9 C-2.80100302 5.9168649 -1.52299523 2.93720508 0 0 Z " fill="#9F5D66" transform="translate(86,191)"/>
<path d="M0 0 C0 0.66 0 1.32 0 2 C-0.99 2 -1.98 2 -3 2 C-2.67 3.98 -2.34 5.96 -2 8 C-0.35 7.67 1.3 7.34 3 7 C3 7.66 3 8.32 3 9 C1.54293274 9.50367757 0.08429904 10.00282556 -1.375 10.5 C-2.18710937 10.7784375 -2.99921875 11.056875 -3.8359375 11.34375 C-6 12 -6 12 -8 12 C-8 11.34 -8 10.68 -8 10 C-6.35 9.67 -4.7 9.34 -3 9 C-3.33 7.35 -3.66 5.7 -4 4 C-5.98 4.33 -7.96 4.66 -10 5 C-10 4.34 -10 3.68 -10 3 C-3.375 0 -3.375 0 0 0 Z " fill="#934953" transform="translate(49,139)"/>
<path d="M0 0 C2.97 0 5.94 0 9 0 C8.67 0.99 8.34 1.98 8 3 C8.98357352 5.00812926 9.98308736 7.00854609 11 9 C10.67 9.66 10.34 10.32 10 11 C7.525 7.04 7.525 7.04 5 3 C4.34 4.32 3.68 5.64 3 7 C3 6.34 3 5.68 3 5 C2.01 5 1.02 5 0 5 C0.350625 5.763125 0.70125 6.52625 1.0625 7.3125 C2 10 2 10 1 13 C-0.49821059 9.62902617 -1 7.79557881 -1 4 C-0.34 4 0.32 4 1 4 C0.67 2.68 0.34 1.36 0 0 Z " fill="#7C7A7B" transform="translate(157,106)"/>
<path d="M0 0 C4.875 0.875 4.875 0.875 6 2 C6.04080783 3.99958364 6.04254356 6.00045254 6 8 C4.35 8.33 2.7 8.66 1 9 C-1.09230769 4.56923077 -1.09230769 4.56923077 -0.625 1.6875 C-0.41875 1.130625 -0.2125 0.57375 0 0 Z " fill="#F7F3F3" transform="translate(99,30)"/>
<path d="M0 0 C0.33 1.98 0.66 3.96 1 6 C0.360625 6.268125 -0.27875 6.53625 -0.9375 6.8125 C-3.33131686 7.88667752 -3.33131686 7.88667752 -4 11 C-4.66 11 -5.32 11 -6 11 C-6 9.35 -6 7.7 -6 6 C-6.99 5.67 -7.98 5.34 -9 5 C-7.87926138 4.16094435 -6.75325453 3.32892169 -5.625 2.5 C-4.99851563 2.0359375 -4.37203125 1.571875 -3.7265625 1.09375 C-2 0 -2 0 0 0 Z " fill="#A86D75" transform="translate(206,68)"/>
<path d="M0 0 C0.99 0 1.98 0 3 0 C4.32 5.94 5.64 11.88 7 18 C5.68 18.99 4.36 19.98 3 21 C3.04125 19.865625 3.0825 18.73125 3.125 17.5625 C3.13337683 12.84634363 2.17085531 8.54667903 1 4 C0.66666667 2.66666667 0.33333333 1.33333333 0 0 Z " fill="#2D1C15" transform="translate(178,63)"/>
<path d="M0 0 C0.66 0 1.32 0 2 0 C2.22162329 1.62324086 2.42689803 3.248721 2.625 4.875 C2.74101562 5.77992188 2.85703125 6.68484375 2.9765625 7.6171875 C2.98429688 8.40351563 2.99203125 9.18984375 3 10 C1 12 1 12 -2.125 12.125 C-3.07375 12.08375 -4.0225 12.0425 -5 12 C-6.60355101 8.49223216 -7.22036864 5.85645121 -7 2 C-6.34 2 -5.68 2 -5 2 C-4.34 4.64 -3.68 7.28 -3 10 C-2.01 10 -1.02 10 0 10 C0 6.7 0 3.4 0 0 Z " fill="#9B5861" transform="translate(145,198)"/>
<path d="M0 0 C0.66 0 1.32 0 2 0 C2.66 2.97 3.32 5.94 4 9 C-1.75 7.125 -1.75 7.125 -4 6 C-3.34 7.98 -2.68 9.96 -2 12 C-2.99 12 -3.98 12 -5 12 C-5.33 9.03 -5.66 6.06 -6 3 C-0.25 4.875 -0.25 4.875 2 6 C1.34 4.02 0.68 2.04 0 0 Z " fill="#9D5A63" transform="translate(158,196)"/>
<path d="M0 0 C0.99 0.33 1.98 0.66 3 1 C3.6875 3.0625 3.6875 3.0625 4 5 C4.99 4.67 5.98 4.34 7 4 C6.67 5.32 6.34 6.64 6 8 C3.69 8 1.38 8 -1 8 C-1.33 5.69 -1.66 3.38 -2 1 C-1.34 0.67 -0.68 0.34 0 0 Z " fill="#F7F7F7" transform="translate(111,82)"/>
<path d="M0 0 C0.33 0 0.66 0 1 0 C1 1.98 1 3.96 1 6 C-0.32 6.33 -1.64 6.66 -3 7 C-3.33 8.32 -3.66 9.64 -4 11 C-4 10.01 -4 9.02 -4 8 C-4.99 8 -5.98 8 -7 8 C-7 7.01 -7 6.02 -7 5 C-7.66 4.67 -8.32 4.34 -9 4 C-3.25 2 -3.25 2 -1 2 C-0.67 1.34 -0.34 0.68 0 0 Z " fill="#ADAAAB" transform="translate(137,80)"/>
<path d="M0 0 C0.66 0 1.32 0 2 0 C2 1.98 2 3.96 2 6 C2.78375 5.484375 3.5675 4.96875 4.375 4.4375 C5.24125 3.963125 6.1075 3.48875 7 3 C7.66 3.33 8.32 3.66 9 4 C8.01 6.64 7.02 9.28 6 12 C5.34 12 4.68 12 4 12 C4.33 10.35 4.66 8.7 5 7 C3.35 7.33 1.7 7.66 0 8 C-0.66 6.02 -1.32 4.04 -2 2 C-1.34 1.34 -0.68 0.68 0 0 Z " fill="#97515A" transform="translate(172,40)"/>
<path d="M0 0 C1.65 0 3.3 0 5 0 C5.33 0.66 5.66 1.32 6 2 C5.01 2 4.02 2 3 2 C3 2.66 3 3.32 3 4 C3.66 4 4.32 4 5 4 C5 4.66 5 5.32 5 6 C4.01 6 3.02 6 2 6 C2 6.99 2 7.98 2 9 C2.99 9 3.98 9 5 9 C5 9.66 5 10.32 5 11 C2.03 10.505 2.03 10.505 -1 10 C-0.67 6.7 -0.34 3.4 0 0 Z " fill="#AD767E" transform="translate(111,200)"/>
<path d="M0 0 C1.2065625 0.0309375 1.2065625 0.0309375 2.4375 0.0625 C3.0625 2.4375 3.0625 2.4375 3.4375 5.0625 C2.7775 5.7225 2.1175 6.3825 1.4375 7.0625 C-1.1875 6.6875 -1.1875 6.6875 -3.5625 6.0625 C-3.605221 4.39638095 -3.60313832 2.72867115 -3.5625 1.0625 C-2.5625 0.0625 -2.5625 0.0625 0 0 Z " fill="#F5F0F0" transform="translate(50.5625,155.9375)"/>
<path d="M0 0 C3.74123976 4.2954975 6.34151874 8.99900452 9 14 C8.01 14.33 7.02 14.66 6 15 C4.33333333 13.33333333 2.66666667 11.66666667 1 10 C1.33 9.01 1.66 8.02 2 7 C1.34 6.01 0.68 5.02 0 4 C0 2.68 0 1.36 0 0 Z " fill="#DBD9DA" transform="translate(154,82)"/>
<path d="M0 0 C2.125 0.375 2.125 0.375 4 1 C4 2.98 4 4.96 4 7 C2.34385343 7.38218767 0.67542976 7.71395102 -1 8 C-2 7 -2 7 -2.1875 4.5625 C-2 2 -2 2 0 0 Z " fill="#F7F3F3" transform="translate(128,27)"/>
<path d="M0 0 C0.66 0.33 1.32 0.66 2 1 C1.01 4.3 0.02 7.6 -1 11 C-1.33 11 -1.66 11 -2 11 C-2.33 9.35 -2.66 7.7 -3 6 C-4.98 6.33 -6.96 6.66 -9 7 C-9 6.34 -9 5.68 -9 5 C-7.54735962 4.1361871 -6.0876837 3.28419546 -4.625 2.4375 C-3.40683594 1.72400391 -3.40683594 1.72400391 -2.1640625 0.99609375 C-1.44992188 0.66738281 -0.73578125 0.33867187 0 0 Z " fill="#9F5F67" transform="translate(79,185)"/>
<path d="M0 0 C0.66 0.33 1.32 0.66 2 1 C1.360625 1.70125 0.72125 2.4025 0.0625 3.125 C-2.16386102 6.22841233 -2.65080943 8.24620139 -3 12 C-3.99 12.33 -4.98 12.66 -6 13 C-7.22445284 14.62948064 -7.22445284 14.62948064 -8.1875 16.5625 C-8.785625 17.696875 -9.38375 18.83125 -10 20 C-10.33 19.34 -10.66 18.68 -11 18 C-9.70703125 15.13671875 -9.70703125 15.13671875 -7.8125 11.6875 C-7.20019531 10.55699219 -6.58789062 9.42648438 -5.95703125 8.26171875 C-4.16489082 5.27481803 -2.24655117 2.65501502 0 0 Z " fill="#A4A2A2" transform="translate(107,80)"/>
<path d="M0 0 C1.65 0.33 3.3 0.66 5 1 C4 3 4 3 2 4 C2.66 4.33 3.32 4.66 4 5 C4 5.66 4 6.32 4 7 C2.68 6.67 1.36 6.34 0 6 C0 6.99 0 7.98 0 9 C0.99 9 1.98 9 3 9 C3 9.66 3 10.32 3 11 C0.83125748 10.49396008 -0.99967627 10.00016187 -3 9 C-2.01 6.03 -1.02 3.06 0 0 Z " fill="#A66971" transform="translate(161,33)"/>
<path d="M0 0 C1.32 0.66 2.64 1.32 4 2 C4 2.66 4 3.32 4 4 C5.65 4 7.3 4 9 4 C8.67 4.66 8.34 5.32 8 6 C6.35 6 4.7 6 3 6 C3.33 7.32 3.66 8.64 4 10 C1.69 8.02 -0.62 6.04 -3 4 C0 4 0 4 2 5 C2 4.01 2 3.02 2 2 C1.01 1.67 0.02 1.34 -1 1 C-0.67 0.67 -0.34 0.34 0 0 Z " fill="#99545D" transform="translate(191,173)"/>
<path d="M0 0 C0 0.99 0 1.98 0 3 C-1.62935241 4.37868281 -3.29749607 5.71274093 -5 7 C-5.33 7.66 -5.66 8.32 -6 9 C-1.39257135 7.78955868 -1.39257135 7.78955868 3 6 C2.34 7.32 1.68 8.64 1 10 C-0.98 10 -2.96 10 -5 10 C-5.33 10.66 -5.66 11.32 -6 12 C-7.5625 10.75 -7.5625 10.75 -9 9 C-9 6.9375 -9 6.9375 -8 5 C-5.625 3.9375 -5.625 3.9375 -3 3 C-1.22722741 1.47992158 -1.22722741 1.47992158 0 0 Z " fill="#908983" transform="translate(89,133)"/>
<path d="M0 0 C0.66 0 1.32 0 2 0 C2.33 0.99 2.66 1.98 3 3 C2.01 3.33 1.02 3.66 0 4 C-0.061875 4.78375 -0.12375 5.5675 -0.1875 6.375 C-1.3032335 11.35288793 -3.60306227 15.52453694 -6 20 C-5.34 20.33 -4.68 20.66 -4 21 C-5.65 20.67 -7.3 20.34 -9 20 C-8.34 19.67 -7.68 19.34 -7 19 C-6.27718367 17.0196008 -5.62162938 15.01445312 -5 13 C-4.13696393 10.703801 -3.26183904 8.4121112 -2.375 6.125 C-1.92898437 4.97257813 -1.48296875 3.82015625 -1.0234375 2.6328125 C-0.68570313 1.76398438 -0.34796875 0.89515625 0 0 Z " fill="#ADABAB" transform="translate(103,125)"/>
<path d="M0 0 C0.33 0 0.66 0 1 0 C2.51598894 8.13121341 2.15986509 17.3138894 -2.609375 24.38671875 C-3.06828125 24.91910156 -3.5271875 25.45148438 -4 26 C-3.5359375 24.081875 -3.5359375 24.081875 -3.0625 22.125 C-2.11515921 17.88198071 -1.59733984 13.70174108 -1.21875 9.375 C-0.92893982 6.22848949 -0.47528719 3.12331585 0 0 Z " fill="#AEADAD" transform="translate(107,117)"/>
<path d="M0 0 C0.66 0 1.32 0 2 0 C0.41977816 5.13572098 -1.44592138 10.26098693 -4 15 C-4.99 15.495 -4.99 15.495 -6 16 C-6.6796875 14.3203125 -6.6796875 14.3203125 -7 12 C-5.8203125 9.4921875 -5.8203125 9.4921875 -4.125 6.875 C-3.57070312 6.00617188 -3.01640625 5.13734375 -2.4453125 4.2421875 C-1.96835938 3.50226563 -1.49140625 2.76234375 -1 2 C-0.67 1.34 -0.34 0.68 0 0 Z " fill="#C9C8C8" transform="translate(92,108)"/>
<path d="M0 0 C4.455 0.99 4.455 0.99 9 2 C9 2.66 9 3.32 9 4 C7.35 4 5.7 4 4 4 C4.33 5.65 4.66 7.3 5 9 C4.34 9 3.68 9 3 9 C0 3.375 0 3.375 0 0 Z " fill="#A06169" transform="translate(58,60)"/>
<path d="M0 0 C3.44004627 1.14668209 4.26635169 1.87943304 6 5 C5.6875 7.75 5.6875 7.75 5 10 C2.8125 10.8125 2.8125 10.8125 0 11 C-2.8125 8.6875 -2.8125 8.6875 -5 6 C-5 5.34 -5 4.68 -5 4 C-4.34 4 -3.68 4 -3 4 C-2.319375 4.9590625 -2.319375 4.9590625 -1.625 5.9375 C0.21084873 8.2676157 1.12909413 8.60401298 4 9 C2.80100302 5.9168649 1.52299523 2.93720508 0 0 Z " fill="#9D5B64" transform="translate(70,47)"/>
<path d="M0 0 C1.1446875 0.2475 1.1446875 0.2475 2.3125 0.5 C5.03596236 1.09145396 5.03596236 1.09145396 8 1 C6.125 5.75 6.125 5.75 5 8 C2 7 2 7 0 4 C0 2.68 0 1.36 0 0 Z " fill="#F5F4F4" transform="translate(125,95)"/>
<path d="M0 0 C0.99 0 1.98 0 3 0 C4.25664978 2.90600261 5 4.79604584 5 8 C4.34 8 3.68 8 3 8 C3 7.34 3 6.68 3 6 C1.68 6 0.36 6 -1 6 C-1.33 6.66 -1.66 7.32 -2 8 C-1.125 1.125 -1.125 1.125 0 0 Z " fill="#554708" transform="translate(126,118)"/>
<path d="M0 0 C0.66 0 1.32 0 2 0 C2 0.99 2 1.98 2 3 C3.32 3 4.64 3 6 3 C6.33 2.01 6.66 1.02 7 0 C7 2.64 7 5.28 7 8 C6.34 8 5.68 8 5 8 C5 7.01 5 6.02 5 5 C4.01 5 3.02 5 2 5 C2 5.99 2 6.98 2 8 C1.34 8 0.68 8 0 8 C0 5.36 0 2.72 0 0 Z " fill="#453907" transform="translate(114,110)"/>
<path d="M0 0 C2.475 0.99 2.475 0.99 5 2 C4.88590407 3.45922693 4.75834456 4.91740598 4.625 6.375 C4.55539063 7.18710938 4.48578125 7.99921875 4.4140625 8.8359375 C4 11 4 11 2 13 C-0.0625 12.75 -0.0625 12.75 -2 12 C-2.33 11.34 -2.66 10.68 -3 10 C-1.68 10.33 -0.36 10.66 1 11 C0.67 9.35 0.34 7.7 0 6 C0.99 5.34 1.98 4.68 3 4 C2.01 3.34 1.02 2.68 0 2 C0 1.34 0 0.68 0 0 Z " fill="#B57371" transform="translate(40,101)"/>
<path d="M0 0 C0.66 0 1.32 0 2 0 C2.33 3.3 2.66 6.6 3 10 C-0.0831351 8.80100302 -3.06279492 7.52299523 -6 6 C-6 5.34 -6 4.68 -6 4 C-3.03824877 4.61277612 -1.61941217 5.25372522 1 7 C0.67 4.69 0.34 2.38 0 0 Z " fill="#A3656D" transform="translate(176,186)"/>
<path d="M0 0 C0.33 0.66 0.66 1.32 1 2 C0.67 2.99 0.34 3.98 0 5 C-0.66 5 -1.32 5 -2 5 C-2.1546875 6.6396875 -2.1546875 6.6396875 -2.3125 8.3125 C-2.97307727 11.85559629 -3.2027092 12.93243723 -6 15 C-7.42969523 10.71091431 -5.96786016 7.94365525 -4 4 C-1.8125 1.5 -1.8125 1.5 0 0 Z " fill="#6C685B" transform="translate(143,137)"/>
<path d="M0 0 C1.9375 0.75 1.9375 0.75 4 2 C4.75 4.125 4.75 4.125 5 6 C3.68 6.33 2.36 6.66 1 7 C1.66 5.68 2.32 4.36 3 3 C2.05125 3.825 1.1025 4.65 0.125 5.5 C-2.75 8 -2.75 8 -5 8 C-3.62845496 5.04590299 -2.01136276 2.55991624 0 0 Z " fill="#9D5A63" transform="translate(187,49)"/>
<path d="M0 0 C1.65 0 3.3 0 5 0 C4.67 0.66 4.34 1.32 4 2 C3.01 1.67 2.02 1.34 1 1 C1.33 1.556875 1.66 2.11375 2 2.6875 C3.14011312 5.32401158 3.2306312 7.15554856 3 10 C2 11 2 11 -0.5625 11.0625 C-1.366875 11.041875 -2.17125 11.02125 -3 11 C-2.67 10.01 -2.34 9.02 -2 8 C-0.515 8.99 -0.515 8.99 1 10 C0.4740625 8.9171875 0.4740625 8.9171875 -0.0625 7.8125 C-1.10409017 4.6877295 -0.89096572 3.11838004 0 0 Z " fill="#99545D" transform="translate(150,28)"/>
<path d="M0 0 C0.99 0 1.98 0 3 0 C3 2.97 3 5.94 3 9 C3.99 9.33 4.98 9.66 6 10 C4.02 10 2.04 10 0 10 C0 6.7 0 3.4 0 0 Z " fill="#AA7078" transform="translate(121,201)"/>
<path d="M0 0 C1.32 0.99 2.64 1.98 4 3 C3.42655063 5.86724686 3.1385485 6.8614515 1 9 C0.67 8.67 0.34 8.34 0 8 C-0.66 8.66 -1.32 9.32 -2 10 C-2.66 9.67 -3.32 9.34 -4 9 C-3.67 7.68 -3.34 6.36 -3 5 C-2.34 5 -1.68 5 -1 5 C-0.67 3.35 -0.34 1.7 0 0 Z " fill="#B1B0B0" transform="translate(101,115)"/>
<path d="M0 0 C0.99 0.33 1.98 0.66 3 1 C2 4 2 4 0 5 C0.34786708 6.97536745 0.34786708 6.97536745 1 9 C1.66 9.33 2.32 9.66 3 10 C3 9.34 3 8.68 3 8 C3.66 8 4.32 8 5 8 C4.67 8.99 4.34 9.98 4 11 C-0.875 10.125 -0.875 10.125 -2 9 C-2.1875 5.5625 -2.1875 5.5625 -2 2 C-1.34 1.34 -0.68 0.68 0 0 Z " fill="#D2AAA9" transform="translate(214,103)"/>
<path d="M0 0 C0.99 0.33 1.98 0.66 3 1 C3 2.65 3 4.3 3 6 C1.02 6.99 1.02 6.99 -1 8 C-1 7.34 -1 6.68 -1 6 C-1.99 5.67 -2.98 5.34 -4 5 C-2.68 3.35 -1.36 1.7 0 0 Z " fill="#DADADA" transform="translate(106,106)"/>
<path d="M0 0 C1.74627478 2.61941217 2.38722388 4.03824877 3 7 C3.66 6.67 4.32 6.34 5 6 C5 6.99 5 7.98 5 9 C3.02 9.33 1.04 9.66 -1 10 C-2.1875 8.375 -2.1875 8.375 -3 6 C-1.625 2.75 -1.625 2.75 0 0 Z " fill="#A1A0A0" transform="translate(128,87)"/>
<path d="M0 0 C0.33 0.99 0.66 1.98 1 3 C2.32 3 3.64 3 5 3 C5 3.66 5 4.32 5 5 C4.34 5 3.68 5 3 5 C3 5.99 3 6.98 3 8 C3.99 7.67 4.98 7.34 6 7 C6 7.66 6 8.32 6 9 C4.02 9.33 2.04 9.66 0 10 C0 6.7 0 3.4 0 0 Z " fill="#AC747C" transform="translate(113,28)"/>
<path d="M0 0 C0.66 0 1.32 0 2 0 C2 1.32 2 2.64 2 4 C3.98 4.99 5.96 5.98 8 7 C8 7.66 8 8.32 8 9 C5.03 8.01 2.06 7.02 -1 6 C-1 6.99 -1 7.98 -1 9 C-1.66 9 -2.32 9 -3 9 C-2.01 6.03 -1.02 3.06 0 0 Z " fill="#A16069" transform="translate(206,146)"/>
<path d="M0 0 C2.375 0.25 2.375 0.25 5 1 C6.3125 3.0625 6.3125 3.0625 7 5 C4.69 5.33 2.38 5.66 0 6 C0 4.02 0 2.04 0 0 Z " fill="#DCC6C9" transform="translate(128,214)"/>
<path d="M0 0 C0.99 0.33 1.98 0.66 3 1 C1.65365543 5.4062186 -0.19374374 7.43077702 -4 10 C-4.66 10 -5.32 10 -6 10 C-6 9.34 -6 8.68 -6 8 C-5.34 8 -4.68 8 -4 8 C-3.71125 7.236875 -3.4225 6.47375 -3.125 5.6875 C-2 3 -2 3 0 0 Z " fill="#F0F0F0" transform="translate(98,97)"/>
<path d="M0 0 C0.66 1.32 1.32 2.64 2 4 C1.01 4 0.02 4 -1 4 C-1 4.99 -1 5.98 -1 7 C-1.66 7 -2.32 7 -3 7 C-3 7.66 -3 8.32 -3 9 C-4.32 8.34 -5.64 7.68 -7 7 C-2.25 1.125 -2.25 1.125 0 0 Z " fill="#F5F5F5" transform="translate(146,91)"/>
<path d="M0 0 C0.66 0 1.32 0 2 0 C2 0.66 2 1.32 2 2 C1.34 2 0.68 2 0 2 C0.66 2.66 1.32 3.32 2 4 C2.66 3.67 3.32 3.34 4 3 C3.67 4.65 3.34 6.3 3 8 C3.99 8.33 4.98 8.66 6 9 C2 9 2 9 -0.3125 7.25 C-2 5 -2 5 -1.8125 2.8125 C-1 1 -1 1 0 0 Z " fill="#9F5E67" transform="translate(183,180)"/>
<path d="M0 0 C1.65 0 3.3 0 5 0 C5.22174933 1.45635371 5.42698698 2.91522956 5.625 4.375 C5.74101562 5.18710938 5.85703125 5.99921875 5.9765625 6.8359375 C5.98429688 7.55007812 5.99203125 8.26421875 6 9 C5.34 9.66 4.68 10.32 4 11 C3.01 10.67 2.02 10.34 1 10 C1.66 9.67 2.32 9.34 3 9 C3.45218674 5.12128967 3.45218674 5.12128967 1.5 3.375 C1.005 2.92125 0.51 2.4675 0 2 C0 1.34 0 0.68 0 0 Z " fill="#C7880B" transform="translate(157,154)"/>
<path d="M0 0 C0.66 0 1.32 0 2 0 C2.66 2.64 3.32 5.28 4 8 C2.68 7.34 1.36 6.68 0 6 C-0.66 6.99 -1.32 7.98 -2 9 C-2.6875 6.75 -2.6875 6.75 -3 4 C-1.6875 1.6875 -1.6875 1.6875 0 0 Z " fill="#B7B6B6" transform="translate(147,133)"/>
<path d="M0 0 C1.32 0 2.64 0 4 0 C4 0.66 4 1.32 4 2 C5.65 2 7.3 2 9 2 C7.68 2.33 6.36 2.66 5 3 C4.67 4.32 4.34 5.64 4 7 C3.01 7 2.02 7 1 7 C1.33 5.68 1.66 4.36 2 3 C1.34 2.67 0.68 2.34 0 2 C-0.33 2.99 -0.66 3.98 -1 5 C-1.33 4.34 -1.66 3.68 -2 3 C-1.34 2.01 -0.68 1.02 0 0 Z " fill="#A7A5A5" transform="translate(104,100)"/>
<path d="M0 0 C0.99 0 1.98 0 3 0 C3.268125 0.598125 3.53625 1.19625 3.8125 1.8125 C4.98493467 3.97224808 6.19369282 5.35790256 8 7 C6.1875 7.6875 6.1875 7.6875 4 8 C2.25 6.5625 2.25 6.5625 1 5 C1.33 4.34 1.66 3.68 2 3 C1.01 3 0.02 3 -1 3 C-0.67 2.01 -0.34 1.02 0 0 Z " fill="#F3F3F3" transform="translate(111,92)"/>
<path d="M0 0 C0.268125 0.639375 0.53625 1.27875 0.8125 1.9375 C1.88667752 4.33131686 1.88667752 4.33131686 5 5 C4.67 6.32 4.34 7.64 4 9 C1.03 8.505 1.03 8.505 -2 8 C-1.125 2.25 -1.125 2.25 0 0 Z " fill="#CACACA" transform="translate(101,91)"/>
<path d="M0 0 C1.11375 0.4640625 1.11375 0.4640625 2.25 0.9375 C4.50692176 1.8094925 6.6450153 2.47667007 9 3 C9.66 2.01 10.32 1.02 11 0 C11.33 0.99 11.66 1.98 12 3 C10.68 4.32 9.36 5.64 8 7 C6.66144944 6.21718695 5.32926356 5.42348123 4 4.625 C3.2575 4.18414062 2.515 3.74328125 1.75 3.2890625 C1.1725 2.86367187 0.595 2.43828125 0 2 C0 1.34 0 0.68 0 0 Z " fill="#9A545E" transform="translate(48,71)"/>
<path d="M0 0 C0.556875 0.28875 1.11375 0.5775 1.6875 0.875 C4.08494645 2.0413253 6.51596939 3.0339881 9 4 C9 4.99 9 5.98 9 7 C5.7 7 2.4 7 -1 7 C-1 6.34 -1 5.68 -1 5 C-0.01 4.34 0.98 3.68 2 3 C1.34 2.01 0.68 1.02 0 0 Z " fill="#9A565E" transform="translate(209,137)"/>
<path d="M0 0 C2 3 2 3 2 5 C3.94999129 4.80528889 3.94999129 4.80528889 6 4 C7.28436734 2.0162233 7.28436734 2.0162233 8 0 C8.33 1.32 8.66 2.64 9 4 C6.64031256 6.09749995 5.45383006 6.96905704 2.25 7.1875 C1.13625 7.0946875 1.13625 7.0946875 0 7 C-1.125 2.25 -1.125 2.25 0 0 Z " fill="#A56971" transform="translate(98,34)"/>
<path d="M0 0 C0 0.66 0 1.32 0 2 C-0.99 2 -1.98 2 -3 2 C-3.66 2.66 -4.32 3.32 -5 4 C-5.99 3.01 -6.98 2.02 -8 1 C-8 2.32 -8 3.64 -8 5 C-8.66 5 -9.32 5 -10 5 C-10.33 3.35 -10.66 1.7 -11 0 C-3.57142857 -1.28571429 -3.57142857 -1.28571429 0 0 Z " fill="#D1B3B6" transform="translate(157,212)"/>
<path d="M0 0 C0.53625 0.474375 1.0725 0.94875 1.625 1.4375 C4.42842836 3.28186076 6.69620258 3.62456847 10 4 C9.34 6.31 8.68 8.62 8 11 C7.79375 10.443125 7.5875 9.88625 7.375 9.3125 C6.01718779 7.02890674 4.92057214 6.0008439 2.875 4.375 C1.92625 3.59125 0.9775 2.8075 0 2 C0 1.34 0 0.68 0 0 Z " fill="#918B82" transform="translate(168,132)"/>
<path d="M0 0 C1.75 0.9375 1.75 0.9375 2.75 3.9375 C2.09 3.9375 1.43 3.9375 0.75 3.9375 C0.75 3.2775 0.75 2.6175 0.75 1.9375 C-0.24 1.9375 -1.23 1.9375 -2.25 1.9375 C-1.92 3.2575 -1.59 4.5775 -1.25 5.9375 C-2.24 5.6075 -3.23 5.2775 -4.25 4.9375 C-5.24 5.5975 -6.23 6.2575 -7.25 6.9375 C-7.25 5.9475 -7.25 4.9575 -7.25 3.9375 C-3.22297297 -0.08952703 -3.22297297 -0.08952703 0 0 Z " fill="#9E5C65" transform="translate(198.25,59.0625)"/>
<path d="M0 0 C4.75 -0.125 4.75 -0.125 7 1 C7 2.32 7 3.64 7 5 C6.21625 4.814375 5.4325 4.62875 4.625 4.4375 C2.02910225 3.74037734 2.02910225 3.74037734 0 5 C0 3.35 0 1.7 0 0 Z " fill="#D3B6BA" transform="translate(109,213)"/>
<path d="M0 0 C0 0.66 0 1.32 0 2 C0.99 2 1.98 2 3 2 C2.67 2.99 2.34 3.98 2 5 C1.01 5 0.02 5 -1 5 C-2.32 7.31 -3.64 9.62 -5 12 C-5.33 11.34 -5.66 10.68 -6 10 C-5.22265625 8.0546875 -5.22265625 8.0546875 -4.0625 5.875 C-3.49208984 4.78832031 -3.49208984 4.78832031 -2.91015625 3.6796875 C-2.60980469 3.12539062 -2.30945313 2.57109375 -2 2 C-2.66 1.67 -3.32 1.34 -4 1 C-2 0 -2 0 0 0 Z " fill="#797878" transform="translate(96,106)"/>
<path d="M0 0 C0 0.66 0 1.32 0 2 C-6.23182639 3.03863773 -11.74692761 2.83288874 -18 2 C-18 1.67 -18 1.34 -18 1 C-15.93769732 0.8309093 -13.8751477 0.66482867 -11.8125 0.5 C-10.08966797 0.36078125 -10.08966797 0.36078125 -8.33203125 0.21875 C-5.53927574 0.0354038 -2.79680188 -0.04213637 0 0 Z " fill="#3C281E" transform="translate(111,69)"/>
<path d="M0 0 C0.66 0 1.32 0 2 0 C1.67 1.65 1.34 3.3 1 5 C2.65 4.67 4.3 4.34 6 4 C6 4.66 6 5.32 6 6 C1.05 7.485 1.05 7.485 -4 9 C-4 8.34 -4 7.68 -4 7 C-3.525625 6.54625 -3.05125 6.0925 -2.5625 5.625 C-0.77906263 3.77022513 -0.4308007 2.49864408 0 0 Z " fill="#99545D" transform="translate(63,172)"/>
<path d="M0 0 C1.65 0.33 3.3 0.66 5 1 C4.67 2.32 4.34 3.64 4 5 C2.35 4.67 0.7 4.34 -1 4 C-0.67 2.68 -0.34 1.36 0 0 Z " fill="#7C1D1B" transform="translate(102,156)"/>
<path d="M0 0 C0.33 0.66 0.66 1.32 1 2 C2.32 1.34 3.64 0.68 5 0 C5 3.3 5 6.6 5 10 C4.01 9.34 3.02 8.68 2 8 C2 6.68 2 5.36 2 4 C1.34 4 0.68 4 0 4 C0 2.68 0 1.36 0 0 Z " fill="#8D8B8B" transform="translate(104,112)"/>
<path d="M0 0 C-1.5830577 4.2742558 -4.50568404 6.26531794 -8 9 C-8.33 8.01 -8.66 7.02 -9 6 C-7.8803014 4.99406757 -6.7540588 3.9954151 -5.625 3 C-4.68527344 2.1646875 -4.68527344 2.1646875 -3.7265625 1.3125 C-2 0 -2 0 0 0 Z " fill="#2E2017" transform="translate(158,175)"/>
<path d="M0 0 C1.32 0 2.64 0 4 0 C3.67 2.31 3.34 4.62 3 7 C2.01 7 1.02 7 0 7 C-0.93423645 3.98968256 -1.04449911 3.13349732 0 0 Z " fill="#78191B" transform="translate(157,159)"/>
<path d="M0 0 C2.53910197 0.38520564 3.72751123 0.70097943 5.484375 2.62890625 C5.90203125 3.26699219 6.3196875 3.90507813 6.75 4.5625 C7.17796875 5.20316406 7.6059375 5.84382813 8.046875 6.50390625 C8.36140625 6.99761719 8.6759375 7.49132812 9 8 C4.19741373 7.17904508 2.84138848 4.78851797 0 1 C0 0.67 0 0.34 0 0 Z " fill="#F6F6F6" transform="translate(157,98)"/>
<path d="M0 0 C-1.36983503 3.16115776 -1.9890638 3.9927092 -5 6 C-4.67 7.32 -4.34 8.64 -4 10 C-4.99 9.67 -5.98 9.34 -7 9 C-7.6875 6.9375 -7.6875 6.9375 -8 5 C-2.25 0 -2.25 0 0 0 Z " fill="#97505A" transform="translate(60,165)"/>
<path d="M0 0 C1.65 1.65 3.3 3.3 5 5 C3.125 9.75 3.125 9.75 2 12 C0.00214565 7.8794254 -0.17835515 4.54805635 0 0 Z " fill="#828080" transform="translate(117,143)"/>
<path d="M0 0 C0.99 0.33 1.98 0.66 3 1 C-0.44615385 6.78461538 -0.44615385 6.78461538 -3.25 7.875 C-3.8275 7.91625 -4.405 7.9575 -5 8 C-5 6 -5 6 -3.0625 4 C-2.381875 3.34 -1.70125 2.68 -1 2 C-0.67 1.34 -0.34 0.68 0 0 Z " fill="#EDECEC" transform="translate(104,102)"/>
<path d="M0 0 C5.75 1.75 5.75 1.75 8 4 C4.7 4 1.4 4 -2 4 C-1.34 2.68 -0.68 1.36 0 0 Z " fill="#EAE9EA" transform="translate(136,99)"/>
<path d="M0 0 C1.32 0.33 2.64 0.66 4 1 C4.125 3.375 4.125 3.375 4 6 C3.34 6.66 2.68 7.32 2 8 C-0.125 7.625 -0.125 7.625 -2 7 C-1.01 7 -0.02 7 1 7 C0.67 4.69 0.34 2.38 0 0 Z " fill="#F8F7F7" transform="translate(129,87)"/>
<path d="M0 0 C1.98 0 3.96 0 6 0 C6 0.66 6 1.32 6 2 C4.54293274 2.50367757 3.08429904 3.00282556 1.625 3.5 C0.40683594 3.91765625 0.40683594 3.91765625 -0.8359375 4.34375 C-3 5 -3 5 -5 5 C-5 4.34 -5 3.68 -5 3 C-3.35 2.67 -1.7 2.34 0 2 C0 1.34 0 0.68 0 0 Z " fill="#8A3944" transform="translate(46,146)"/>
<path d="M0 0 C0.99 0.33 1.98 0.66 3 1 C3 4.3 3 7.6 3 11 C2.01 11.33 1.02 11.66 0 12 C0 8.04 0 4.08 0 0 Z " fill="#A6A5A5" transform="translate(154,108)"/>
<path d="M0 0 C3.34998521 1.11666174 3.79340222 1.74694925 5.6875 4.5625 C6.12449219 5.20316406 6.56148437 5.84382813 7.01171875 6.50390625 C7.33785156 6.99761719 7.66398438 7.49132812 8 8 C5.6875 7.8125 5.6875 7.8125 3 7 C0 2.96551724 0 2.96551724 0 0 Z " fill="#F2F2F2" transform="translate(154,99)"/>
<path d="M0 0 C1.32 0 2.64 0 4 0 C4.2475 0.639375 4.495 1.27875 4.75 1.9375 C5.81562433 4.18741541 5.81562433 4.18741541 8.125 4.75 C8.74375 4.8325 9.3625 4.915 10 5 C7 7 7 7 4 7 C4 6.01 4 5.02 4 4 C3.34 4 2.68 4 2 4 C1.34 2.68 0.68 1.36 0 0 Z " fill="#A09F9F" transform="translate(109,95)"/>
<path d="M0 0 C0.86625 0.37125 0.86625 0.37125 1.75 0.75 C0.96625 1.306875 0.1825 1.86375 -0.625 2.4375 C-3.33704858 4.82668565 -4.21133543 6.35073413 -5.25 9.75 C-5.91 9.09 -6.57 8.43 -7.25 7.75 C-7.06155428 4.92331426 -6.19576361 3.68080185 -4.4375 1.4375 C-2.25 -0.25 -2.25 -0.25 0 0 Z " fill="#6E373F" transform="translate(121.25,86.25)"/>
<path d="M0 0 C1.98 0 3.96 0 6 0 C6.33 1.98 6.66 3.96 7 6 C6.67 5.34 6.34 4.68 6 4 C2.97065509 3.34227572 2.97065509 3.34227572 0 3 C0 2.01 0 1.02 0 0 Z " fill="#D8BDC1" transform="translate(112,27)"/>
<path d="M0 0 C1.98 0 3.96 0 6 0 C6.33 1.65 6.66 3.3 7 5 C3 5 3 5 1.25 3.625 C0 2 0 2 0 0 Z " fill="#D1B3B7" transform="translate(101,212)"/>
<path d="M0 0 C0.33 0 0.66 0 1 0 C1.375 3.25 1.375 3.25 1 7 C-2 9.4375 -2 9.4375 -5 11 C-5.66 10.34 -6.32 9.68 -7 9 C-6.030625 8.443125 -5.06125 7.88625 -4.0625 7.3125 C-0.81008721 5.31964195 -0.81008721 5.31964195 -0.125 2.25 C-0.08375 1.5075 -0.0425 0.765 0 0 Z " fill="#443E38" transform="translate(148,178)"/>
<path d="M0 0 C0.66 0 1.32 0 2 0 C2 3.3 2 6.6 2 10 C1.34 10 0.68 10 0 10 C-0.19412181 8.52168779 -0.38012131 7.04230684 -0.5625 5.5625 C-0.66691406 4.73878906 -0.77132812 3.91507813 -0.87890625 3.06640625 C-0.91886719 2.38449219 -0.95882812 1.70257813 -1 1 C-0.67 0.67 -0.34 0.34 0 0 Z " fill="#C3840C" transform="translate(97,155)"/>
<path d="M0 0 C0.66 0.33 1.32 0.66 2 1 C2 2.65 2 4.3 2 6 C0.35 6.33 -1.3 6.66 -3 7 C-1.125 2.25 -1.125 2.25 0 0 Z " fill="#B8B6B6" transform="translate(133,96)"/>
<path d="M0 0 C-0.375 2.9375 -0.375 2.9375 -1 6 C-1.99 6.495 -1.99 6.495 -3 7 C-3.103125 6.21625 -3.20625 5.4325 -3.3125 4.625 C-3.77595022 1.66954819 -3.77595022 1.66954819 -7 0 C-2.25 -1.125 -2.25 -1.125 0 0 Z " fill="#A6A5A5" transform="translate(117,81)"/>
<path d="M0 0 C1.875 0.5625 1.875 0.5625 4 2 C5.25 5.625 5.25 5.625 6 9 C5.34 9 4.68 9 4 9 C0 2.25 0 2.25 0 0 Z " fill="#964E58" transform="translate(164,193)"/>
<path d="M0 0 C0.99 0 1.98 0 3 0 C3 1.65 3 3.3 3 5 C1.02 5.99 1.02 5.99 -1 7 C-0.67 4.69 -0.34 2.38 0 0 Z " fill="#C0BFBF" transform="translate(109,134)"/>
<path d="M0 0 C0.66 0.66 1.32 1.32 2 2 C0.35 3.32 -1.3 4.64 -3 6 C-2.34 6.66 -1.68 7.32 -1 8 C-2.875 7.6875 -2.875 7.6875 -5 7 C-5.66 6.01 -6.32 5.02 -7 4 C-4.69 3.34 -2.38 2.68 0 2 C0 1.34 0 0.68 0 0 Z " fill="#9F9581" transform="translate(79,124)"/>
<path d="M0 0 C0.66 0 1.32 0 2 0 C4.1875 2.3125 4.1875 2.3125 6 5 C5.67 5.99 5.34 6.98 5 8 C2.5 5.6875 2.5 5.6875 0 3 C0 2.01 0 1.02 0 0 Z " fill="#F2F1F1" transform="translate(152,102)"/>
<path d="M0 0 C2.31 0.33 4.62 0.66 7 1 C7 1.99 7 2.98 7 4 C6.34 4.66 5.68 5.32 5 6 C4.01 5.67 3.02 5.34 2 5 C2.66 4.34 3.32 3.68 4 3 C2.68 2.01 1.36 1.02 0 0 Z " fill="#A89F8C" transform="translate(178,125)"/>
<path d="M0 0 C0.33 0 0.66 0 1 0 C1 1.98 1 3.96 1 6 C-0.32 6.33 -1.64 6.66 -3 7 C-3.33 5.68 -3.66 4.36 -4 3 C-3.01 2.67 -2.02 2.34 -1 2 C-0.67 1.34 -0.34 0.68 0 0 Z " fill="#A09D9D" transform="translate(137,80)"/>
<path d="M0 0 C1.32 0.33 2.64 0.66 4 1 C4 1.99 4 2.98 4 4 C2.68 4.33 1.36 4.66 0 5 C0 3.35 0 1.7 0 0 Z " fill="#D9C0C3" transform="translate(200,169)"/>
<path d="M0 0 C0.66 0.66 1.32 1.32 2 2 C1.67 2.66 1.34 3.32 1 4 C2.98 3.67 4.96 3.34 7 3 C6.67 3.99 6.34 4.98 6 6 C3.03 5.505 3.03 5.505 0 5 C-0.5625 3.0625 -0.5625 3.0625 -1 1 C-0.67 0.67 -0.34 0.34 0 0 Z " fill="#C1A006" transform="translate(117,134)"/>
<path d="M0 0 C0.33 0.99 0.66 1.98 1 3 C-0.4375 5.1875 -0.4375 5.1875 -2 7 C-3.32 6.67 -4.64 6.34 -6 6 C-5.01 5.01 -4.02 4.02 -3 3 C-2.67 3.33 -2.34 3.66 -2 4 C-1.34 2.68 -0.68 1.36 0 0 Z " fill="#DFDEDE" transform="translate(95,119)"/>
<path d="M0 0 C1.65 1.32 3.3 2.64 5 4 C3.68 4 2.36 4 1 4 C1 5.98 1 7.96 1 10 C0.67 10 0.34 10 0 10 C-0.19412181 8.52168779 -0.38012131 7.04230684 -0.5625 5.5625 C-0.66691406 4.73878906 -0.77132812 3.91507812 -0.87890625 3.06640625 C-0.91886719 2.38449219 -0.95882812 1.70257813 -1 1 C-0.67 0.67 -0.34 0.34 0 0 Z " fill="#D0AB07" transform="translate(121,108)"/>
<path d="M0 0 C3.36591866 1.44253657 5.51047079 3.33264727 8 6 C4.65750371 5.40312566 2.53563658 4.26396123 0 2 C0 1.34 0 0.68 0 0 Z " fill="#2C251D" transform="translate(108,181)"/>
<path d="M0 0 C1.5 1.375 1.5 1.375 3 3 C3 3.66 3 4.32 3 5 C1.35 5 -0.3 5 -2 5 C-1.34 3.35 -0.68 1.7 0 0 Z " fill="#D1AD05" transform="translate(139,113)"/>
<path d="M0 0 C0.66 1.32 1.32 2.64 2 4 C1.07451225 6.69933926 0.57626463 7.71186768 -2 9 C-1.34 6.03 -0.68 3.06 0 0 Z " fill="#3D2F22" transform="translate(183,75)"/>
<path d="M0 0 C0 0.66 0 1.32 0 2 C-2.31 2 -4.62 2 -7 2 C-7 1.34 -7 0.68 -7 0 C-4.3333581 -1.33332095 -2.83319697 -0.67102033 0 0 Z " fill="#AA7078" transform="translate(67,62)"/>
</svg>
