<svg version="1.1" id="Layer_1" xmlns="http://www.w3.org/2000/svg" xmlns:xlink="http://www.w3.org/1999/xlink" x="0px" y="0px"
	 width="100%" viewBox="0 0 350 111" enable-background="new 0 0 350 111" xml:space="preserve">
<path fill="#FEFDFD" opacity="1.000000" stroke="none" 
	d="
M280.000000,112.000000 
	C186.666672,112.000000 93.833359,112.000000 1.000025,112.000000 
	C1.000017,75.000015 1.000017,38.000031 1.000008,1.000035 
	C117.666634,1.000023 234.333267,1.000023 350.999939,1.000012 
	C350.999939,37.999966 350.999939,74.999931 350.999969,111.999954 
	C327.500000,112.000000 304.000000,112.000000 280.000000,112.000000 
M61.981209,92.378334 
	C61.040012,92.186401 60.098812,91.994476 59.106354,91.225189 
	C58.864506,90.528069 58.622662,89.830956 58.149300,88.413490 
	C58.236179,87.921646 58.323059,87.429810 58.896885,86.590309 
	C59.606049,85.375175 60.315216,84.160042 61.730923,82.943001 
	C61.838295,81.832611 61.687603,80.611336 62.107117,79.635078 
	C62.963024,77.643295 64.125992,75.783463 65.782974,74.217628 
	C69.778107,79.240379 70.263626,72.389244 73.022064,72.929672 
	C73.681786,74.620125 74.341499,76.310570 74.338844,78.102730 
	C74.016747,79.892204 73.694641,81.681679 73.325386,83.733116 
	C75.063843,82.989609 76.177742,82.513214 77.611122,82.789711 
	C77.623856,83.876350 77.636589,84.962982 77.248032,86.571968 
	C76.458939,88.330070 75.669853,90.088173 74.229630,91.980499 
	C72.503548,93.000542 70.777466,94.020584 70.079948,94.432793 
	C71.656281,99.915421 73.048592,104.757973 74.444031,109.611427 
	C75.570824,109.313881 76.983513,108.940834 78.469421,108.548454 
	C78.352852,106.887947 78.243355,105.328262 78.159988,104.140831 
	C80.964241,103.386719 83.402542,102.731018 85.967644,102.800606 
	C86.664009,103.470245 87.768417,104.835083 87.994019,104.702667 
	C90.416382,103.280884 92.700012,101.622734 95.000000,100.003502 
	C95.000000,100.003502 95.022781,100.022873 95.754898,100.022545 
	C101.798775,97.815834 105.935928,93.500519 109.000610,88.004402 
	C109.000610,88.004402 109.024033,88.016197 109.634392,87.712288 
	C117.415001,78.353180 120.796349,67.112106 120.724442,55.421974 
	C120.632423,40.461197 114.674286,27.571863 103.596542,16.939373 
	C86.745956,0.766092 57.800865,-1.889237 38.723221,11.593258 
	C37.786419,12.255311 36.978554,13.099806 36.110649,13.859346 
	C36.364239,14.205323 36.617825,14.551299 36.871414,14.897276 
	C38.873051,13.624916 40.752579,12.060654 42.909100,11.158545 
	C45.282516,10.165705 47.910599,9.781665 50.199619,9.567360 
	C50.199619,9.567360 50.092579,10.045662 49.941090,10.738662 
	C50.606602,11.834419 51.272110,12.930177 51.985733,14.007891 
	C51.985733,14.007891 51.955772,14.049592 51.738083,14.782903 
	C52.162579,15.035433 52.587078,15.287963 53.490211,15.812681 
	C54.041256,15.862849 54.592297,15.913016 54.696606,16.511791 
	C52.120182,17.997171 49.543758,19.482552 46.260948,21.057894 
	C44.554256,22.829561 42.847565,24.601229 40.540283,26.655405 
	C39.843819,28.601824 39.147350,30.548243 38.248718,31.767445 
	C38.040501,30.740173 37.832283,29.712902 37.581196,28.474127 
	C30.274157,34.223282 23.549665,50.547962 27.069603,64.808823 
	C29.007311,72.659332 33.033680,80.100128 36.897305,81.242584 
	C36.495598,80.498650 36.243004,79.907562 35.886192,79.388046 
	C26.086327,65.119667 25.836956,50.461044 34.297199,35.580952 
	C35.073746,34.215145 37.046333,33.529358 38.405678,33.232513 
	C39.230892,35.567245 40.056110,37.901978 40.904694,40.937687 
	C41.030033,41.860466 41.155369,42.783241 41.033924,44.145691 
	C41.155930,44.441433 41.277935,44.737179 41.557682,45.931503 
	C41.496483,49.281044 41.435280,52.630581 41.071705,56.403484 
	C41.177273,56.716839 41.282837,57.030193 41.514786,57.959560 
	C41.541237,58.586845 41.567688,59.214134 40.798508,59.942558 
	C37.593407,62.574879 39.117447,64.360580 42.633980,65.976730 
	C43.396843,65.981003 44.159706,65.985275 44.989586,66.504349 
	C44.994297,66.677330 44.999004,66.850304 44.368408,67.075699 
	C43.724251,67.462891 43.080093,67.850075 41.641510,68.714767 
	C43.381260,68.868080 44.172676,68.937820 44.898605,69.656105 
	C44.848782,70.086418 44.798962,70.516739 44.299648,71.284477 
	C44.553017,71.846275 44.806385,72.408081 45.689312,73.315125 
	C46.455830,75.226860 47.222347,77.138596 47.999168,79.625999 
	C48.291027,80.087936 48.582882,80.549881 49.570881,81.236023 
	C50.008297,82.069893 50.445713,82.903755 50.955734,84.330841 
	C51.650875,84.881645 52.346016,85.432449 53.621857,86.198662 
	C54.418652,87.121910 55.215443,88.045166 56.061504,89.650757 
	C57.021851,90.465614 57.982197,91.280464 59.377583,92.583130 
	C60.222889,92.752968 61.068192,92.922813 61.943027,93.698967 
	C61.956799,94.102051 61.970566,94.505135 61.183102,94.968674 
	C54.537239,92.402596 47.891373,89.836510 40.961967,87.160950 
	C45.172665,91.720230 50.419518,94.303619 56.101704,95.917542 
	C58.247871,96.527122 60.716824,96.000259 63.534336,95.595375 
	C63.051998,94.701660 62.569664,93.807953 61.981209,92.378334 
M22.367695,78.679298 
	C12.830458,59.837486 15.985540,41.871201 26.068085,23.983173 
	C24.816269,24.392101 24.463675,25.316492 23.921759,26.111898 
	C14.644370,39.728943 12.498250,54.672371 16.853443,70.272736 
	C18.324654,75.542633 22.176401,80.147964 24.965422,85.773926 
	C25.841906,87.193947 26.718388,88.613960 27.594870,90.033981 
	C28.182838,89.545341 28.770805,89.056702 29.358774,88.568069 
	C27.922167,87.366051 26.485561,86.164040 24.957333,84.260956 
	C24.300617,82.508888 23.643900,80.756821 23.782682,79.005035 
	C25.669491,79.147476 27.556299,79.289925 29.443106,79.432373 
	C27.280573,79.787140 25.322548,72.252937 22.367695,78.679298 
M125.007591,64.020378 
	C125.007439,70.169388 124.748245,76.332550 125.082962,82.463272 
	C125.392509,88.133026 126.497543,93.755402 126.947258,99.422836 
	C127.244675,103.170990 127.003578,106.961884 127.003578,110.666794 
	C190.296936,110.666794 253.080032,110.666794 315.746765,110.666794 
	C315.746765,94.585716 315.746765,78.835297 315.746765,63.102318 
	C314.004547,63.007309 312.512054,62.925919 311.171661,62.118370 
	C312.884491,60.481750 317.329926,61.330723 315.992615,55.953518 
	C315.992615,38.044125 315.992615,20.134733 315.992615,2.210038 
	C252.081314,2.210038 188.732620,2.210038 125.467812,2.210038 
	C124.970848,10.115239 124.450844,17.806501 124.017853,25.502657 
	C123.776703,29.789101 121.988342,33.769379 123.744003,38.469269 
	C125.277496,42.574417 124.571426,47.496998 124.997459,52.045074 
	C125.152885,53.704288 125.719528,55.324986 125.515572,57.342896 
	C125.363564,59.269161 125.211555,61.195427 125.007591,64.020378 
M38.068684,97.544640 
	C37.027199,96.732330 35.985714,95.920021 34.944229,95.107704 
	C34.674419,95.521553 34.404606,95.935402 34.134792,96.349251 
	C38.665051,100.865105 44.084141,103.859474 50.871029,104.509033 
	C46.780441,102.349915 42.689854,100.190796 38.068684,97.544640 
M33.925854,17.549778 
	C34.189690,16.908947 34.453529,16.268114 34.866959,15.263946 
	C32.392700,18.145166 30.289370,20.594454 28.186039,23.043741 
	C28.508894,23.351273 28.831749,23.658804 29.154604,23.966337 
	C30.589844,21.989073 32.025085,20.011808 33.925854,17.549778 
M65.918434,94.725960 
	C65.701622,95.111481 65.484810,95.497002 65.267998,95.882530 
	C65.600143,95.958740 65.932281,96.034950 66.264427,96.111160 
	C66.312546,95.599976 66.360672,95.088783 65.918434,94.725960 
z"/>
<path fill="#000000" opacity="1.000000" stroke="none" 
	d="
M126.098557,56.963253 
	C125.719528,55.324986 125.152885,53.704288 124.997459,52.045074 
	C124.571426,47.496998 125.277496,42.574417 123.744003,38.469269 
	C121.988342,33.769379 123.776703,29.789101 124.017853,25.502657 
	C124.450844,17.806501 124.970848,10.115239 125.467812,2.210038 
	C188.732620,2.210038 252.081314,2.210038 315.992615,2.210038 
	C315.992615,20.134733 315.992615,38.044125 315.510071,56.471382 
	C310.282990,56.661377 305.194336,55.080082 300.866089,56.268425 
	C292.049255,58.689110 283.366974,54.026531 274.681610,56.861000 
	C272.756744,57.489185 269.974945,56.908237 268.075256,55.933701 
	C262.168823,52.903755 255.422516,59.501522 249.772873,54.154106 
	C249.511429,53.906651 247.910492,55.490028 246.885956,55.564087 
	C241.245728,55.971783 235.592361,56.219185 229.940002,56.426479 
	C227.707794,56.508347 225.245392,55.714314 223.269699,56.407516 
	C216.566788,58.759319 210.609161,55.897018 209.501373,49.344776 
	C208.275848,51.236332 207.428223,53.607548 205.752151,54.924015 
	C202.146378,57.756142 197.973022,57.721401 193.725983,56.007504 
	C192.732056,55.606403 191.429413,55.794430 190.299835,55.944725 
	C188.392990,56.198448 186.519104,56.894115 184.616974,56.955093 
	C177.165329,57.193974 169.851974,55.752316 162.205536,56.541267 
	C156.499512,57.130009 150.384491,56.296780 144.402252,56.876629 
	C142.048615,57.104763 139.548920,55.472786 137.136826,55.532997 
	C133.447800,55.625076 129.777054,56.449631 126.098557,56.963253 
z"/>
<path fill="#000000" opacity="1.000000" stroke="none" 
	d="
M311.019562,62.844528 
	C312.512054,62.925919 314.004547,63.007309 315.746765,63.102318 
	C315.746765,78.835297 315.746765,94.585716 315.746765,110.666794 
	C253.080032,110.666794 190.296936,110.666794 127.003578,110.666794 
	C127.003578,106.961884 127.244675,103.170990 126.947258,99.422836 
	C126.497543,93.755402 125.392509,88.133026 125.082962,82.463272 
	C124.748245,76.332550 125.007439,70.169388 125.436928,63.514164 
	C133.108810,64.283676 141.412537,59.263634 147.960251,66.502991 
	C150.474426,63.638565 153.323303,60.784847 157.573883,64.801865 
	C157.949051,65.156433 159.129333,64.787903 159.888901,64.582382 
	C162.031677,64.002579 164.290070,62.553989 166.240967,62.904716 
	C168.445999,63.301121 170.366196,65.281853 172.165009,66.418617 
	C173.562698,65.380638 175.090332,63.338840 176.769806,63.205185 
	C179.493744,62.988407 182.319168,64.429337 185.098206,64.416328 
	C187.962875,64.402908 190.814133,63.423923 193.691895,63.011452 
	C194.437180,62.904625 195.255127,63.360657 196.048111,63.514904 
	C196.820633,63.665176 197.887711,64.146919 198.337021,63.817303 
	C201.567001,61.447826 204.402863,63.204380 207.671371,63.845360 
	C210.655487,64.430573 214.075851,62.292011 217.336380,62.161049 
	C219.185013,62.086792 221.180038,63.492611 222.955048,64.502609 
	C224.158798,65.187553 225.094849,66.342979 226.277847,67.401871 
	C229.353714,59.967968 236.000320,60.348644 245.695847,66.798767 
	C248.936935,65.159897 252.045853,62.377350 255.183670,62.344379 
	C258.272278,62.311924 261.390167,65.067413 264.543610,66.623482 
	C268.306580,60.835327 271.517700,60.547447 277.371918,65.558548 
	C278.973145,64.619873 280.495667,63.727356 282.474579,62.911484 
	C286.947815,62.937283 290.964661,62.886444 295.358093,62.913284 
	C297.184143,63.003998 298.634613,62.988377 300.082947,63.036690 
	C302.334229,63.111794 305.421570,62.348141 306.655365,63.519321 
	C309.021271,65.765091 309.653198,63.253120 311.019562,62.844528 
z"/>
<path fill="#E3E3E3" opacity="1.000000" stroke="none" 
	d="
M282.018188,62.834835 
	C280.495667,63.727356 278.973145,64.619873 277.371918,65.558548 
	C271.517700,60.547447 268.306580,60.835327 264.543610,66.623482 
	C261.390167,65.067413 258.272278,62.311924 255.183670,62.344379 
	C252.045853,62.377350 248.936935,65.159897 245.695847,66.798767 
	C236.000320,60.348644 229.353714,59.967968 226.277847,67.401871 
	C225.094849,66.342979 224.158798,65.187553 222.955048,64.502609 
	C221.180038,63.492611 219.185013,62.086792 217.336380,62.161049 
	C214.075851,62.292011 210.655487,64.430573 207.671371,63.845360 
	C204.402863,63.204380 201.567001,61.447826 198.337021,63.817303 
	C197.887711,64.146919 196.820633,63.665176 196.048111,63.514904 
	C195.255127,63.360657 194.437180,62.904625 193.691895,63.011452 
	C190.814133,63.423923 187.962875,64.402908 185.098206,64.416328 
	C182.319168,64.429337 179.493744,62.988407 176.769806,63.205185 
	C175.090332,63.338840 173.562698,65.380638 172.165009,66.418617 
	C170.366196,65.281853 168.445999,63.301121 166.240967,62.904716 
	C164.290070,62.553989 162.031677,64.002579 159.888901,64.582382 
	C159.129333,64.787903 157.949051,65.156433 157.573883,64.801865 
	C153.323303,60.784847 150.474426,63.638565 147.960251,66.502991 
	C141.412537,59.263634 133.108810,64.283676 125.462906,63.064823 
	C125.211555,61.195427 125.363564,59.269161 125.807068,57.153076 
	C129.777054,56.449631 133.447800,55.625076 137.136826,55.532997 
	C139.548920,55.472786 142.048615,57.104763 144.402252,56.876629 
	C150.384491,56.296780 156.499512,57.130009 162.205536,56.541267 
	C169.851974,55.752316 177.165329,57.193974 184.616974,56.955093 
	C186.519104,56.894115 188.392990,56.198448 190.299835,55.944725 
	C191.429413,55.794430 192.732056,55.606403 193.725983,56.007504 
	C197.973022,57.721401 202.146378,57.756142 205.752151,54.924015 
	C207.428223,53.607548 208.275848,51.236332 209.501373,49.344776 
	C210.609161,55.897018 216.566788,58.759319 223.269699,56.407516 
	C225.245392,55.714314 227.707794,56.508347 229.940002,56.426479 
	C235.592361,56.219185 241.245728,55.971783 246.885956,55.564087 
	C247.910492,55.490028 249.511429,53.906651 249.772873,54.154106 
	C255.422516,59.501522 262.168823,52.903755 268.075256,55.933701 
	C269.974945,56.908237 272.756744,57.489185 274.681610,56.861000 
	C283.366974,54.026531 292.049255,58.689110 300.866089,56.268425 
	C305.194336,55.080082 310.282990,56.661377 315.484863,56.931515 
	C317.329926,61.330723 312.884491,60.481750 311.095612,62.481453 
	C309.653198,63.253120 309.021271,65.765091 306.655365,63.519321 
	C305.421570,62.348141 302.334229,63.111794 300.082947,63.036690 
	C298.634613,62.988377 297.184143,63.003998 295.261078,62.529938 
	C290.437714,60.768024 286.085541,59.426903 282.018188,62.834835 
z"/>
<path fill="#F3EBEC" opacity="1.000000" stroke="none" 
	d="
M85.840843,102.075317 
	C83.402542,102.731018 80.964241,103.386719 78.159988,104.140831 
	C78.243355,105.328262 78.352852,106.887947 78.469421,108.548454 
	C76.983513,108.940834 75.570824,109.313881 74.444031,109.611427 
	C73.048592,104.757973 71.656281,99.915421 70.079948,94.432793 
	C70.777466,94.020584 72.503548,93.000542 74.613647,92.247406 
	C75.022484,92.963501 75.047318,93.412697 74.779091,93.945770 
	C74.329254,94.691788 74.172478,95.353935 74.103470,96.181427 
	C74.461220,96.227303 74.731201,96.107834 75.001160,95.994789 
	C75.001144,96.001221 74.988731,95.998055 75.405838,95.999298 
	C78.527718,95.735016 81.834526,96.908264 83.316925,92.853317 
	C85.063301,92.134895 86.504616,91.555557 88.045059,91.146225 
	C88.426567,91.204468 88.708931,91.092697 88.995064,90.991165 
	C88.998825,91.001396 88.981148,90.986649 89.304565,90.948456 
	C90.081284,90.267235 90.534576,89.624214 90.994400,88.990097 
	C91.000916,88.999001 90.984482,88.987404 91.351501,88.990211 
	C96.032570,87.398689 99.218193,84.772713 100.090904,79.735825 
	C100.368858,79.268425 100.608459,79.086403 101.264862,78.942474 
	C102.631851,77.499512 103.849792,76.200485 104.608482,74.673309 
	C106.175377,71.519241 107.497536,68.243599 109.292114,65.016266 
	C111.661819,66.081009 113.659782,67.147438 114.908150,67.813766 
	C111.848938,70.968399 109.138199,73.763680 106.050735,76.947441 
	C108.564644,78.466118 109.785339,79.203552 111.010353,80.193741 
	C111.016106,80.615013 111.017540,80.783531 110.659912,81.035446 
	C109.866707,82.418457 109.432564,83.718094 108.998787,85.392456 
	C109.007446,86.516861 109.015739,87.266533 109.024033,88.016197 
	C109.024033,88.016197 109.000610,88.004402 108.664452,88.037102 
	C103.893120,92.054153 99.457947,96.038513 95.022781,100.022873 
	C95.022781,100.022873 95.000000,100.003502 94.656548,100.039719 
	C91.489014,100.742401 88.664925,101.408859 85.840843,102.075317 
M75.951942,102.239639 
	C75.833885,101.808937 75.715836,101.378235 75.597786,100.947533 
	C75.384857,101.044838 75.171936,101.142143 74.959015,101.239449 
	C75.264702,101.745537 75.570389,102.251633 75.951942,102.239639 
z"/>
<path fill="#E7E7E7" opacity="1.000000" stroke="none" 
	d="
M111.018974,80.952057 
	C111.017540,80.783531 111.016106,80.615013 111.363876,80.171127 
	C112.429115,79.032227 113.351395,78.269341 113.829422,77.289673 
	C118.846039,67.008751 119.401741,55.951275 117.342812,45.143673 
	C114.111992,28.184778 103.693748,16.104761 88.037872,9.173465 
	C76.402481,4.022153 64.198029,2.540747 52.004097,8.037216 
	C51.996651,8.007381 52.055607,8.024894 51.806839,8.129837 
	C51.341366,8.518411 51.124664,8.802042 50.790306,9.122034 
	C50.672653,9.158396 50.427738,9.132401 50.427738,9.132401 
	C47.910599,9.781665 45.282516,10.165705 42.909100,11.158545 
	C40.752579,12.060654 38.873051,13.624916 36.871414,14.897276 
	C36.617825,14.551299 36.364239,14.205323 36.110649,13.859346 
	C36.978554,13.099806 37.786419,12.255311 38.723221,11.593258 
	C57.800865,-1.889237 86.745956,0.766092 103.596542,16.939373 
	C114.674286,27.571863 120.632423,40.461197 120.724442,55.421974 
	C120.796349,67.112106 117.415001,78.353180 109.329208,87.864243 
	C109.015739,87.266533 109.007446,86.516861 109.304161,85.227676 
	C110.079102,83.442795 110.549034,82.197426 111.018974,80.952057 
z"/>
<path fill="#6E0C18" opacity="1.000000" stroke="none" 
	d="
M77.649330,86.049622 
	C77.636589,84.962982 77.623856,83.876350 77.580368,82.114288 
	C77.355576,80.651688 77.161530,79.864510 76.959778,78.805878 
	C76.904274,78.359779 76.856483,78.185158 76.878899,77.606438 
	C76.267464,75.163826 75.585823,73.125305 75.016975,70.802429 
	C75.402374,69.765656 75.674973,69.013245 76.226776,68.085007 
	C77.275795,66.885429 78.045609,65.861679 78.923737,65.145569 
	C79.706642,65.905182 80.381233,66.357140 81.326530,66.938263 
	C82.047791,67.451355 82.498344,67.835297 82.977615,68.529526 
	C83.661514,69.145103 84.316696,69.450394 85.348557,69.772034 
	C86.827850,69.227158 87.930466,68.665924 89.362305,68.159935 
	C90.227295,69.146866 90.763062,70.078552 91.266129,71.345062 
	C91.167801,72.121307 91.102158,72.562721 91.021866,72.996841 
	C91.007210,72.989540 91.006119,73.022194 90.693657,73.095169 
	C90.303009,73.783203 90.224823,74.398247 90.089233,75.013031 
	C90.031822,75.012772 90.041100,75.127220 89.718689,75.219635 
	C89.173500,76.165993 88.950714,77.019936 88.788567,77.848015 
	C88.849197,77.822159 88.752678,77.732368 88.429550,77.823685 
	C87.116554,78.361084 86.126694,78.807182 85.091248,78.912880 
	C85.016045,78.345459 84.986420,78.118423 84.958580,77.544617 
	C84.344147,76.481392 83.727943,75.764938 82.749146,75.070412 
	C81.235809,76.942665 80.085083,78.792984 79.024582,80.498207 
	C81.692375,81.171646 83.403717,81.603645 85.082298,82.369171 
	C85.079765,83.148277 85.110001,83.593872 85.077423,84.045708 
	C85.014618,84.051956 85.039963,84.175621 84.808762,84.200516 
	C84.577560,84.225410 84.262917,84.566208 84.262917,84.566208 
	C84.262917,84.566208 84.401108,85.008949 84.041466,85.165688 
	C83.141991,86.185074 82.602150,87.047722 81.855774,87.736847 
	C81.320976,88.080055 80.992699,88.596802 80.443726,89.090164 
	C80.223030,89.066788 80.021446,89.462242 79.711731,89.274109 
	C78.817787,88.073853 78.233559,87.061737 77.649330,86.049622 
z"/>
<path fill="#6E0E19" opacity="1.000000" stroke="none" 
	d="
M58.409943,86.937965 
	C58.323059,87.429810 58.236179,87.921646 57.870140,88.855148 
	C57.064728,89.187340 56.538483,89.077881 56.012234,88.968414 
	C55.215443,88.045166 54.418652,87.121910 53.278988,85.797966 
	C52.251789,84.844055 51.567459,84.290840 50.883129,83.737625 
	C50.445713,82.903755 50.008297,82.069893 49.153378,80.845062 
	C48.486874,79.986183 48.237869,79.518257 47.988865,79.050331 
	C47.222347,77.138596 46.455830,75.226860 45.337189,72.801483 
	C44.906422,71.840919 44.827778,71.393982 44.749138,70.947052 
	C44.798962,70.516739 44.848782,70.086418 45.271095,69.337570 
	C46.095806,69.015991 46.548031,69.012932 47.085232,69.317055 
	C47.775467,69.695763 48.380722,69.767288 49.306053,69.904823 
	C50.053020,70.048264 50.479916,70.125702 51.085144,70.523224 
	C53.834938,69.909546 56.406391,68.975784 58.976921,68.489670 
	C58.917046,71.622498 58.858097,74.307686 58.454185,76.989899 
	C55.487221,76.531242 52.865215,76.075577 50.243214,75.619911 
	C49.944561,76.079742 49.645908,76.539574 49.347256,76.999405 
	C50.538986,78.571136 51.473202,80.588722 53.047539,81.498016 
	C53.688969,81.868484 55.708916,79.817200 57.123638,78.901703 
	C57.659420,78.554985 58.257076,78.303886 58.909756,78.278374 
	C59.048367,78.727005 59.103760,78.906479 58.970997,79.445221 
	C58.658539,82.182312 58.534241,84.560143 58.409943,86.937965 
z"/>
<path fill="#E7E7E7" opacity="1.000000" stroke="none" 
	d="
M24.940216,85.057007 
	C22.176401,80.147964 18.324654,75.542633 16.853443,70.272736 
	C12.498250,54.672371 14.644370,39.728943 23.921759,26.111898 
	C24.463675,25.316492 24.816269,24.392101 26.068085,23.983173 
	C15.985540,41.871201 12.830458,59.837486 22.683964,78.839569 
	C23.000231,78.999832 22.987183,79.004753 22.987183,79.004753 
	C23.643900,80.756821 24.300617,82.508888 24.975307,84.634491 
	C24.993282,85.008034 24.940216,85.057007 24.940216,85.057007 
z"/>
<path fill="#E7E7E7" opacity="1.000000" stroke="none" 
	d="
M38.463539,32.527802 
	C37.046333,33.529358 35.073746,34.215145 34.297199,35.580952 
	C25.836956,50.461044 26.086327,65.119667 35.886192,79.388046 
	C36.243004,79.907562 36.495598,80.498650 36.897305,81.242584 
	C33.033680,80.100128 29.007311,72.659332 27.069603,64.808823 
	C23.549665,50.547962 30.274157,34.223282 37.581196,28.474127 
	C37.832283,29.712902 38.040501,30.740173 38.320610,32.132561 
	C38.392498,32.497677 38.463539,32.527802 38.463539,32.527802 
z"/>
<path fill="#E5E4E3" opacity="1.000000" stroke="none" 
	d="
M46.967335,20.967932 
	C49.543758,19.482552 52.120182,17.997171 55.095741,16.246250 
	C55.494881,15.980709 55.849854,16.003014 56.290016,15.993580 
	C65.197556,15.984145 73.664932,15.984145 82.622169,15.984145 
	C83.322945,14.744738 84.416443,12.810729 85.509941,10.876719 
	C85.956207,10.927762 86.402473,10.978806 86.848747,11.029848 
	C86.604675,13.566902 86.360611,16.103956 86.114746,18.659632 
	C88.597809,20.330940 91.311707,22.157612 93.826813,24.240290 
	C92.163681,23.927282 90.599411,23.532722 89.251389,22.760630 
	C81.183121,18.139446 72.845131,14.747075 63.287712,16.950750 
	C57.840755,18.206669 52.438160,19.654959 47.003937,21.004528 
	C46.992290,20.992432 46.967335,20.967932 46.967335,20.967932 
z"/>
<path fill="#19170E" opacity="1.000000" stroke="none" 
	d="
M75.947578,68.260826 
	C75.674973,69.013245 75.402374,69.765656 74.743279,70.757950 
	C73.807678,71.388672 73.258568,71.779503 72.709457,72.170341 
	C70.263626,72.389244 69.778107,79.240379 65.346695,73.722061 
	C63.744072,71.540253 62.577724,69.854019 61.790947,68.130707 
	C65.479057,70.248634 67.090591,66.017311 70.198334,66.070892 
	C72.039360,66.708511 73.518967,67.331718 75.231476,68.044884 
	C75.464378,68.134834 75.947578,68.260826 75.947578,68.260826 
z"/>
<path fill="#B3B1B1" opacity="1.000000" stroke="none" 
	d="
M61.411377,68.167786 
	C62.577724,69.854019 63.744072,71.540253 65.036438,73.547882 
	C64.125992,75.783463 62.963024,77.643295 62.107117,79.635078 
	C61.687603,80.611336 61.838295,81.832611 61.362328,82.608322 
	C60.937370,81.828934 60.881008,81.384209 60.790909,80.708542 
	C60.584949,80.191765 60.334652,80.018967 59.930935,79.755859 
	C59.705009,79.275269 59.472862,79.119736 59.159157,79.085945 
	C59.103760,78.906479 59.048367,78.727005 58.944107,78.023193 
	C58.863209,77.330193 58.831181,77.161537 58.799149,76.992882 
	C58.858097,74.307686 58.917046,71.622498 59.043434,68.098343 
	C59.207481,67.012947 59.304081,66.766518 59.666649,66.604248 
	C60.270496,66.833626 60.608368,66.978859 60.954895,67.324387 
	C61.022480,67.801979 61.171757,68.016350 61.411377,68.167786 
z"/>
<path fill="#513831" opacity="1.000000" stroke="none" 
	d="
M40.881325,40.236710 
	C40.056110,37.901978 39.230892,35.567245 38.434608,32.880157 
	C38.463539,32.527802 38.392498,32.497677 38.421692,32.496170 
	C39.147350,30.548243 39.843819,28.601824 40.860229,26.476984 
	C41.180180,26.298563 41.251331,26.332674 41.465103,26.635695 
	C45.597145,28.573175 49.515415,30.207634 53.126793,31.940048 
	C49.014675,31.405014 45.209454,30.772026 40.925175,30.059349 
	C40.925175,32.514305 40.925175,35.281631 40.942360,38.414223 
	C40.933468,39.265232 40.907394,39.750973 40.881325,40.236710 
z"/>
<path fill="#452521" opacity="1.000000" stroke="none" 
	d="
M40.893009,40.587196 
	C40.907394,39.750973 40.933468,39.265232 41.267128,38.627590 
	C42.279938,44.645790 42.985161,50.815895 43.702003,57.087666 
	C44.385197,57.087666 45.519444,57.087666 46.921463,57.172485 
	C47.647400,57.576237 48.105564,57.895172 48.437805,58.349892 
	C48.545567,59.131405 48.779243,59.777138 49.013206,60.457466 
	C49.013489,60.492062 49.024235,60.421486 48.821602,60.167427 
	C48.408440,59.964485 48.197906,60.015610 47.609310,59.898315 
	C45.352207,59.767071 43.473175,59.804245 41.594139,59.841419 
	C41.567688,59.214134 41.541237,58.586845 41.589745,57.435944 
	C41.567829,56.601593 41.470955,56.290855 41.374081,55.980122 
	C41.435280,52.630581 41.496483,49.281044 41.612217,45.265335 
	C41.538071,44.301453 41.409389,44.003735 41.280708,43.706020 
	C41.155369,42.783241 41.030033,41.860466 40.893009,40.587196 
z"/>
<path fill="#E7E7E7" opacity="1.000000" stroke="none" 
	d="
M63.038639,95.991440 
	C60.716824,96.000259 58.247871,96.527122 56.101704,95.917542 
	C50.419518,94.303619 45.172665,91.720230 40.961967,87.160950 
	C47.891373,89.836510 54.537239,92.402596 61.686745,95.183090 
	C62.473137,95.595490 62.755886,95.793465 63.038639,95.991440 
z"/>
<path fill="#E7E7E7" opacity="1.000000" stroke="none" 
	d="
M38.333977,97.788155 
	C42.689854,100.190796 46.780441,102.349915 50.871029,104.509033 
	C44.084141,103.859474 38.665051,100.865105 34.134792,96.349251 
	C34.404606,95.935402 34.674419,95.521553 34.944229,95.107704 
	C35.985714,95.920021 37.027199,96.732330 38.333977,97.788155 
z"/>
<path fill="#E7E7E7" opacity="1.000000" stroke="none" 
	d="
M95.388840,100.022705 
	C99.457947,96.038513 103.893120,92.054153 108.675842,88.047089 
	C105.935928,93.500519 101.798775,97.815834 95.388840,100.022705 
z"/>
<path fill="#C7C5BD" opacity="1.000000" stroke="none" 
	d="
M41.196323,59.891991 
	C43.473175,59.804245 45.352207,59.767071 47.206573,60.115837 
	C45.411182,62.309982 43.640465,64.118187 41.869747,65.926392 
	C39.117447,64.360580 37.593407,62.574879 41.196323,59.891991 
z"/>
<path fill="#E7E7E7" opacity="1.000000" stroke="none" 
	d="
M33.693089,17.792160 
	C32.025085,20.011808 30.589844,21.989073 29.154604,23.966337 
	C28.831749,23.658804 28.508894,23.351273 28.186039,23.043741 
	C30.289370,20.594454 32.392700,18.145166 34.866959,15.263946 
	C34.453529,16.268114 34.189690,16.908947 33.693089,17.792160 
z"/>
<path fill="#E7E7E7" opacity="1.000000" stroke="none" 
	d="
M85.904243,102.437958 
	C88.664925,101.408859 91.489014,100.742401 94.667366,100.052643 
	C92.700012,101.622734 90.416382,103.280884 87.994019,104.702667 
	C87.768417,104.835083 86.664009,103.470245 85.904243,102.437958 
z"/>
<path fill="#F6F6F6" opacity="1.000000" stroke="none" 
	d="
M72.865761,72.550003 
	C73.258568,71.779503 73.807678,71.388672 74.630486,71.042313 
	C75.585823,73.125305 76.267464,75.163826 76.577271,77.603058 
	C75.803215,78.002106 75.400993,78.000443 74.999390,77.999390 
	C75.000000,78.000000 75.001213,78.001022 75.001213,78.001022 
	C74.341499,76.310570 73.681786,74.620125 72.865761,72.550003 
z"/>
<path fill="#F6F6F6" opacity="1.000000" stroke="none" 
	d="
M77.448685,86.310791 
	C78.233559,87.061737 78.817787,88.073853 79.662491,89.562622 
	C78.306038,91.313469 76.689095,92.587685 75.072144,93.861893 
	C75.047318,93.412697 75.022484,92.963501 74.939209,92.180290 
	C75.669853,90.088173 76.458939,88.330070 77.448685,86.310791 
z"/>
<path fill="#E7D8DA" opacity="1.000000" stroke="none" 
	d="
M55.849854,16.003014 
	C55.849854,16.003014 55.494881,15.980709 55.319111,15.971947 
	C54.592297,15.913016 54.041256,15.862849 53.268406,15.303556 
	C52.682991,14.546151 52.319382,14.297872 51.955772,14.049592 
	C51.955772,14.049592 51.985733,14.007891 52.091335,13.628000 
	C52.043106,12.169021 51.889271,11.089931 52.161903,9.988089 
	C53.428730,9.930199 54.269093,9.895061 55.116222,9.899742 
	C55.122993,9.939561 55.085857,10.011299 54.971317,10.369040 
	C54.915703,10.970170 54.974632,11.213557 55.025799,11.793352 
	C55.295307,13.420843 55.572582,14.711928 55.849854,16.003014 
z"/>
<path fill="#F6F6F6" opacity="1.000000" stroke="none" 
	d="
M60.824642,80.939491 
	C60.881008,81.384209 60.937370,81.828934 61.009056,82.609283 
	C60.315216,84.160042 59.606049,85.375175 58.653412,86.764137 
	C58.534241,84.560143 58.658539,82.182312 58.970997,79.445221 
	C59.472862,79.119736 59.705009,79.275269 60.011791,79.962250 
	C60.317547,80.641365 60.536430,80.830544 60.824642,80.939491 
z"/>
<path fill="#F6F6F6" opacity="1.000000" stroke="none" 
	d="
M76.967491,79.077332 
	C77.161530,79.864510 77.355576,80.651688 77.420639,81.737839 
	C76.177742,82.513214 75.063843,82.989609 73.325386,83.733116 
	C73.694641,81.681679 74.016747,79.892204 74.670029,78.051880 
	C75.001213,78.001022 75.000000,78.000000 75.028923,78.286804 
	C75.694397,78.741524 76.330940,78.909431 76.967491,79.077332 
z"/>
<path fill="#F6F6F6" opacity="1.000000" stroke="none" 
	d="
M22.997475,79.006317 
	C25.322548,72.252937 27.280573,79.787140 29.443106,79.432373 
	C27.556299,79.289925 25.669491,79.147476 23.384933,79.004898 
	C22.987183,79.004753 23.000231,78.999832 22.997475,79.006317 
z"/>
<path fill="#F6F6F6" opacity="1.000000" stroke="none" 
	d="
M42.251862,65.951561 
	C43.640465,64.118187 45.411182,62.309982 47.584641,60.284256 
	C48.197906,60.015610 48.408440,59.964485 48.517765,60.457069 
	C47.608330,62.664482 46.800098,64.328186 45.724579,65.976135 
	C45.279045,65.970108 45.100807,65.979836 44.922569,65.989555 
	C44.159706,65.985275 43.396843,65.981003 42.251862,65.951561 
z"/>
<path fill="#E5E4E3" opacity="1.000000" stroke="none" 
	d="
M41.251331,26.332674 
	C41.251331,26.332674 41.180180,26.298563 41.160526,26.335730 
	C42.847565,24.601229 44.554256,22.829561 46.614143,21.012913 
	C46.967335,20.967932 46.992290,20.992432 46.951736,21.347586 
	C45.024567,23.246050 43.137951,24.789362 41.251331,26.332674 
z"/>
<path fill="#E7E7E7" opacity="1.000000" stroke="none" 
	d="
M25.021118,84.985031 
	C26.485561,86.164040 27.922167,87.366051 29.358774,88.568069 
	C28.770805,89.056702 28.182838,89.545341 27.594870,90.033981 
	C26.718388,88.613960 25.841906,87.193947 24.952820,85.415466 
	C24.940216,85.057007 24.993282,85.008034 25.021118,84.985031 
z"/>
<path fill="#C6C3C3" opacity="1.000000" stroke="none" 
	d="
M47.000252,69.009872 
	C46.548031,69.012932 46.095806,69.015991 45.303841,69.013306 
	C44.172676,68.937820 43.381260,68.868080 41.641510,68.714767 
	C43.080093,67.850075 43.724251,67.462891 44.679184,67.034027 
	C44.989964,66.992355 44.958950,66.996925 45.112324,67.255806 
	C46.187256,67.027878 47.108810,66.541069 48.280598,66.026993 
	C48.698479,65.992470 48.866127,65.985222 49.008957,66.302933 
	C48.322842,67.421883 47.661549,68.215881 47.000252,69.009872 
z"/>
<path fill="#CAA5AA" opacity="1.000000" stroke="none" 
	d="
M55.109451,9.859923 
	C54.269093,9.895061 53.428730,9.930199 51.889469,9.998537 
	C50.824570,10.036380 50.458576,10.041021 50.092579,10.045662 
	C50.092579,10.045662 50.199619,9.567360 50.313679,9.349880 
	C50.427738,9.132401 50.672653,9.158396 51.066483,9.044628 
	C51.658745,8.628870 51.857174,8.326881 52.055607,8.024893 
	C52.055607,8.024894 51.996651,8.007381 52.346283,8.089336 
	C53.500423,8.734168 54.304939,9.297046 55.109451,9.859923 
z"/>
<path fill="#F6F6F6" opacity="1.000000" stroke="none" 
	d="
M56.036869,89.309586 
	C56.538483,89.077881 57.064728,89.187340 57.985897,89.215317 
	C58.622662,89.830956 58.864506,90.528069 59.077080,91.587280 
	C59.047802,91.949379 58.942547,92.095314 58.942543,92.095314 
	C57.982197,91.280464 57.021851,90.465614 56.036869,89.309586 
z"/>
<path fill="#B07A82" opacity="1.000000" stroke="none" 
	d="
M50.016834,10.392162 
	C50.458576,10.041021 50.824570,10.036380 51.463005,10.021291 
	C51.889271,11.089931 52.043106,12.169021 52.067276,13.637022 
	C51.272110,12.930177 50.606602,11.834419 50.016834,10.392162 
z"/>
<path fill="#F6F6F6" opacity="1.000000" stroke="none" 
	d="
M63.286488,95.793411 
	C62.755886,95.793465 62.473137,95.595490 62.087360,95.152863 
	C61.970566,94.505135 61.956799,94.102051 61.971176,93.350677 
	C61.999329,93.002388 62.087326,92.914238 62.087326,92.914238 
	C62.569664,93.807953 63.051998,94.701660 63.286488,95.793411 
z"/>
<path fill="#F6F6F6" opacity="1.000000" stroke="none" 
	d="
M50.919434,84.034233 
	C51.567459,84.290840 52.251789,84.844055 52.988640,85.690262 
	C52.346016,85.432449 51.650875,84.881645 50.919434,84.034233 
z"/>
<path fill="#F6F6F6" opacity="1.000000" stroke="none" 
	d="
M66.163620,94.651779 
	C66.360672,95.088783 66.312546,95.599976 66.264427,96.111160 
	C65.932281,96.034950 65.600143,95.958740 65.267998,95.882530 
	C65.484810,95.497002 65.701622,95.111481 66.163620,94.651779 
z"/>
<path fill="#F6F6F6" opacity="1.000000" stroke="none" 
	d="
M61.956413,93.047516 
	C61.068192,92.922813 60.222889,92.752968 59.160065,92.339218 
	C58.942547,92.095314 59.047802,91.949379 59.102707,91.875961 
	C60.098812,91.994476 61.040012,92.186401 62.034267,92.646286 
	C62.087326,92.914238 61.999329,93.002388 61.956413,93.047516 
z"/>
<path fill="#F6F6F6" opacity="1.000000" stroke="none" 
	d="
M47.994019,79.338165 
	C48.237869,79.518257 48.486874,79.986183 48.805305,80.732964 
	C48.582882,80.549881 48.291027,80.087936 47.994019,79.338165 
z"/>
<path fill="#C6C3C3" opacity="1.000000" stroke="none" 
	d="
M44.524391,71.115768 
	C44.827778,71.393982 44.906422,71.840919 45.022408,72.628860 
	C44.806385,72.408081 44.553017,71.846275 44.524391,71.115768 
z"/>
<path fill="#C7C5BD" opacity="1.000000" stroke="none" 
	d="
M41.157318,43.925858 
	C41.409389,44.003735 41.538071,44.301453 41.533348,44.816048 
	C41.277935,44.737179 41.155930,44.441433 41.157318,43.925858 
z"/>
<path fill="#B07A82" opacity="1.000000" stroke="none" 
	d="
M51.846928,14.416247 
	C52.319382,14.297872 52.682991,14.546151 53.029087,15.167461 
	C52.587078,15.287963 52.162579,15.035433 51.846928,14.416247 
z"/>
<path fill="#CDCDCD" opacity="1.000000" stroke="none" 
	d="
M44.956078,66.246948 
	C45.100807,65.979836 45.279045,65.970108 45.731941,65.983543 
	C46.006603,66.006714 46.019993,66.020363 45.909542,66.246399 
	C45.519047,66.647270 45.238998,66.822098 44.958950,66.996925 
	C44.958950,66.996925 44.989964,66.992355 44.996841,67.007820 
	C44.999004,66.850304 44.994297,66.677330 44.956078,66.246948 
z"/>
<path fill="#C7C5BD" opacity="1.000000" stroke="none" 
	d="
M41.222893,56.191803 
	C41.470955,56.290855 41.567829,56.601593 41.526550,57.127937 
	C41.282837,57.030193 41.177273,56.716839 41.222893,56.191803 
z"/>
<path fill="#FAFAF9" opacity="1.000000" stroke="none" 
	d="
M282.474579,62.911476 
	C286.085541,59.426903 290.437714,60.768024 294.884521,62.452255 
	C290.964661,62.886444 286.947815,62.937283 282.474579,62.911476 
z"/>
<path fill="#FEFDFD" opacity="1.000000" stroke="none" 
	d="
M55.116222,9.899742 
	C54.304939,9.297046 53.500423,8.734168 52.353729,8.119171 
	C64.198029,2.540747 76.402481,4.022153 88.037872,9.173465 
	C103.693748,16.104761 114.111992,28.184778 117.342812,45.143673 
	C119.401741,55.951275 118.846039,67.008751 113.829422,77.289673 
	C113.351395,78.269341 112.429115,79.032227 111.359558,79.918373 
	C109.785339,79.203552 108.564644,78.466118 106.050735,76.947441 
	C109.138199,73.763680 111.848938,70.968399 114.908150,67.813766 
	C113.659782,67.147438 111.661819,66.081009 109.313873,64.546249 
	C109.561554,53.611889 109.082878,43.328087 103.404800,34.771881 
	C105.773438,32.911148 107.420235,31.617466 109.067039,30.323782 
	C108.719307,29.890539 108.371567,29.457296 108.023834,29.024054 
	C106.529564,29.521170 105.035294,30.018284 103.618851,30.489508 
	C104.352425,28.337191 104.959641,26.555609 105.523537,24.901115 
	C101.584648,23.975142 100.343544,29.575111 96.995201,25.737791 
	C97.672180,24.811077 98.243340,24.110224 98.962173,23.630775 
	C99.802071,23.070585 100.770813,22.703571 101.683655,22.252747 
	C101.066917,21.343370 100.623718,19.986820 99.780991,19.659782 
	C99.047829,19.375263 97.684563,20.037846 96.920540,20.669771 
	C95.804932,21.592497 94.976463,22.862379 94.025597,23.984283 
	C91.311707,22.157612 88.597809,20.330940 86.114746,18.659632 
	C86.360611,16.103956 86.604675,13.566902 86.848747,11.029848 
	C86.402473,10.978806 85.956207,10.927762 85.509941,10.876719 
	C84.416443,12.810729 83.322945,14.744738 82.622169,15.984145 
	C73.664932,15.984145 65.197556,15.984145 56.290016,15.993580 
	C55.572582,14.711928 55.295307,13.420843 55.358967,11.669192 
	C55.495220,10.809517 55.290539,10.410408 55.085857,10.011299 
	C55.085857,10.011299 55.122993,9.939561 55.116222,9.899742 
z"/>
<path fill="#FAFAF9" opacity="1.000000" stroke="none" 
	d="
M74.779083,93.945770 
	C76.689095,92.587685 78.306038,91.313469 79.972214,89.750748 
	C80.021446,89.462242 80.223030,89.066788 80.626785,89.027802 
	C81.374458,88.629333 81.718384,88.269852 82.062317,87.910378 
	C82.602150,87.047722 83.141991,86.185074 84.185127,85.058960 
	C84.861870,84.620789 84.979050,84.414169 85.039963,84.175621 
	C85.039963,84.175621 85.014618,84.051956 85.414970,83.975815 
	C86.794441,81.843903 87.773560,79.788139 88.752678,77.732368 
	C88.752678,77.732368 88.849197,77.822159 89.107292,77.734741 
	C89.590622,76.807289 89.815857,75.967255 90.041092,75.127220 
	C90.041100,75.127220 90.031822,75.012772 90.307785,74.831268 
	C90.724541,74.107246 90.865334,73.564720 91.006119,73.022194 
	C91.006119,73.022194 91.007210,72.989540 91.258179,72.841858 
	C91.681923,72.171928 91.854698,71.649681 92.263908,70.930908 
	C92.763359,69.488602 93.026382,68.242844 93.282356,66.649033 
	C97.640068,62.640377 97.718529,62.041302 94.208321,58.556095 
	C94.441757,52.151802 93.839310,46.001907 95.249603,40.354652 
	C96.190178,36.588322 97.010811,33.248772 96.369156,29.688261 
	C103.584839,35.743519 106.068703,43.627541 107.021233,52.239868 
	C108.086876,61.874969 105.054749,70.551147 100.907883,78.983109 
	C100.608459,79.086403 100.368858,79.268425 99.798210,79.898552 
	C96.599716,83.174408 93.792099,86.080910 90.984482,88.987404 
	C90.984482,88.987404 91.000916,88.999001 90.675041,89.035767 
	C89.893166,89.710571 89.437157,90.348610 88.981148,90.986649 
	C88.981148,90.986649 88.998825,91.001396 88.733765,90.984192 
	C88.294441,90.970062 88.120186,90.973145 87.945930,90.976219 
	C86.504616,91.555557 85.063301,92.134895 82.948868,92.897125 
	C79.846741,94.052704 77.417732,95.025383 74.988731,95.998055 
	C74.988731,95.998055 75.001144,96.001221 74.754791,96.002579 
	C74.508446,96.003944 74.015709,96.016075 74.015709,96.016075 
	C74.172478,95.353935 74.329254,94.691788 74.779083,93.945770 
z"/>
<path fill="#E5E2E2" opacity="1.000000" stroke="none" 
	d="
M101.264862,78.942474 
	C105.054749,70.551147 108.086876,61.874969 107.021233,52.239868 
	C106.068703,43.627541 103.584839,35.743519 96.222412,29.495872 
	C95.125259,28.382164 94.554588,27.614487 94.192673,26.595470 
	C95.252525,26.249947 96.103615,26.155762 96.954704,26.061579 
	C100.343544,29.575111 101.584648,23.975142 105.523537,24.901115 
	C104.959641,26.555609 104.352425,28.337191 103.618851,30.489508 
	C105.035294,30.018284 106.529564,29.521170 108.023834,29.024054 
	C108.371567,29.457296 108.719307,29.890539 109.067039,30.323782 
	C107.420235,31.617466 105.773438,32.911148 103.404800,34.771881 
	C109.082878,43.328087 109.561554,53.611889 108.942131,64.547943 
	C107.497536,68.243599 106.175377,71.519241 104.608482,74.673309 
	C103.849792,76.200485 102.631851,77.499512 101.264862,78.942474 
z"/>
<path fill="#E5E2E2" opacity="1.000000" stroke="none" 
	d="
M91.351501,88.990211 
	C93.792099,86.080910 96.599716,83.174408 99.700027,80.105194 
	C99.218193,84.772713 96.032570,87.398689 91.351501,88.990211 
z"/>
<path fill="#E5E2E2" opacity="1.000000" stroke="none" 
	d="
M75.405838,95.999298 
	C77.417732,95.025383 79.846741,94.052704 82.643799,93.036224 
	C81.834526,96.908264 78.527718,95.735016 75.405838,95.999298 
z"/>
<path fill="#FEFDFD" opacity="1.000000" stroke="none" 
	d="
M110.659912,81.035446 
	C110.549034,82.197426 110.079102,83.442795 109.303795,84.852943 
	C109.432564,83.718094 109.866707,82.418457 110.659912,81.035446 
z"/>
<path fill="#E5E2E2" opacity="1.000000" stroke="none" 
	d="
M89.304565,90.948456 
	C89.437157,90.348610 89.893166,89.710571 90.668518,89.026855 
	C90.534576,89.624214 90.081284,90.267235 89.304565,90.948456 
z"/>
<path fill="#FEFDFD" opacity="1.000000" stroke="none" 
	d="
M75.914009,102.498680 
	C75.570389,102.251633 75.264702,101.745537 74.959015,101.239449 
	C75.171936,101.142143 75.384857,101.044838 75.597786,100.947533 
	C75.715836,101.378235 75.833885,101.808937 75.914009,102.498680 
z"/>
<path fill="#E5E2E2" opacity="1.000000" stroke="none" 
	d="
M88.045059,91.146225 
	C88.120186,90.973145 88.294441,90.970062 88.729996,90.973961 
	C88.708931,91.092697 88.426567,91.204468 88.045059,91.146225 
z"/>
<path fill="#E5E2E2" opacity="1.000000" stroke="none" 
	d="
M74.103470,96.181427 
	C74.015709,96.016075 74.508446,96.003944 74.754807,95.996155 
	C74.731201,96.107834 74.461220,96.227303 74.103470,96.181427 
z"/>
<path fill="#FEFDFD" opacity="1.000000" stroke="none" 
	d="
M51.806839,8.129837 
	C51.857174,8.326881 51.658745,8.628870 51.184139,9.008266 
	C51.124664,8.802042 51.341366,8.518411 51.806839,8.129837 
z"/>
<path fill="#711321" opacity="1.000000" stroke="none" 
	d="
M85.115059,82.035645 
	C83.403717,81.603645 81.692375,81.171646 79.024582,80.498207 
	C80.085083,78.792984 81.235809,76.942665 82.713692,75.387711 
	C83.679489,76.419182 84.318146,77.155289 84.956802,77.891396 
	C84.986420,78.118423 85.016045,78.345459 85.278343,79.152306 
	C85.379021,80.499962 85.247040,81.267807 85.115059,82.035645 
z"/>
<path fill="#DFBC03" opacity="1.000000" stroke="none" 
	d="
M76.226776,68.085007 
	C75.947578,68.260826 75.464378,68.134834 75.231033,67.615105 
	C74.995689,64.809898 74.993683,62.524418 75.189255,60.183380 
	C75.386841,60.127819 75.797249,60.119377 75.918884,60.367626 
	C76.605614,61.072346 77.170708,61.528816 77.838715,62.280056 
	C78.232887,63.329193 78.524155,64.083557 78.815422,64.837921 
	C78.045609,65.861679 77.275795,66.885429 76.226776,68.085007 
z"/>
<path fill="#EFEFEF" opacity="1.000000" stroke="none" 
	d="
M93.289398,66.997078 
	C93.026382,68.242844 92.763359,69.488602 92.082764,70.893631 
	C91.665184,71.052895 91.298820,71.010239 91.298820,71.010239 
	C90.763062,70.078552 90.227295,69.146866 89.273697,67.907761 
	C88.569443,67.401382 88.283012,67.202415 87.993973,66.669724 
	C87.990959,65.891991 87.990570,65.447983 88.352631,65.012161 
	C90.239861,65.679268 91.764633,66.338173 93.289398,66.997078 
z"/>
<path fill="#CDCAC7" opacity="1.000000" stroke="none" 
	d="
M78.923737,65.145569 
	C78.524155,64.083557 78.232887,63.329193 77.898743,61.938484 
	C77.769516,60.856899 77.683174,60.411663 77.673805,59.639999 
	C77.834450,58.876537 77.918114,58.439495 78.344147,58.055206 
	C79.123238,59.065903 79.559967,60.023853 80.014328,61.286873 
	C80.336212,62.075085 80.640465,62.558231 80.938126,63.418392 
	C80.972954,64.799973 81.014381,65.804543 81.055817,66.809105 
	C80.381233,66.357140 79.706642,65.905182 78.923737,65.145569 
z"/>
<path fill="#D5D4D5" opacity="1.000000" stroke="none" 
	d="
M84.971878,69.755676 
	C84.316696,69.450394 83.661514,69.145103 82.976440,68.145935 
	C82.629753,65.968735 82.312950,64.485413 82.217957,63.001228 
	C82.439758,63.000355 82.882828,63.008991 83.145393,63.033672 
	C83.583771,63.058636 83.759590,63.058922 83.951233,63.356514 
	C84.277840,64.131287 84.588631,64.608757 84.906082,65.450638 
	C84.969994,66.770973 85.027245,67.726891 85.049591,68.950325 
	C85.000420,69.397118 84.986145,69.576393 84.971878,69.755676 
z"/>
<path fill="#F6F6F6" opacity="1.000000" stroke="none" 
	d="
M85.082298,82.369171 
	C85.247040,81.267807 85.379021,80.499962 85.323914,79.492699 
	C86.126694,78.807182 87.116554,78.361084 88.429550,77.823685 
	C87.773560,79.788139 86.794441,81.843903 85.477783,83.969566 
	C85.110001,83.593872 85.079765,83.148277 85.082298,82.369171 
z"/>
<path fill="#C6C3C3" opacity="1.000000" stroke="none" 
	d="
M85.348557,69.772034 
	C84.986145,69.576393 85.000420,69.397118 85.392265,68.998566 
	C86.514130,68.185623 87.258430,67.591957 88.001358,66.999146 
	C87.999992,67.000000 87.996590,67.003448 87.996590,67.003448 
	C88.283012,67.202415 88.569443,67.401382 88.944473,67.852524 
	C87.930466,68.665924 86.827850,69.227158 85.348557,69.772034 
z"/>
<path fill="#F6F6F6" opacity="1.000000" stroke="none" 
	d="
M81.996147,63.002098 
	C82.312950,64.485413 82.629753,65.968735 82.947723,67.835648 
	C82.498344,67.835297 82.047791,67.451355 81.326523,66.938263 
	C81.014381,65.804543 80.972954,64.799973 80.955376,63.405960 
	C80.979225,63.016514 81.009209,62.990814 81.255966,62.991928 
	C81.502716,62.993038 81.996147,63.002098 81.996147,63.002098 
z"/>
<path fill="#BF7A0D" opacity="1.000000" stroke="none" 
	d="
M84.958580,77.544617 
	C84.318146,77.155289 83.679489,76.419182 83.076294,75.365776 
	C83.727943,75.764938 84.344147,76.481392 84.958580,77.544617 
z"/>
<path fill="#FEFDFD" opacity="1.000000" stroke="none" 
	d="
M76.959778,78.805870 
	C76.330940,78.909431 75.694397,78.741524 75.028313,78.286194 
	C75.400993,78.000443 75.803215,78.002106 76.507065,78.007156 
	C76.856483,78.185158 76.904274,78.359779 76.959778,78.805870 
z"/>
<path fill="#F6F6F6" opacity="1.000000" stroke="none" 
	d="
M81.855782,87.736847 
	C81.718384,88.269852 81.374458,88.629333 80.847481,89.051178 
	C80.992699,88.596802 81.320976,88.080055 81.855782,87.736847 
z"/>
<path fill="#F6F6F6" opacity="1.000000" stroke="none" 
	d="
M89.718689,75.219635 
	C89.815857,75.967255 89.590622,76.807289 89.046661,77.760597 
	C88.950714,77.019936 89.173500,76.165993 89.718689,75.219635 
z"/>
<path fill="#F6F6F6" opacity="1.000000" stroke="none" 
	d="
M90.693657,73.095169 
	C90.865334,73.564720 90.724541,74.107246 90.365196,74.831535 
	C90.224823,74.398247 90.303009,73.783203 90.693657,73.095169 
z"/>
<path fill="#F6F6F6" opacity="1.000000" stroke="none" 
	d="
M91.266129,71.345062 
	C91.298820,71.010239 91.665184,71.052895 91.846329,71.090164 
	C91.854698,71.649681 91.681923,72.171928 91.272827,72.849152 
	C91.102158,72.562721 91.167801,72.121307 91.266129,71.345062 
z"/>
<path fill="#F6F6F6" opacity="1.000000" stroke="none" 
	d="
M84.808762,84.200516 
	C84.979050,84.414169 84.861870,84.620789 84.544769,84.902222 
	C84.401108,85.008949 84.262917,84.566208 84.262917,84.566208 
	C84.262917,84.566208 84.577560,84.225410 84.808762,84.200516 
z"/>
<path fill="#E3E3E3" opacity="1.000000" stroke="none" 
	d="
M59.400677,66.520096 
	C59.304081,66.766518 59.207481,67.012947 59.044365,67.650703 
	C56.406391,68.975784 53.834938,69.909546 51.110729,70.213715 
	C50.965862,69.377251 50.973751,69.170372 50.994160,68.978653 
	C51.006683,68.993820 50.967487,68.996681 51.247330,68.803497 
	C52.316032,66.701332 53.104885,64.792358 53.911789,62.542198 
	C53.945221,61.743446 53.960602,61.285885 54.326050,60.895077 
	C55.388206,60.992649 56.100296,61.023472 56.918861,61.385979 
	C57.817112,63.318474 58.608894,64.919281 59.400677,66.520096 
z"/>
<path fill="#711321" opacity="1.000000" stroke="none" 
	d="
M58.454185,76.989899 
	C58.831181,77.161537 58.863209,77.330193 58.860886,77.754028 
	C58.257076,78.303886 57.659420,78.554985 57.123638,78.901703 
	C55.708916,79.817200 53.688969,81.868484 53.047539,81.498016 
	C51.473202,80.588722 50.538986,78.571136 49.347256,76.999405 
	C49.645908,76.539574 49.944561,76.079742 50.243214,75.619911 
	C52.865215,76.075577 55.487221,76.531242 58.454185,76.989899 
z"/>
<path fill="#F6F6F6" opacity="1.000000" stroke="none" 
	d="
M47.085232,69.317055 
	C47.661549,68.215881 48.322842,67.421883 48.994431,66.307083 
	C49.004723,65.986282 49.006153,66.012642 49.302498,65.883377 
	C50.349602,64.468758 51.100365,63.183399 52.151268,61.949734 
	C52.726002,62.291252 53.000587,62.581081 53.067234,63.185734 
	C52.228691,65.332596 51.598087,67.164635 50.967487,68.996681 
	C50.967487,68.996681 51.006683,68.993820 50.706619,68.981827 
	C49.933029,69.259491 49.459503,69.549156 48.985977,69.838821 
	C48.380722,69.767288 47.775467,69.695763 47.085232,69.317055 
z"/>
<path fill="#D5D4D5" opacity="1.000000" stroke="none" 
	d="
M49.306053,69.904823 
	C49.459503,69.549156 49.933029,69.259491 50.694092,68.966660 
	C50.973751,69.170372 50.965862,69.377251 50.932396,69.893631 
	C50.479916,70.125702 50.053020,70.048264 49.306053,69.904823 
z"/>
<path fill="#F8F8F6" opacity="1.000000" stroke="none" 
	d="
M96.995201,25.737791 
	C96.103615,26.155762 95.252525,26.249947 93.944824,26.788448 
	C92.614182,27.718990 91.740143,28.205215 90.566711,28.778973 
	C89.762550,29.170197 89.257782,29.473888 88.822746,29.794209 
	C88.892487,29.810833 88.861496,29.670835 88.409431,29.714510 
	C83.010231,29.389587 78.063095,29.020990 72.903824,28.369980 
	C71.162727,26.631561 69.633774,25.175556 68.822815,24.403288 
	C63.289757,27.077860 58.361721,29.459976 53.433685,31.842094 
	C49.515415,30.207634 45.597145,28.573175 41.465103,26.635695 
	C43.137951,24.789362 45.024567,23.246050 46.963387,21.359682 
	C52.438160,19.654959 57.840755,18.206669 63.287712,16.950750 
	C72.845131,14.747075 81.183121,18.139446 89.251389,22.760630 
	C90.599411,23.532722 92.163681,23.927282 93.826813,24.240288 
	C94.976463,22.862379 95.804932,21.592497 96.920540,20.669771 
	C97.684563,20.037846 99.047829,19.375263 99.780991,19.659782 
	C100.623718,19.986820 101.066917,21.343370 101.683655,22.252747 
	C100.770813,22.703571 99.802071,23.070585 98.962173,23.630775 
	C98.243340,24.110224 97.672180,24.811077 96.995201,25.737791 
z"/>
<path fill="#E7C003" opacity="1.000000" stroke="none" 
	d="
M74.991676,60.238937 
	C74.993683,62.524418 74.995689,64.809898 74.998131,67.525154 
	C73.518967,67.331718 72.039360,66.708511 70.162743,65.744308 
	C69.758766,64.966393 69.751808,64.529472 69.879402,63.802910 
	C70.306602,62.694683 70.599251,61.876087 70.891899,61.057487 
	C70.247673,61.067966 69.603447,61.078445 68.960503,60.765949 
	C68.942207,60.228546 68.922630,60.014122 68.895569,59.454498 
	C67.937943,58.092155 66.987801,57.075008 66.058548,55.708687 
	C66.098907,55.127113 66.118378,54.894726 66.520004,54.675220 
	C69.598663,56.538380 72.295166,58.388657 74.991676,60.238937 
z"/>
<path fill="#1F1A07" opacity="1.000000" stroke="none" 
	d="
M69.744850,64.092545 
	C69.751808,64.529472 69.758766,64.966393 69.801315,65.729904 
	C67.090591,66.017311 65.479057,70.248634 61.790947,68.130707 
	C61.171757,68.016350 61.022480,67.801979 61.056305,67.053566 
	C61.727165,62.427261 65.593010,65.697479 67.528000,63.929207 
	C68.476425,64.005013 69.110641,64.048775 69.744850,64.092545 
z"/>
<path fill="#19170E" opacity="1.000000" stroke="none" 
	d="
M67.213783,63.897167 
	C65.593010,65.697479 61.727165,62.427261 61.047646,66.853271 
	C60.608368,66.978859 60.270496,66.833626 59.666649,66.604248 
	C58.608894,64.919281 57.817112,63.318474 57.002045,60.960365 
	C57.713497,58.473038 54.996258,55.279663 59.199486,55.017174 
	C59.219429,55.022831 59.257778,55.025517 59.448650,55.341408 
	C61.393471,57.226685 63.147419,58.796066 65.043152,60.529507 
	C65.459793,60.784832 65.728912,60.890701 66.018341,61.331436 
	C66.434196,62.400192 66.823990,63.148678 67.213783,63.897167 
z"/>
<path fill="#FEFDFD" opacity="1.000000" stroke="none" 
	d="
M60.790909,80.708542 
	C60.536430,80.830544 60.317547,80.641365 60.087132,80.165573 
	C60.334652,80.018967 60.584949,80.191765 60.790909,80.708542 
z"/>
<path fill="#711321" opacity="1.000000" stroke="none" 
	d="
M53.126793,31.940048 
	C58.361721,29.459976 63.289757,27.077860 68.822815,24.403288 
	C69.633774,25.175556 71.162727,26.631561 73.044373,28.715183 
	C75.491119,30.209404 77.599525,31.810377 79.675827,31.769753 
	C82.756882,31.709467 86.688889,34.017921 88.861496,29.670835 
	C88.861496,29.670835 88.892487,29.810833 89.192787,29.864376 
	C89.992043,29.932026 90.490990,29.946131 91.324142,29.951229 
	C96.219620,29.633062 95.020317,33.166435 94.889748,35.355221 
	C94.418930,43.247646 93.601799,51.119411 92.583115,58.960861 
	C91.412689,57.644112 90.574631,56.365479 89.676956,54.791176 
	C89.086433,53.656670 88.555527,52.817833 88.001038,51.605850 
	C87.991600,50.490795 88.005753,49.748890 88.287613,48.836517 
	C86.733391,46.062550 84.911453,43.459049 83.087440,40.907085 
	C83.085358,40.958626 83.186119,40.936459 83.134193,40.707672 
	C83.082268,40.478882 82.938271,40.032303 82.935097,39.696743 
	C81.322227,37.898670 79.712532,36.436157 77.950821,34.623955 
	C74.768082,32.900360 73.158188,34.463017 71.718109,36.943542 
	C68.719612,32.120796 65.930481,35.417107 63.096634,36.352947 
	C62.328125,35.578754 61.634357,35.158653 60.567657,34.726078 
	C58.878723,35.206131 56.044399,33.505760 56.855515,37.400116 
	C56.848778,38.480270 56.821033,39.200451 56.414940,39.873207 
	C51.275372,40.791008 46.885067,46.311569 47.982018,50.440643 
	C47.587467,52.920128 47.120575,55.003899 46.653687,57.087666 
	C45.519444,57.087666 44.385197,57.087666 43.702003,57.087666 
	C42.985161,50.815895 42.279938,44.645790 41.249947,38.262321 
	C40.925175,35.281631 40.925175,32.514305 40.925175,30.059349 
	C45.209454,30.772026 49.014675,31.405014 53.126793,31.940048 
z"/>
<path fill="#B6B5B5" opacity="1.000000" stroke="none" 
	d="
M46.921463,57.172485 
	C47.120575,55.003899 47.587467,52.920128 48.259560,50.403435 
	C48.650955,49.957481 48.837143,49.944450 49.175720,50.187794 
	C49.878849,50.636120 50.429592,50.828075 51.147461,51.266888 
	C53.609024,52.536175 55.664173,54.786842 58.615700,52.697014 
	C58.709499,52.476166 59.135296,52.254837 59.149536,52.714924 
	C59.169029,53.787182 59.174282,54.399349 59.179535,55.011520 
	C54.996258,55.279663 57.713497,58.473038 56.895576,60.628681 
	C56.100296,61.023472 55.388206,60.992649 54.339592,60.488670 
	C53.567307,58.746689 53.131542,57.477859 52.695778,56.209030 
	C51.318432,56.877392 49.941082,57.545750 48.563728,58.214104 
	C48.105564,57.895172 47.647400,57.576237 46.921463,57.172485 
z"/>
<path fill="#BCBBBB" opacity="1.000000" stroke="none" 
	d="
M48.437809,58.349892 
	C49.941082,57.545750 51.318432,56.877392 52.695778,56.209030 
	C53.131542,57.477859 53.567307,58.746689 53.989529,60.421921 
	C53.960602,61.285885 53.945221,61.743446 53.757492,62.550041 
	C53.585144,62.899078 53.275173,62.870914 53.275173,62.870914 
	C53.000587,62.581081 52.726002,62.291252 51.965485,61.969669 
	C51.479561,61.937916 51.105164,61.975105 51.079506,61.700546 
	C50.368771,61.270390 49.683685,61.114792 48.995766,60.824944 
	C48.992924,60.690689 49.012924,60.422867 49.012924,60.422867 
	C48.779243,59.777138 48.545567,59.131405 48.437809,58.349892 
z"/>
<path fill="#CDCDCD" opacity="1.000000" stroke="none" 
	d="
M45.999237,65.999298 
	C46.800098,64.328186 47.608330,62.664482 48.720398,60.711132 
	C49.024235,60.421486 49.013489,60.492062 49.013206,60.457466 
	C49.012924,60.422867 48.992924,60.690689 48.974369,61.165245 
	C48.627804,62.712788 48.299789,63.785778 47.720612,64.995911 
	C46.986294,65.428818 46.503143,65.724594 46.019993,66.020363 
	C46.019993,66.020363 46.006603,66.006714 45.999237,65.999298 
z"/>
<path fill="#CAA5AA" opacity="1.000000" stroke="none" 
	d="
M54.971317,10.369040 
	C55.290539,10.410408 55.495220,10.809517 55.366730,11.332787 
	C54.974632,11.213557 54.915703,10.970170 54.971317,10.369040 
z"/>
<path fill="#EFEFEF" opacity="1.000000" stroke="none" 
	d="
M47.971775,64.858765 
	C48.299789,63.785778 48.627804,62.712788 48.977211,61.299500 
	C49.683685,61.114792 50.368771,61.270390 50.786041,61.873833 
	C50.014202,63.552002 49.510174,64.782318 49.006149,66.012642 
	C49.006153,66.012642 49.004723,65.986282 49.019249,65.982132 
	C48.866127,65.985222 48.698479,65.992470 48.263683,65.728012 
	C47.988285,65.257118 47.980030,65.057938 47.971775,64.858765 
z"/>
<path fill="#FEFDFD" opacity="1.000000" stroke="none" 
	d="
M47.720612,64.995911 
	C47.980030,65.057938 47.988285,65.257118 48.013454,65.755280 
	C47.108810,66.541069 46.187256,67.027878 45.112324,67.255806 
	C45.238998,66.822098 45.519047,66.647270 45.909542,66.246399 
	C46.503143,65.724594 46.986294,65.428818 47.720612,64.995911 
z"/>
<path fill="#CDCAC7" opacity="1.000000" stroke="none" 
	d="
M89.736565,55.086845 
	C90.574631,56.365479 91.412689,57.644112 92.911095,59.004997 
	C93.790421,59.066254 94.009399,59.045250 94.228386,59.024246 
	C97.718529,62.041302 97.640068,62.640377 93.282356,66.649033 
	C91.764633,66.338173 90.239861,65.679268 88.357666,65.010803 
	C88.000244,65.001244 87.994270,65.015450 87.996399,64.679001 
	C86.942917,63.237221 85.887306,62.131893 84.657852,61.017002 
	C84.484001,61.007439 84.137146,60.976601 83.849243,60.973846 
	C83.369446,60.975620 83.177551,60.980152 82.992889,60.992367 
	C83.000107,61.000050 83.015633,61.014416 83.007080,60.765289 
	C82.998520,60.516159 82.973755,60.018223 83.267006,59.881340 
	C85.619026,58.191921 87.677795,56.639381 89.736565,55.086845 
z"/>
<path fill="#3C1D18" opacity="1.000000" stroke="none" 
	d="
M94.208321,58.556095 
	C94.009399,59.045250 93.790421,59.066254 93.243454,59.043118 
	C93.601799,51.119411 94.418930,43.247646 94.889748,35.355221 
	C95.020317,33.166435 96.219620,29.633062 91.303925,29.633244 
	C90.921707,29.113321 90.893906,28.902380 90.866104,28.691439 
	C91.740143,28.205215 92.614182,27.718990 93.736069,27.039789 
	C94.554588,27.614487 95.125259,28.382164 95.842682,29.342228 
	C97.010811,33.248772 96.190178,36.588322 95.249603,40.354652 
	C93.839310,46.001907 94.441757,52.151802 94.208321,58.556095 
z"/>
<path fill="#14120A" opacity="1.000000" stroke="none" 
	d="
M59.135296,52.254837 
	C59.135296,52.254837 58.709499,52.476166 58.616997,52.267567 
	C58.243832,51.278088 57.963165,50.497204 57.981010,49.790886 
	C58.464954,49.547558 58.650379,49.229668 59.065109,48.834824 
	C59.294415,48.757870 59.771133,48.675720 60.163906,48.805531 
	C61.106632,48.988022 61.656586,49.040699 62.459000,49.113049 
	C63.115845,48.856216 63.520226,48.579716 64.365417,48.236660 
	C66.878777,48.076874 68.951324,47.983643 71.255920,48.004875 
	C71.654129,48.165703 71.820282,48.212067 72.150589,48.445274 
	C72.798111,49.007755 73.281487,49.383392 73.468124,49.990280 
	C73.330910,51.959854 73.490433,53.698181 73.719025,56.189056 
	C74.902893,54.486286 75.438850,53.715412 76.059418,53.130005 
	C76.672615,53.618073 77.201187,53.920673 77.759628,54.327019 
	C77.789482,54.430759 77.877731,54.627808 77.848892,55.052139 
	C77.880630,56.318462 77.941200,57.160461 78.001770,58.002457 
	C77.918114,58.439495 77.834450,58.876537 77.372520,59.644104 
	C76.595253,60.022877 76.196251,60.071125 75.797249,60.119377 
	C75.797249,60.119377 75.386841,60.127819 75.189255,60.183380 
	C72.295166,58.388657 69.598663,56.538380 66.581284,54.288548 
	C64.433662,51.047092 62.154484,50.074978 59.165817,52.165905 
	C59.197212,52.167099 59.135296,52.254837 59.135296,52.254837 
z"/>
<path fill="#2E2917" opacity="1.000000" stroke="none" 
	d="
M75.918884,60.367626 
	C76.196251,60.071125 76.595253,60.022877 77.295540,59.970528 
	C77.683174,60.411663 77.769516,60.856899 77.795830,61.643715 
	C77.170708,61.528816 76.605614,61.072346 75.918884,60.367626 
z"/>
<path fill="#C6C3C3" opacity="1.000000" stroke="none" 
	d="
M87.995209,65.002609 
	C87.990570,65.447983 87.990959,65.891991 87.993973,66.669724 
	C87.996590,67.003448 87.999992,67.000000 87.733719,66.850082 
	C87.303780,66.127678 87.140099,65.555176 87.230423,65.007523 
	C87.654388,65.026733 87.824333,65.021088 87.994270,65.015450 
	C87.994270,65.015450 88.000244,65.001244 87.995209,65.002609 
z"/>
<path fill="#BCBBBB" opacity="1.000000" stroke="none" 
	d="
M78.344147,58.055206 
	C77.941200,57.160461 77.880630,56.318462 78.080406,55.181870 
	C78.516754,54.902172 78.692741,54.917072 79.230293,54.956249 
	C80.717339,53.975800 81.842819,52.971069 82.984146,51.983170 
	C83.000000,52.000000 82.970215,51.964718 83.389648,52.008385 
	C85.214264,52.027702 86.619446,52.003349 88.024620,51.978996 
	C88.555527,52.817833 89.086433,53.656670 89.676956,54.791176 
	C87.677795,56.639381 85.619026,58.191921 83.035286,59.979828 
	C82.307518,60.480114 82.104721,60.745029 81.675453,61.004906 
	C81.448982,60.999870 80.995934,61.002464 80.746384,60.984665 
	C80.330124,60.971840 80.163406,60.976822 79.996696,60.981804 
	C79.559967,60.023853 79.123238,59.065903 78.344147,58.055206 
z"/>
<path fill="#F6F6F6" opacity="1.000000" stroke="none" 
	d="
M80.014328,61.286873 
	C80.163406,60.976822 80.330124,60.971840 80.747818,61.315907 
	C81.002266,62.106907 81.005737,62.548859 81.009209,62.990814 
	C81.009209,62.990814 80.979225,63.016514 80.961975,63.028946 
	C80.640465,62.558231 80.336212,62.075085 80.014328,61.286873 
z"/>
<path fill="#F6F6F6" opacity="1.000000" stroke="none" 
	d="
M86.976425,64.982681 
	C87.140099,65.555176 87.303780,66.127678 87.735092,66.849228 
	C87.258430,67.591957 86.514130,68.185623 85.427155,68.731049 
	C85.027245,67.726891 84.969994,66.770973 84.978111,65.383652 
	C85.043480,64.952248 85.184593,64.815170 85.487450,64.874359 
	C86.202965,64.965546 86.615616,64.997551 87.019501,65.013382 
	C87.010735,64.997208 86.976425,64.982681 86.976425,64.982681 
z"/>
<path fill="#CDCAC7" opacity="1.000000" stroke="none" 
	d="
M81.255966,62.991928 
	C81.005737,62.548859 81.002266,62.106907 80.997360,61.333710 
	C80.995934,61.002464 81.448982,60.999870 81.954132,61.025551 
	C82.644745,61.038956 82.830193,61.026684 83.015633,61.014416 
	C83.015633,61.014416 83.000107,61.000050 82.955490,61.328445 
	C82.901527,62.107559 82.892181,62.558277 82.882828,63.008991 
	C82.882828,63.008991 82.439758,63.000355 82.217957,63.001228 
	C81.996147,63.002098 81.502716,62.993038 81.255966,62.991928 
z"/>
<path fill="#F6F6F6" opacity="1.000000" stroke="none" 
	d="
M84.971451,65.019241 
	C84.588631,64.608757 84.277840,64.131287 83.998718,63.317871 
	C84.030396,62.981922 84.126091,62.909683 84.349182,63.083725 
	C84.776375,63.776905 84.980484,64.296036 85.184593,64.815170 
	C85.184593,64.815170 85.043480,64.952248 84.971451,65.019241 
z"/>
<path fill="#F6F6F6" opacity="1.000000" stroke="none" 
	d="
M83.145393,63.033672 
	C82.892181,62.558277 82.901527,62.107559 82.948273,61.320763 
	C83.177551,60.980152 83.369446,60.975620 83.819809,61.296169 
	C84.094215,62.050728 84.110153,62.480206 84.126091,62.909683 
	C84.126091,62.909683 84.030396,62.981922 83.982910,63.020569 
	C83.759590,63.058922 83.583771,63.058636 83.145393,63.033672 
z"/>
<path fill="#D5D4D5" opacity="1.000000" stroke="none" 
	d="
M53.067234,63.185734 
	C53.275173,62.870914 53.585144,62.899078 53.739441,62.891235 
	C53.104885,64.792358 52.316032,66.701332 51.247330,68.803497 
	C51.598087,67.164635 52.228691,65.332596 53.067234,63.185734 
z"/>
<path fill="#D5D4D5" opacity="1.000000" stroke="none" 
	d="
M49.302494,65.883377 
	C49.510174,64.782318 50.014202,63.552002 50.811695,62.148392 
	C51.105164,61.975105 51.479561,61.937916 51.665344,61.917980 
	C51.100365,63.183399 50.349602,64.468758 49.302494,65.883377 
z"/>
<path fill="#452521" opacity="1.000000" stroke="none" 
	d="
M88.409431,29.714510 
	C86.688889,34.017921 82.756882,31.709467 79.675827,31.769753 
	C77.599525,31.810377 75.491119,30.209404 73.256516,28.997597 
	C78.063095,29.020990 83.010231,29.389587 88.409431,29.714510 
z"/>
<path fill="#452521" opacity="1.000000" stroke="none" 
	d="
M90.566711,28.778971 
	C90.893906,28.902380 90.921707,29.113321 90.969727,29.642250 
	C90.490990,29.946131 89.992043,29.932026 89.123047,29.847752 
	C89.257782,29.473888 89.762550,29.170197 90.566711,28.778971 
z"/>
<path fill="#D6B404" opacity="1.000000" stroke="none" 
	d="
M59.134426,52.164711 
	C62.154484,50.074978 64.433662,51.047092 66.199127,54.275669 
	C66.118378,54.894726 66.098907,55.127113 66.050018,55.688766 
	C66.020615,56.018032 66.057648,56.027431 65.667572,56.015274 
	C63.503380,55.000618 61.729271,53.998123 59.783615,52.754677 
	C59.452850,52.397388 59.293640,52.281048 59.134426,52.164711 
z"/>
<path fill="#5E4E08" opacity="1.000000" stroke="none" 
	d="
M67.528000,63.929207 
	C66.823990,63.148678 66.434196,62.400192 66.389862,61.303738 
	C67.476631,61.000153 68.217926,61.044537 68.959221,61.088924 
	C69.603447,61.078445 70.247673,61.067966 70.891899,61.057487 
	C70.599251,61.876087 70.306602,62.694683 69.879402,63.802910 
	C69.110641,64.048775 68.476425,64.005013 67.528000,63.929207 
z"/>
<path fill="#D6B404" opacity="1.000000" stroke="none" 
	d="
M68.960503,60.765949 
	C68.217926,61.044537 67.476631,61.000153 66.363815,60.983467 
	C65.728912,60.890701 65.459793,60.784832 65.054413,60.276657 
	C65.030479,59.402142 65.137062,58.944523 65.576698,58.444714 
	C66.907524,58.868244 67.905281,59.333969 68.903046,59.799694 
	C68.922630,60.014122 68.942207,60.228546 68.960503,60.765949 
z"/>
<path fill="#5E4E08" opacity="1.000000" stroke="none" 
	d="
M68.895569,59.454498 
	C67.905281,59.333969 66.907524,58.868244 65.806992,58.061546 
	C65.822029,57.156197 65.939842,56.591812 66.057648,56.027431 
	C66.057648,56.027431 66.020615,56.018032 66.029137,56.037949 
	C66.987801,57.075008 67.937943,58.092155 68.895569,59.454498 
z"/>
<path fill="#E7C003" opacity="1.000000" stroke="none" 
	d="
M65.667572,56.015274 
	C65.939842,56.591812 65.822029,57.156197 65.473930,58.103745 
	C65.137062,58.944523 65.030479,59.402142 64.912636,60.112602 
	C63.147419,58.796066 61.393471,57.226685 59.643635,55.033676 
	C59.750221,53.938583 59.852695,53.467106 59.955170,52.995628 
	C61.729271,53.998123 63.503380,55.000618 65.667572,56.015274 
z"/>
<path fill="#1F1A07" opacity="1.000000" stroke="none" 
	d="
M59.783615,52.754677 
	C59.852695,53.467106 59.750221,53.938583 59.452763,54.717789 
	C59.257778,55.025517 59.219429,55.022831 59.199482,55.017174 
	C59.174282,54.399349 59.169029,53.787182 59.149536,52.714924 
	C59.135296,52.254837 59.197212,52.167099 59.165817,52.165905 
	C59.293640,52.281048 59.452850,52.397388 59.783615,52.754677 
z"/>
<path fill="#B6B5B5" opacity="1.000000" stroke="none" 
	d="
M78.102844,34.973644 
	C79.712532,36.436157 81.322227,37.898670 82.749825,39.789665 
	C82.773857,40.457581 82.979988,40.697021 83.186119,40.936462 
	C83.186119,40.936459 83.085358,40.958626 83.032646,41.288391 
	C81.364632,44.075546 79.749336,46.532932 77.752213,48.951797 
	C75.899078,48.586086 74.427773,48.258896 73.042709,47.629177 
	C73.055725,46.918373 72.982506,46.510098 72.913635,45.911369 
	C72.917984,45.720913 72.959763,45.342201 73.125740,45.184761 
	C73.291718,45.027317 73.742401,44.948418 74.081955,44.985817 
	C75.217163,44.432034 76.012810,43.840858 76.808456,43.249680 
	C76.417542,42.885696 76.026634,42.521717 75.381989,41.949547 
	C75.015335,41.553921 74.902420,41.366493 75.140808,41.086098 
	C77.536339,40.211857 78.964256,39.196857 77.033470,36.619720 
	C77.044998,35.940815 77.063385,35.552895 77.334366,35.102806 
	C77.758911,35.018311 77.930878,34.995979 78.102844,34.973644 
M78.403023,44.487705 
	C78.403023,44.487705 78.531792,44.404209 78.403023,44.487705 
M76.618217,46.509911 
	C76.618217,46.509911 76.478813,46.591976 76.618217,46.509911 
z"/>
<path fill="#DADADA" opacity="1.000000" stroke="none" 
	d="
M49.023335,49.931423 
	C48.837143,49.944450 48.650955,49.957481 48.187222,50.007713 
	C46.885067,46.311569 51.275372,40.791008 56.719635,39.971962 
	C57.979164,40.730026 58.555649,41.341915 58.890205,41.972000 
	C58.648273,41.990200 58.163040,41.990761 57.804199,42.012054 
	C55.110531,43.582249 56.186020,44.484703 58.028076,45.464432 
	C58.003494,45.691669 57.902481,46.137497 57.631523,46.143883 
	C57.129143,46.775505 56.897717,47.400742 56.447784,48.154366 
	C54.485901,48.521553 52.742519,48.760361 50.708801,49.019196 
	C49.953415,49.336624 49.488377,49.634022 49.023335,49.931423 
M53.857437,44.599422 
	C53.346684,44.316399 52.835926,44.033371 52.325172,43.750347 
	C52.128380,44.321369 51.931587,44.892395 51.734795,45.463417 
	C52.396305,45.369652 53.057812,45.275887 53.857437,44.599422 
z"/>
<path fill="#DBDBDB" opacity="1.000000" stroke="none" 
	d="
M78.134033,48.990322 
	C79.749336,46.532932 81.364632,44.075546 83.034729,41.236851 
	C84.911453,43.459049 86.733391,46.062550 87.920074,48.828732 
	C85.846634,49.982517 84.408424,50.973621 82.970215,51.964722 
	C82.970215,51.964718 83.000000,52.000000 82.620056,51.957027 
	C80.851204,52.260765 79.462303,52.607475 78.007957,52.701973 
	C77.892387,52.283443 77.842255,52.117123 77.867500,51.585197 
	C78.006599,50.476501 78.070312,49.733410 78.134033,48.990322 
z"/>
<path fill="#C6C3C3" opacity="1.000000" stroke="none" 
	d="
M63.171375,36.707043 
	C65.930481,35.417107 68.719612,32.120796 71.772141,37.228626 
	C72.129326,38.011406 72.103287,38.395607 71.788757,38.904701 
	C70.998848,39.686996 70.497437,40.344398 69.697441,40.971718 
	C67.978539,40.630547 66.558228,40.319447 64.914429,39.805492 
	C64.136925,39.428280 63.582912,39.253925 63.031837,38.683105 
	C63.080311,37.760105 63.125843,37.233574 63.171375,36.707043 
z"/>
<path fill="#EFEFEF" opacity="1.000000" stroke="none" 
	d="
M72.077248,38.779808 
	C72.103287,38.395607 72.129326,38.011406 72.101334,37.342117 
	C73.158188,34.463017 74.768082,32.900360 77.950821,34.623955 
	C77.930878,34.995979 77.758911,35.018311 77.003448,35.080811 
	C75.680649,35.794296 74.941345,36.467617 74.173035,37.429310 
	C74.731438,37.821041 75.318832,37.924400 76.040359,37.791443 
	C76.463104,37.340317 76.751717,37.125507 77.040329,36.910698 
	C78.964256,39.196857 77.536339,40.211857 74.857002,40.971004 
	C73.507019,40.225857 72.792137,39.502831 72.077248,38.779808 
z"/>
<path fill="#EFEFEF" opacity="1.000000" stroke="none" 
	d="
M59.132137,41.953800 
	C58.555649,41.341915 57.979164,40.730026 57.097984,40.019386 
	C56.821033,39.200451 56.848778,38.480270 57.214611,37.427490 
	C58.691429,37.789959 59.830154,38.485031 60.977852,39.485786 
	C60.991764,40.199200 60.996708,40.606930 60.862648,41.218689 
	C60.499794,41.673813 60.230831,41.859585 59.720650,41.972076 
	C59.524540,41.964119 59.132137,41.953800 59.132137,41.953800 
z"/>
<path fill="#9C9898" opacity="1.000000" stroke="none" 
	d="
M83.389648,52.008389 
	C84.408424,50.973621 85.846634,49.982517 87.652374,48.999199 
	C88.005753,49.748890 87.991600,50.490795 88.001038,51.605846 
	C86.619446,52.003349 85.214264,52.027702 83.389648,52.008389 
z"/>
<path fill="#DBDBDB" opacity="1.000000" stroke="none" 
	d="
M61.001648,41.014656 
	C60.996708,40.606930 60.991764,40.199200 61.007614,39.038544 
	C60.999130,37.103260 60.969860,35.920906 60.940590,34.738556 
	C61.634357,35.158653 62.328125,35.578754 63.096634,36.352947 
	C63.125843,37.233574 63.080311,37.760105 62.895725,38.941154 
	C62.171665,40.068665 61.586658,40.541660 61.001648,41.014656 
z"/>
<path fill="#CDCAC7" opacity="1.000000" stroke="none" 
	d="
M60.567657,34.726078 
	C60.969860,35.920906 60.999130,37.103260 60.998642,38.732857 
	C59.830154,38.485031 58.691429,37.789959 57.193611,37.067516 
	C56.044399,33.505760 58.878723,35.206131 60.567657,34.726078 
z"/>
<path fill="#DBDBDB" opacity="1.000000" stroke="none" 
	d="
M83.134193,40.707672 
	C82.979988,40.697021 82.773857,40.457581 82.752998,40.125221 
	C82.938271,40.032303 83.082268,40.478882 83.134193,40.707672 
z"/>
<path fill="#D5D4D5" opacity="1.000000" stroke="none" 
	d="
M50.999142,48.999165 
	C52.742519,48.760361 54.485901,48.521553 56.560364,48.177734 
	C56.891445,48.072720 57.118622,48.037086 57.138535,48.313606 
	C57.423893,48.744026 57.689335,48.897919 57.960678,49.020348 
	C57.966576,48.988880 57.929562,49.042034 57.756035,49.169655 
	C57.582512,49.297279 57.682503,49.716320 57.682503,49.716320 
	C57.963165,50.497204 58.243832,51.278088 58.523201,52.488411 
	C55.664173,54.786842 53.609024,52.536175 51.158382,51.254509 
	C51.002174,50.995274 51.020615,50.969818 51.245682,50.829803 
	C51.314098,50.126915 51.157448,49.564037 51.000397,49.000580 
	C51.000000,49.000000 50.999142,48.999165 50.999142,48.999165 
z"/>
<path fill="#D5D4D5" opacity="1.000000" stroke="none" 
	d="
M49.175720,50.187794 
	C49.488377,49.634022 49.953415,49.336624 50.708801,49.019196 
	C50.999142,48.999165 51.000000,49.000000 51.000603,49.328911 
	C51.007675,50.095158 51.014145,50.532486 51.020615,50.969818 
	C51.020615,50.969818 51.002174,50.995274 50.991257,51.007652 
	C50.429592,50.828075 49.878849,50.636120 49.175720,50.187794 
z"/>
<path fill="#EFEFEF" opacity="1.000000" stroke="none" 
	d="
M87.996399,64.679001 
	C87.824333,65.021088 87.654388,65.026733 87.230431,65.007523 
	C86.976425,64.982681 87.010735,64.997208 86.880630,64.718735 
	C86.110916,63.302368 85.471306,62.164467 84.831696,61.026566 
	C85.887306,62.131893 86.942917,63.237221 87.996399,64.679001 
z"/>
<path fill="#C6C3C3" opacity="1.000000" stroke="none" 
	d="
M84.657852,61.017002 
	C85.471306,62.164467 86.110916,63.302368 86.889404,64.734909 
	C86.615616,64.997551 86.202965,64.965546 85.487450,64.874359 
	C84.980484,64.296036 84.776375,63.776905 84.349182,63.083725 
	C84.110153,62.480206 84.094215,62.050728 84.107712,61.298927 
	C84.137146,60.976601 84.484001,61.007439 84.657852,61.017002 
z"/>
<path fill="#F6F6F6" opacity="1.000000" stroke="none" 
	d="
M83.007080,60.765289 
	C82.830193,61.026684 82.644745,61.038956 82.180603,61.030586 
	C82.104721,60.745029 82.307518,60.480114 82.742035,60.116711 
	C82.973755,60.018223 82.998520,60.516159 83.007080,60.765289 
z"/>
<path fill="#CDCDCD" opacity="1.000000" stroke="none" 
	d="
M65.137909,40.008350 
	C66.558228,40.319447 67.978539,40.630547 69.742348,41.360153 
	C71.043816,42.966507 72.001785,44.154354 72.959763,45.342201 
	C72.959763,45.342201 72.917984,45.720913 72.623001,45.957535 
	C71.893303,46.759571 71.458588,47.324993 71.023865,47.890411 
	C68.951324,47.983643 66.878777,48.076874 64.407837,48.134125 
	C64.009430,48.098141 64.040962,47.878464 64.161987,47.628319 
	C64.514664,46.876347 64.746307,46.374523 64.959122,45.620197 
	C64.918594,45.200298 64.896896,45.032898 65.015884,44.572227 
	C65.150352,42.855423 65.144135,41.431885 65.137909,40.008350 
z"/>
<path fill="#5E4E08" opacity="1.000000" stroke="none" 
	d="
M75.974808,52.944538 
	C75.438850,53.715412 74.902893,54.486286 73.719025,56.189056 
	C73.490433,53.698181 73.330910,51.959854 73.824036,50.072655 
	C74.961647,49.947144 75.446602,49.970497 75.955315,50.480339 
	C75.977646,51.626060 75.976227,52.285301 75.974808,52.944538 
z"/>
<path fill="#513831" opacity="1.000000" stroke="none" 
	d="
M75.931564,49.993851 
	C75.446602,49.970497 74.961647,49.947144 74.120773,49.841408 
	C73.281487,49.383392 72.798111,49.007755 72.381500,48.329857 
	C72.617661,47.995636 72.787064,47.963673 72.956467,47.931705 
	C74.427773,48.258896 75.899078,48.586086 77.752213,48.951797 
	C78.070312,49.733410 78.006599,50.476501 77.651886,51.413269 
	C76.884438,51.069252 76.408005,50.531555 75.931564,49.993851 
z"/>
<path fill="#9C9898" opacity="1.000000" stroke="none" 
	d="
M56.778870,48.049351 
	C56.897717,47.400742 57.129143,46.775505 57.623257,46.189087 
	C57.885948,46.227909 57.956882,46.290905 58.160019,46.507500 
	C58.958290,46.743031 59.553432,46.761963 60.177444,46.806328 
	C60.206318,46.831764 60.235649,46.902920 60.164200,47.114891 
	C60.092751,47.326859 60.009087,47.766338 59.948608,47.993423 
	C59.888130,48.220512 59.771133,48.675720 59.771133,48.675720 
	C59.771133,48.675720 59.294415,48.757870 58.829437,48.801502 
	C58.364464,48.845135 57.929562,49.042034 57.929562,49.042034 
	C57.929562,49.042034 57.966576,48.988880 57.935951,48.779957 
	C57.706448,48.299721 57.444210,48.121738 57.118622,48.037086 
	C57.118622,48.037086 56.891445,48.072720 56.778870,48.049351 
z"/>
<path fill="#2E2917" opacity="1.000000" stroke="none" 
	d="
M75.955315,50.480339 
	C76.408005,50.531555 76.884438,51.069252 77.576492,51.778877 
	C77.842255,52.117123 77.892387,52.283443 77.933563,52.963226 
	C77.940704,53.657028 77.956802,53.837364 77.915634,54.073250 
	C77.858368,54.128803 77.729767,54.223274 77.729767,54.223274 
	C77.201187,53.920673 76.672615,53.618073 76.059418,53.130005 
	C75.976227,52.285301 75.977646,51.626060 75.955315,50.480339 
z"/>
<path fill="#EFEFEF" opacity="1.000000" stroke="none" 
	d="
M73.042709,47.629177 
	C72.787064,47.963673 72.617661,47.995636 72.217346,48.143013 
	C71.820282,48.212067 71.654129,48.165703 71.255920,48.004879 
	C71.458588,47.324993 71.893303,46.759571 72.618652,46.147987 
	C72.982506,46.510098 73.055725,46.918373 73.042709,47.629177 
z"/>
<path fill="#513831" opacity="1.000000" stroke="none" 
	d="
M63.967018,48.200676 
	C63.520226,48.579716 63.115845,48.856216 62.396095,48.890671 
	C62.080734,48.648617 62.046429,48.190426 62.377880,48.127701 
	C63.153210,48.002804 63.597084,47.940636 64.040962,47.878464 
	C64.040962,47.878464 64.009430,48.098141 63.967018,48.200676 
z"/>
<path fill="#776F52" opacity="1.000000" stroke="none" 
	d="
M62.046429,48.190426 
	C62.046429,48.190426 62.080734,48.648617 62.143639,48.870995 
	C61.656586,49.040699 61.106632,48.988022 60.163906,48.805531 
	C59.771133,48.675720 59.888130,48.220512 60.213943,48.050266 
	C60.717220,47.844707 60.894680,47.809399 61.321091,47.865582 
	C61.728844,48.034863 61.887638,48.112644 62.046429,48.190426 
z"/>
<path fill="#776F52" opacity="1.000000" stroke="none" 
	d="
M57.756035,49.169655 
	C57.929562,49.042034 58.364464,48.845135 58.600136,48.878456 
	C58.650379,49.229668 58.464954,49.547558 57.981014,49.790886 
	C57.682503,49.716320 57.582512,49.297279 57.756035,49.169655 
z"/>
<path fill="#2E2917" opacity="1.000000" stroke="none" 
	d="
M78.868721,54.931969 
	C78.692741,54.917072 78.516754,54.902172 78.109245,54.757542 
	C77.877731,54.627808 77.789482,54.430759 77.759628,54.327019 
	C77.729767,54.223274 77.858368,54.128803 78.108253,54.185181 
	C78.651077,54.380947 78.821274,54.611084 78.868721,54.931969 
z"/>
<path fill="#9C9898" opacity="1.000000" stroke="none" 
	d="
M79.230293,54.956249 
	C78.821274,54.611084 78.651077,54.380947 78.165512,54.129631 
	C77.956802,53.837364 77.940704,53.657028 77.999008,53.215443 
	C79.462303,52.607475 80.851204,52.260765 82.604202,51.940193 
	C81.842819,52.971069 80.717339,53.975800 79.230293,54.956249 
z"/>
<path fill="#73252E" opacity="1.000000" stroke="none" 
	d="
M73.125740,45.184761 
	C72.001785,44.154354 71.043816,42.966507 70.040932,41.390228 
	C70.497437,40.344398 70.998848,39.686996 71.788757,38.904701 
	C72.792137,39.502831 73.507019,40.225857 74.505707,41.063976 
	C74.902420,41.366493 75.015335,41.553921 75.248810,42.261925 
	C74.827049,43.504471 74.284729,44.226444 73.742401,44.948418 
	C73.742401,44.948418 73.291718,45.027317 73.125740,45.184761 
z"/>
<path fill="#CDCAC7" opacity="1.000000" stroke="none" 
	d="
M74.202042,37.140938 
	C74.941345,36.467617 75.680649,35.794296 76.750862,35.142975 
	C77.063385,35.552895 77.044998,35.940815 77.033470,36.619720 
	C76.751717,37.125507 76.463104,37.340317 75.825844,37.679672 
	C75.052147,37.583122 74.627090,37.362030 74.202042,37.140938 
z"/>
<path fill="#DBDBDB" opacity="1.000000" stroke="none" 
	d="
M74.081955,44.985817 
	C74.284729,44.226444 74.827049,43.504471 75.502548,42.470116 
	C76.026634,42.521717 76.417542,42.885696 76.808456,43.249680 
	C76.012810,43.840858 75.217163,44.432034 74.081955,44.985817 
z"/>
<path fill="#CDCDCD" opacity="1.000000" stroke="none" 
	d="
M78.467407,44.445957 
	C78.531792,44.404209 78.403023,44.487705 78.467407,44.445957 
z"/>
<path fill="#CDCDCD" opacity="1.000000" stroke="none" 
	d="
M76.548515,46.550941 
	C76.478813,46.591976 76.618217,46.509911 76.548515,46.550941 
z"/>
<path fill="#E5E4E3" opacity="1.000000" stroke="none" 
	d="
M58.890205,41.972000 
	C59.132137,41.953800 59.524540,41.964119 59.792412,42.277359 
	C60.711437,43.390404 61.362587,44.190205 62.053276,45.224365 
	C62.092812,45.458725 62.162251,45.929043 61.828728,45.948032 
	C61.049858,45.969044 60.604515,45.971066 59.784386,45.965363 
	C58.925362,46.068729 58.441120,46.179817 57.956882,46.290909 
	C57.956882,46.290905 57.885948,46.227909 57.894215,46.182701 
	C57.902481,46.137497 58.003494,45.691669 58.243927,45.261841 
	C58.377254,43.884930 58.270149,42.937847 58.163040,41.990761 
	C58.163040,41.990761 58.648273,41.990200 58.890205,41.972000 
z"/>
<path fill="#BCBBBB" opacity="1.000000" stroke="none" 
	d="
M57.804199,42.012054 
	C58.270149,42.937847 58.377254,43.884930 58.268509,45.034603 
	C56.186020,44.484703 55.110531,43.582249 57.804199,42.012054 
z"/>
<path fill="#D5D4D5" opacity="1.000000" stroke="none" 
	d="
M53.788380,44.890774 
	C53.057812,45.275887 52.396305,45.369652 51.734795,45.463417 
	C51.931587,44.892395 52.128380,44.321369 52.325172,43.750347 
	C52.835926,44.033371 53.346684,44.316399 53.788380,44.890774 
z"/>
<path fill="#73252E" opacity="1.000000" stroke="none" 
	d="
M62.013737,44.990009 
	C61.362587,44.190205 60.711437,43.390404 59.988518,42.285320 
	C60.230831,41.859585 60.499794,41.673813 60.862644,41.218689 
	C61.586658,40.541660 62.171665,40.068665 62.892784,39.337620 
	C63.582912,39.253925 64.136925,39.428280 64.914429,39.805492 
	C65.144135,41.431885 65.150352,42.855423 64.663513,44.654022 
	C63.451550,45.016056 62.732643,45.003033 62.013737,44.990009 
z"/>
<path fill="#B6B5B5" opacity="1.000000" stroke="none" 
	d="
M74.173035,37.429306 
	C74.627090,37.362030 75.052147,37.583122 75.691711,37.915985 
	C75.318832,37.924400 74.731438,37.821041 74.173035,37.429306 
z"/>
<path fill="#DADADA" opacity="1.000000" stroke="none" 
	d="
M51.245682,50.829803 
	C51.014145,50.532486 51.007675,50.095158 51.000999,49.329491 
	C51.157448,49.564037 51.314098,50.126915 51.245682,50.829803 
z"/>
<path fill="#776F52" opacity="1.000000" stroke="none" 
	d="
M57.138535,48.313606 
	C57.444210,48.121738 57.706448,48.299721 57.930054,48.811424 
	C57.689335,48.897919 57.423893,48.744026 57.138535,48.313606 
z"/>
<path fill="#E7E7E7" opacity="1.000000" stroke="none" 
	d="
M60.159172,45.973083 
	C60.604515,45.971066 61.049858,45.969044 62.179047,45.971081 
	C63.567913,45.940990 64.272934,45.906845 64.977959,45.872700 
	C64.746307,46.374523 64.514664,46.876347 64.161987,47.628319 
	C63.597084,47.940636 63.153210,48.002804 62.377880,48.127701 
	C61.887638,48.112644 61.728844,48.034863 61.232193,47.675262 
	C60.735622,47.148190 60.516060,46.984680 60.235649,46.902920 
	C60.235649,46.902920 60.206318,46.831764 60.173515,46.605270 
	C60.140713,46.378780 60.159172,45.973087 60.159172,45.973083 
z"/>
<path fill="#9C9898" opacity="1.000000" stroke="none" 
	d="
M64.959122,45.620197 
	C64.272934,45.906845 63.567913,45.940990 62.512573,45.952091 
	C62.162251,45.929043 62.092812,45.458725 62.053276,45.224365 
	C62.732643,45.003033 63.451550,45.016056 64.522827,44.947289 
	C64.896896,45.032898 64.918594,45.200298 64.959122,45.620197 
z"/>
<path fill="#BCBBBB" opacity="1.000000" stroke="none" 
	d="
M59.784386,45.965363 
	C60.159172,45.973087 60.140713,46.378780 60.144642,46.579838 
	C59.553432,46.761963 58.958290,46.743031 58.160019,46.507504 
	C58.441120,46.179817 58.925362,46.068729 59.784386,45.965363 
z"/>
<path fill="#BCBBBB" opacity="1.000000" stroke="none" 
	d="
M60.164200,47.114891 
	C60.516060,46.984680 60.735622,47.148190 60.983238,47.583763 
	C60.894680,47.809399 60.717220,47.844707 60.274422,47.823181 
	C60.009087,47.766338 60.092751,47.326859 60.164200,47.114891 
z"/>
</svg>